<svg width="32" height="32" viewBox="0 0 32 32" fill="none" xmlns="http://www.w3.org/2000/svg">
<path fill-rule="evenodd" clip-rule="evenodd" d="M8.6666 11.333V17.9997C8.6666 19.061 9.08792 20.0783 9.8386 20.8277C10.5879 21.5783 11.6053 21.9997 12.6666 21.9997H19.3333C20.3946 21.9997 21.4119 21.5783 22.1613 20.8277C22.9119 20.0783 23.3333 19.061 23.3333 17.9997V11.333C24.0693 11.333 24.6666 10.7357 24.6666 9.99966V6.66634C24.6666 5.93034 24.0693 5.33301 23.3333 5.33301H8.6666C7.9306 5.33301 7.33325 5.93034 7.33325 6.66634V9.99966C7.33325 10.7357 7.9306 11.333 8.6666 11.333Z" fill="#2B50AA"/>
<path fill-rule="evenodd" clip-rule="evenodd" d="M13.3332 6.66634V2.66634C13.3332 1.93034 12.7358 1.33301 11.9998 1.33301C11.2638 1.33301 10.6665 1.93034 10.6665 2.66634V6.66634C10.6665 7.40234 11.2638 7.99967 11.9998 7.99967C12.7358 7.99967 13.3332 7.40234 13.3332 6.66634Z" fill="#2B50AA"/>
<path fill-rule="evenodd" clip-rule="evenodd" d="M21.3332 6.66634V2.66634C21.3332 1.93034 20.7358 1.33301 19.9998 1.33301C19.2638 1.33301 18.6665 1.93034 18.6665 2.66634V6.66634C18.6665 7.40234 19.2638 7.99967 19.9998 7.99967C20.7358 7.99967 21.3332 7.40234 21.3332 6.66634Z" fill="#2B50AA"/>
<path fill-rule="evenodd" clip-rule="evenodd" d="M14.6665 20.6663V25.333C14.6665 26.7477 15.2278 28.1037 16.2292 29.1037C17.2292 30.105 18.5852 30.6663 19.9998 30.6663H22.6665C23.4025 30.6663 23.9998 30.069 23.9998 29.333C23.9998 28.597 23.4025 27.9997 22.6665 27.9997H19.9998C19.2932 27.9997 18.6145 27.7183 18.1145 27.2183C17.6145 26.7183 17.3332 26.0397 17.3332 25.333C17.3332 23.061 17.3332 20.6663 17.3332 20.6663C17.3332 19.9303 16.7358 19.333 15.9998 19.333C15.2638 19.333 14.6665 19.9303 14.6665 20.6663Z" fill="#2B50AA"/>
</svg>
