<svg width="72" height="72" viewBox="0 0 72 72" fill="none" xmlns="http://www.w3.org/2000/svg">
<rect x="0.5" y="0.5" width="71" height="71" rx="23.5" fill="#2B50AA"/>
<rect x="0.5" y="0.5" width="71" height="71" rx="23.5" stroke="#E0E0E0"/>
<path d="M42.5233 23.2207V25.7949C47.414 28.2309 50.6937 33.3051 50.6937 38.9621C50.6937 41.0009 50.276 42.9438 49.5222 44.7102L23.5723 31.1541C25.0032 28.8832 27.0402 27.0112 29.4765 25.7957V23.2207C23.0601 25.8895 18.9624 32.1262 18.9624 38.9621C18.9624 48.3793 26.5829 55.9996 35.9999 55.9996C45.4171 55.9996 53.0374 48.3791 53.0374 38.9621C53.0374 32.0798 48.8994 25.8717 42.5233 23.2207ZM35.9999 53.6559C27.8976 53.6559 21.3062 47.0645 21.3062 38.9621C21.3062 36.9479 21.7241 35.0057 22.4834 33.2295L28.4026 36.3217L27.4944 38.2262C30.0497 39.8675 31.6854 39.7793 33.2054 38.8307L35.5191 40.0394C32.836 42.2104 30.0867 42.572 26.4795 40.3552L25.6975 41.9942C24.1815 45.1724 26.4983 48.8513 30.0248 48.8513H41.9811C44.0561 48.8513 45.783 47.5506 46.4647 45.7574L48.4324 46.7853C45.8277 50.9101 41.2288 53.6559 35.9999 53.6559Z" fill="white"/>
<path d="M30.1702 32.6156L36.5038 35.9281C38.0272 34.5375 39.8483 33.275 42.3452 33.6937L40.1795 29.1562V18.3438H40.2894C40.9366 18.3438 41.4613 17.8191 41.4613 17.1719C41.4613 16.5247 40.9366 16 40.2894 16H31.7205C31.0733 16 30.5486 16.5247 30.5486 17.1719C30.5486 17.8191 31.0733 18.3438 31.7205 18.3438H31.8202V29.1562L30.1702 32.6156Z" fill="white"/>
<path d="M38.7334 37.0945L45.7107 40.7429L43.7725 36.6828C41.7267 35.5608 40.3732 35.7717 38.7334 37.0945Z" fill="white"/>
</svg>
