<svg width="26" height="24" viewBox="0 0 26 24" fill="none" xmlns="http://www.w3.org/2000/svg">
<path d="M5.50085 4.4875H20.5739C20.8514 4.4875 21.1219 4.526 21.3844 4.59C21.0929 3.6715 20.2429 3 19.2289 3H6.77085C5.75085 3 4.89635 3.68 4.61035 4.607C4.89685 4.53 5.19535 4.4875 5.50085 4.4875Z" fill="#1C2B54"/>
<path d="M4.0003 7.00028H22.0003C22.3013 7.00028 22.5913 7.04578 22.8653 7.12878C22.8218 7.00128 22.7713 6.87578 22.7073 6.75728C22.2818 5.97428 21.4648 5.48828 20.5743 5.48828H5.5013C4.6083 5.48828 3.7898 5.97678 3.3653 6.76328C3.3058 6.87378 3.2583 6.98978 3.2168 7.10828C3.4668 7.04028 3.7288 7.00028 4.0003 7.00028Z" fill="#1C2B54"/>
<path d="M22 8H4C2.8955 8 2 8.8955 2 10V19.5C2 20.6045 2.8955 21.5 4 21.5H22C23.1045 21.5 24 20.6045 24 19.5V10C24 8.8955 23.1045 8 22 8ZM16.457 16.049L11.957 18.647C11.722 18.7825 11.4645 18.8505 11.207 18.8505C10.9495 18.8505 10.6915 18.783 10.457 18.647C9.9875 18.376 9.707 17.8905 9.707 17.348V12.152C9.707 11.6095 9.9875 11.124 10.457 10.853C10.9265 10.582 11.4875 10.582 11.957 10.853L16.457 13.451C16.9265 13.722 17.207 14.208 17.207 14.75C17.207 15.292 16.9265 15.778 16.457 16.049Z" fill="#1C2B54"/>
</svg>
