<svg width="45" height="41" viewBox="0 0 45 41" fill="none" xmlns="http://www.w3.org/2000/svg">
<path d="M9.66776 8.1862H34.7895C35.252 8.1862 35.7028 8.25036 36.1403 8.35703C35.6545 6.8262 34.2378 5.70703 32.5478 5.70703H11.7844C10.0844 5.70703 8.66026 6.84036 8.18359 8.38536C8.66109 8.25703 9.15859 8.1862 9.66776 8.1862Z" fill="#1C2B54"/>
<path d="M7.16716 12.374H37.1672C37.6688 12.374 38.1522 12.4498 38.6088 12.5881C38.5363 12.3756 38.4522 12.1665 38.3455 11.969C37.6363 10.664 36.2747 9.854 34.7905 9.854H9.66883C8.18049 9.854 6.81633 10.6682 6.10883 11.979C6.00966 12.1631 5.93049 12.3565 5.86133 12.554C6.27799 12.4406 6.71466 12.374 7.16716 12.374Z" fill="#1C2B54"/>
<path d="M37.1663 14.0405H7.16634C5.32551 14.0405 3.83301 15.533 3.83301 17.3738V33.2072C3.83301 35.048 5.32551 36.5405 7.16634 36.5405H37.1663C39.0072 36.5405 40.4997 35.048 40.4997 33.2072V17.3738C40.4997 15.533 39.0072 14.0405 37.1663 14.0405ZM27.928 27.4555L20.428 31.7855C20.0363 32.0113 19.6072 32.1247 19.178 32.1247C18.7488 32.1247 18.3188 32.0122 17.928 31.7855C17.1455 31.3338 16.678 30.5247 16.678 29.6205V20.9605C16.678 20.0563 17.1455 19.2472 17.928 18.7955C18.7105 18.3438 19.6455 18.3438 20.428 18.7955L27.928 23.1255C28.7105 23.5772 29.178 24.3872 29.178 25.2905C29.178 26.1938 28.7105 27.0038 27.928 27.4555Z" fill="#1C2B54"/>
</svg>
