<svg width="30" height="30" viewBox="0 0 30 30" fill="none" xmlns="http://www.w3.org/2000/svg">
<path d="M14.9998 6.80615C11.9171 6.80615 9.40918 9.31411 9.40918 12.3967C9.40918 15.4793 11.9171 17.9873 14.9998 17.9873C18.0823 17.9873 20.5903 15.4793 20.5903 12.3967C20.5903 9.31411 18.0824 6.80615 14.9998 6.80615Z" fill="#1C2B54"/>
<path d="M27.396 12.3967C27.396 5.56113 21.8349 0 14.9994 0C8.16371 0 2.60254 5.56113 2.60254 12.3967C2.60254 18.219 6.63743 23.1158 12.0576 24.44V25.8435H11.7323C10.8788 25.8435 10.0852 26.339 9.71059 27.106L9.16211 28.2289C8.97454 28.6129 8.99779 29.0586 9.22414 29.4211C9.45049 29.7835 9.84071 30 10.2681 30H19.447C19.8744 30 20.2647 29.7836 20.491 29.4211C20.7173 29.0586 20.7405 28.6129 20.553 28.2289L20.0045 27.106C19.6299 26.339 18.8363 25.8435 17.9828 25.8435H17.6455V24.5083C23.2139 23.2928 27.396 18.3243 27.396 12.3967ZM14.9993 19.7449C10.9475 19.7449 7.65116 16.4485 7.65116 12.3967C7.65116 8.34495 10.9476 5.04861 14.9993 5.04861C19.051 5.04861 22.3474 8.34495 22.3474 12.3967C22.3474 16.4485 19.051 19.7449 14.9993 19.7449Z" fill="#1C2B54"/>
</svg>
