<svg width="44" height="44" viewBox="0 0 44 44" fill="none" xmlns="http://www.w3.org/2000/svg">
<g clip-path="url(#clip0_676_10792)">
<mask id="mask0_676_10792" style="mask-type:luminance" maskUnits="userSpaceOnUse" x="0" y="0" width="44" height="44">
<path d="M44 0H0V44H44V0Z" fill="white"/>
</mask>
<g mask="url(#mask0_676_10792)">
<path d="M43.4013 34.8907L26.0663 4.44205C24.3003 1.33997 19.7 1.33929 17.9334 4.44205L16.9802 6.11661C16.5807 6.81816 17.684 7.48848 18.1014 6.75493L19.0547 5.08046C20.3327 2.8357 23.667 2.83579 24.945 5.08046L42.2802 35.5291C43.5495 37.7588 41.8885 40.5949 39.3349 40.5949H4.66501C2.11145 40.5949 0.450488 37.7588 1.71982 35.5291L16.4222 9.70444C16.8217 9.00287 15.7186 8.33264 15.301 9.0661L0.598521 34.8907C-1.14794 37.9584 1.14507 41.8851 4.66493 41.8851H39.3348C42.8547 41.8852 45.1482 37.959 43.4013 34.8907Z" fill="#1C2B54"/>
<path d="M37.1875 31.9476C37.4972 31.7713 37.6052 31.3774 37.429 31.0677L23.1877 6.05322C22.6787 5.15505 21.3283 5.14747 20.814 6.05098L3.47936 36.4989C2.97325 37.3857 3.63506 38.5443 4.66484 38.5443H39.3355C40.3576 38.5443 41.0295 37.3929 40.5217 36.5002L39.1194 34.037C38.72 33.3353 37.5805 33.9419 37.9982 34.6754L39.4003 37.1383C39.4339 37.1975 39.3886 37.2541 39.3355 37.2541H4.66492C4.61176 37.2541 4.56626 37.1976 4.60032 37.1379L21.9352 6.68939C21.9663 6.63469 22.0352 6.63658 22.0658 6.69043L36.3078 31.7062C36.484 32.0157 36.878 32.1238 37.1875 31.9476Z" fill="#1C2B54"/>
<path d="M24.3638 17.88C24.3638 16.5633 23.3035 15.4922 22.0003 15.4922C20.6969 15.4922 19.6367 16.5633 19.6367 17.88V26.0515C19.6367 27.3682 20.6969 28.4393 22.0003 28.4393C23.3035 28.4393 24.3638 27.3682 24.3638 26.0515V17.88ZM23.0736 26.0515C23.0736 26.6567 22.5921 27.149 22.0003 27.149C21.4085 27.149 20.927 26.6567 20.927 26.0515V17.88C20.927 17.2748 21.4085 16.7824 22.0003 16.7824C22.5921 16.7824 23.0736 17.2748 23.0736 17.88V26.0515Z" fill="#1C2B54"/>
<path d="M22.0003 29.6035C20.697 29.6035 19.6367 30.6747 19.6367 31.9914C19.6367 33.308 20.6969 34.3791 22.0003 34.3791C23.3035 34.3791 24.3638 33.308 24.3638 31.9914C24.3638 30.6747 23.3034 29.6035 22.0003 29.6035ZM22.0003 33.0888C21.4085 33.0888 20.927 32.5965 20.927 31.9913C20.927 31.3861 21.4085 30.8937 22.0003 30.8937C22.5921 30.8937 23.0736 31.3861 23.0736 31.9913C23.0736 32.5965 22.5921 33.0888 22.0003 33.0888Z" fill="#1C2B54"/>
<path d="M35.3267 13.2596C37.4886 13.7504 38.8657 15.9109 38.3965 18.0758C38.2283 18.8523 39.4707 19.2109 39.6575 18.3492C40.2758 15.4957 38.4612 12.6481 35.6122 12.0014C34.8251 11.8222 34.5036 13.0728 35.3267 13.2596Z" fill="#1C2B54"/>
<path d="M36.2105 9.66206C40.311 10.5928 42.9228 14.6907 42.0327 18.7971C41.8646 19.5734 43.1069 19.9322 43.2937 19.0705C44.333 14.2755 41.2837 9.49044 36.496 8.4038C35.7089 8.22428 35.3875 9.47513 36.2105 9.66206Z" fill="#1C2B54"/>
<path d="M4.34262 18.3492C4.51698 19.1534 5.78055 18.8924 5.60361 18.0758C5.1344 15.9109 6.51152 13.7504 8.67335 13.2596C9.46057 13.0809 9.21061 11.8136 8.38778 12.0013C5.53885 12.6481 3.72416 15.4957 4.34262 18.3492Z" fill="#1C2B54"/>
<path d="M1.33706 19.5789C1.73987 19.5789 2.05452 19.1955 1.96816 18.797C1.07797 14.6906 3.68994 10.5926 7.7904 9.6619C8.57762 9.48318 8.32766 8.21591 7.50483 8.40369C2.71719 9.49033 -0.332168 14.2754 0.707164 19.0703C0.772708 19.3725 1.03996 19.5789 1.33706 19.5789Z" fill="#1C2B54"/>
</g>
</g>
<defs>
<clipPath id="clip0_676_10792">
<rect width="44" height="44" fill="white"/>
</clipPath>
</defs>
</svg>
