<svg width="56" height="56" viewBox="0 0 56 56" fill="none" xmlns="http://www.w3.org/2000/svg">
<rect x="-0.000244141" width="56" height="56" rx="10" fill="white"/>
<g clip-path="url(#clip0_204_4082)">
<path d="M16.0035 36.3105L15.7039 37.5096C15.5923 37.9562 15.6907 38.4198 15.9739 38.7825C16.2571 39.1452 16.6835 39.3533 17.1433 39.3533C17.8252 39.3533 18.4174 38.891 18.5827 38.2293L19.0589 36.3257H16.394C16.2628 36.3257 16.1322 36.3206 16.0035 36.3105Z" fill="#2B50AA"/>
<path d="M39.9961 36.3105C39.8675 36.3206 39.7369 36.3257 39.6057 36.3257H36.9414L37.417 38.2293C37.5823 38.891 38.1745 39.3533 38.8564 39.3533C39.3162 39.3533 39.7426 39.1452 40.0258 38.7825C40.309 38.4198 40.4074 37.9562 40.2958 37.5096L39.9961 36.3105Z" fill="#2B50AA"/>
<path d="M14.9431 22.2097C16.5484 22.3428 17.9013 23.5312 18.2218 25.132L18.9982 29.0149C19.0853 29.4501 19.4707 29.7662 19.9147 29.7662H36.0847C36.5287 29.7662 36.9141 29.4501 37.0012 29.0149L37.7776 25.132C38.0753 23.6441 39.2656 22.5125 40.7207 22.2532L40.8475 21.5443C41.0645 20.3276 40.734 19.0862 39.9405 18.1382C39.147 17.1902 37.9826 16.6465 36.7464 16.6465H18.9042C17.6402 16.6465 16.4594 17.2104 15.6647 18.1931C14.8699 19.1764 14.5659 20.4493 14.8308 21.6849L14.9431 22.2097Z" fill="#2B50AA"/>
<path d="M43.2872 24.0435C42.7894 23.5116 42.0863 23.2065 41.3578 23.2065C41.0691 23.2065 40.7894 23.2543 40.5264 23.342L40.5266 23.3414C39.6409 23.6315 38.9439 24.4141 38.7672 25.3303L37.9907 29.2129C37.8096 30.1183 37.008 30.7754 36.0846 30.7754H19.915C18.9916 30.7754 18.19 30.1183 18.0089 29.2129L17.2324 25.3303C17.0376 24.3076 16.1894 23.4595 15.1684 23.2601L15.1685 23.2603C14.2843 23.0727 13.3268 23.3804 12.7124 24.0435C12.2148 24.5755 11.9571 25.2974 12.0055 26.0242L12.3571 31.2975C12.3664 33.4681 14.0979 35.2388 16.2529 35.3133L16.2527 35.3144C16.2993 35.3163 16.3466 35.3169 16.3939 35.3169H19.3112H36.6891H39.6057C39.653 35.3169 39.7003 35.3163 39.7469 35.3144L39.7467 35.3133C41.9017 35.2388 43.6332 33.4681 43.6424 31.2975L43.994 26.0242C44.0424 25.2974 43.7848 24.5754 43.2872 24.0435Z" fill="#2B50AA"/>
</g>
<defs>
<clipPath id="clip0_204_4082">
<rect width="32" height="32" fill="white" transform="translate(11.9998 12)"/>
</clipPath>
</defs>
</svg>
