<svg width="33" height="32" viewBox="0 0 33 32" fill="none" xmlns="http://www.w3.org/2000/svg">
<path d="M19.6667 3.66699H13C12.7348 3.66699 12.4805 3.56164 12.2929 3.3741C12.1054 3.18656 12 2.93221 12 2.66699C12 2.40178 12.1054 2.14742 12.2929 1.95989C12.4805 1.77235 12.7348 1.66699 13 1.66699H19.6667C19.9319 1.66699 20.1863 1.77235 20.3738 1.95989C20.5614 2.14742 20.6667 2.40178 20.6667 2.66699C20.6667 2.93221 20.5614 3.18656 20.3738 3.3741C20.1863 3.56164 19.9319 3.66699 19.6667 3.66699Z" fill="#2B50AA"/>
<path d="M16.3335 7.66699C16.0683 7.66692 15.814 7.56154 15.6265 7.37402C15.439 7.1865 15.3336 6.93219 15.3335 6.66699V2.66699C15.3335 2.40178 15.4389 2.14742 15.6264 1.95989C15.8139 1.77235 16.0683 1.66699 16.3335 1.66699C16.5987 1.66699 16.8531 1.77235 17.0406 1.95989C17.2281 2.14742 17.3335 2.40178 17.3335 2.66699V6.66699C17.3334 6.93219 17.228 7.1865 17.0405 7.37402C16.853 7.56154 16.5987 7.66692 16.3335 7.66699Z" fill="#2B50AA"/>
<path d="M16.3338 5.66699C13.8945 5.66699 11.51 6.39033 9.48179 7.74553C7.45359 9.10074 5.87279 11.0269 4.93931 13.2806C4.00583 15.5342 3.76159 18.014 4.23748 20.4064C4.71336 22.7989 5.888 24.9965 7.61284 26.7213C9.33769 28.4462 11.5352 29.6208 13.9277 30.0967C16.3201 30.5726 18.7999 30.3283 21.0535 29.3948C23.3072 28.4614 25.2334 26.8806 26.5886 24.8524C27.9438 22.8242 28.6671 20.4396 28.6671 18.0003C28.6632 14.7305 27.3626 11.5957 25.0505 9.28363C22.7384 6.97152 19.6036 5.67087 16.3338 5.66699ZM21.0405 22.707C20.9477 22.8 20.8376 22.8737 20.7163 22.9241C20.5951 22.9744 20.465 23.0003 20.3337 23.0003C20.2024 23.0003 20.0724 22.9744 19.9512 22.9241C19.8299 22.8737 19.7198 22.8 19.627 22.707L15.627 18.707C15.4394 18.5197 15.3339 18.2655 15.3337 18.0003V12.667C15.3337 12.4018 15.4391 12.1474 15.6266 11.9599C15.8141 11.7723 16.0685 11.667 16.3337 11.667C16.5989 11.667 16.8533 11.7723 17.0408 11.9599C17.2283 12.1474 17.3337 12.4018 17.3337 12.667V17.587L21.0404 21.2937C21.2262 21.4819 21.3304 21.7358 21.3304 22.0003C21.3304 22.2648 21.2263 22.5187 21.0405 22.707Z" fill="#2B50AA"/>
</svg>
