<svg width="72" height="72" viewBox="0 0 72 72" fill="none" xmlns="http://www.w3.org/2000/svg">
<rect x="0.5" y="0.5" width="71" height="71" rx="23.5" fill="#2B50AA"/>
<rect x="0.5" y="0.5" width="71" height="71" rx="23.5" stroke="#E0E0E0"/>
<g clip-path="url(#clip0_204_4012)">
<mask id="mask0_204_4012" style="mask-type:luminance" maskUnits="userSpaceOnUse" x="16" y="16" width="40" height="40">
<path d="M56 16H16V56H56V16Z" fill="white"/>
</mask>
<g mask="url(#mask0_204_4012)">
<path d="M43.8507 32.4846H37.1719V23.2744L28.1494 39.5159H34.8282V48.7261L43.8507 32.4846Z" fill="white"/>
<path d="M25.5215 50.0435L25.0798 42.8177L23.449 44.4783C22.0468 42.1336 20.6875 39.8807 20.6875 35.981C20.6875 33.4362 21.3882 31.024 22.6609 28.8741L19.0807 29.5759L19.2487 25.5254C17.1712 28.6064 16 32.2291 16 35.981C16 40.5798 17.4468 43.8823 19.8189 47.3725L18.1252 48.7744L25.5215 50.0435Z" fill="white"/>
<path d="M45.6451 18.7145C42.7394 16.9572 39.4548 16 36.0001 16C31.067 16 27.3096 17.7358 23.7 20.5673L21.9376 19.0842L21.624 26.6453L29.3156 25.1369L27.2843 23.5897C29.629 22.1703 31.8711 20.7218 35.9829 20.7218C38.1189 20.7218 40.17 21.2065 42.0325 22.0859L41.27 18.7145H45.6451Z" fill="white"/>
<path d="M50.658 22.8212L52.6503 21.1172H44.2812L45.9499 28.4952L47.8415 26.6412C49.5396 28.985 51.3125 31.5611 51.3125 35.9806C51.3125 37.8505 50.9321 39.6798 50.2207 41.3831L52.482 40.5423L52.944 46.2144C54.9372 43.1729 56 39.6727 56 35.9807C56 30.53 53.9609 26.633 50.658 22.8212Z" fill="white"/>
<path d="M50.3188 43.915L43.0313 46.625L45.1702 48.0521C42.8263 49.5824 40.4744 51.2371 36.0596 51.2371C33.0459 51.2371 30.2028 50.3094 27.8568 48.6563L28.1196 52.9514L24.9751 52.4118C28.1621 54.7368 31.9878 56 36 56C41.4092 56 45.4301 53.9439 49.1161 50.6808L50.9781 52.0083L50.3188 43.915Z" fill="white"/>
</g>
</g>
<defs>
<clipPath id="clip0_204_4012">
<rect width="40" height="40" fill="white" transform="translate(16 16)"/>
</clipPath>
</defs>
</svg>
