<svg width="20" height="20" viewBox="0 0 20 20" fill="none" xmlns="http://www.w3.org/2000/svg">
<g clip-path="url(#clip0_425_7318)">
<mask id="mask0_425_7318" style="mask-type:luminance" maskUnits="userSpaceOnUse" x="0" y="0" width="20" height="20">
<path d="M20 0H0V20H20V0Z" fill="white"/>
</mask>
<g mask="url(#mask0_425_7318)">
<path d="M0.833323 6.09473C0.373074 6.09473 0 6.4678 0 6.92809V13.0722C0 13.5324 0.373074 13.9055 0.833323 13.9055H3.31641V6.09473H0.833323Z" fill="#2B50AA"/>
<path d="M11.5062 2.54541C11.5062 1.89778 10.7713 1.5239 10.2478 1.90523L4.10107 6.09469V13.9055L10.2478 18.0949C10.7713 18.4763 11.5063 18.1023 11.5063 17.4547L11.5062 2.54541Z" fill="#2B50AA"/>
<path d="M20.0001 7.29818L19.4109 6.70898L16.7093 9.41064L14.0076 6.70898L13.4185 7.29818L16.1201 9.99979L13.4185 12.7014L14.0076 13.2906L16.7093 10.589L19.4109 13.2906L20.0001 12.7014L17.2985 9.99979L20.0001 7.29818Z" fill="#2B50AA"/>
</g>
</g>
<defs>
<clipPath id="clip0_425_7318">
<rect width="20" height="20" fill="white"/>
</clipPath>
</defs>
</svg>
