<svg width="44" height="44" viewBox="0 0 44 44" fill="none" xmlns="http://www.w3.org/2000/svg">
<g clip-path="url(#clip0_676_11919)">
<mask id="mask0_676_11919" style="mask-type:luminance" maskUnits="userSpaceOnUse" x="0" y="0" width="44" height="44">
<path d="M44 0H0V44H44V0Z" fill="white"/>
</mask>
<g mask="url(#mask0_676_11919)">
<path d="M38.1351 35.1973C32.8424 36.8106 27.0989 35.8374 22.6337 32.57C18.1681 29.3027 15.5022 24.1235 15.4384 18.5906C15.422 11.9609 19.0775 5.8675 24.9341 2.76069C25.5313 2.44938 25.8325 1.76494 25.6589 1.11443C25.5061 0.458549 24.9194 -0.00423114 24.246 0.000134703H24.2413C18.2091 -0.0210229 12.4357 2.45105 8.28851 6.83168C4.14129 11.2126 1.98859 17.1122 2.33987 23.1344C2.58402 29.0078 5.20555 34.5296 9.60229 38.4317C13.675 42.0113 18.9089 43.9901 24.331 44.0002C24.7666 44.0002 25.2038 43.9871 25.6391 43.9609C28.8134 43.761 31.9074 42.8775 34.7086 41.3709C36.506 40.3718 38.1486 39.1161 39.5839 37.6435C40.0595 37.17 40.1532 36.4341 39.8109 35.8565C39.4691 35.2792 38.7786 35.0079 38.1351 35.1973ZM34.0131 40.0783C31.3993 41.4848 28.5128 42.3096 25.5507 42.4963C20.074 42.8083 14.6942 40.9538 10.5739 37.3328C6.47433 33.6914 4.03114 28.5397 3.80545 23.0612C3.47466 17.4393 5.48295 11.9307 9.35411 7.84019C13.2256 3.75006 18.6158 1.44254 24.2474 1.46404C17.9065 4.83011 13.9507 11.4303 13.9708 18.6091C14.0407 24.6003 16.9265 30.2095 21.7608 33.7491C26.5948 37.2892 32.8135 38.3474 38.5462 36.6054C37.2119 37.977 35.6849 39.147 34.0131 40.0783Z" fill="#1C2B54"/>
<path d="M26.8139 12.4534C28.8363 12.4534 30.4819 14.4278 30.4819 16.8552C30.4819 17.2606 30.8103 17.589 31.2157 17.589C31.6207 17.589 31.9491 17.2606 31.9491 16.8552C31.9491 14.4278 33.595 12.4534 35.6174 12.4534C36.0228 12.4534 36.3512 12.125 36.3512 11.7196C36.3512 11.3146 36.0228 10.9862 35.6174 10.9862C33.595 10.9862 31.9491 9.01146 31.9491 6.58438C31.9491 6.17903 31.6207 5.85059 31.2157 5.85059C30.8103 5.85059 30.4819 6.17903 30.4819 6.58438C30.4819 9.01146 28.8363 10.9862 26.8139 10.9862C26.4085 10.9862 26.0801 11.3146 26.0801 11.7196C26.0801 12.125 26.4085 12.4534 26.8139 12.4534ZM31.2157 9.60488C31.66 10.4646 32.3209 11.1934 33.1333 11.7196C32.3209 12.2462 31.66 12.975 31.2157 13.8347C30.771 12.975 30.1101 12.2462 29.298 11.7196C30.1101 11.1934 30.771 10.4646 31.2157 9.60488Z" fill="#1C2B54"/>
<path d="M41.067 19.4227C39.5645 19.4227 38.342 17.9417 38.342 16.1215C38.342 15.7161 38.0136 15.3877 37.6086 15.3877C37.2032 15.3877 36.8748 15.7161 36.8748 16.1215C36.8748 17.9417 35.6527 19.4227 34.1498 19.4227C33.7448 19.4227 33.416 19.7512 33.416 20.1565C33.416 20.5616 33.7448 20.89 34.1498 20.89C35.6527 20.89 36.8748 22.371 36.8748 24.1916C36.8748 24.5966 37.2032 24.9251 37.6086 24.9251C38.0136 24.9251 38.342 24.5966 38.342 24.1916C38.342 22.371 39.5645 20.89 41.067 20.89C41.4723 20.89 41.8008 20.5616 41.8008 20.1565C41.8008 19.7512 41.4723 19.4227 41.067 19.4227ZM37.6086 21.4989C37.2946 20.9733 36.8775 20.5166 36.3818 20.1565C36.8775 19.7965 37.2946 19.3398 37.6086 18.8139C37.9222 19.3398 38.3397 19.7965 38.835 20.1565C38.3397 20.5166 37.9222 20.9733 37.6086 21.4989Z" fill="#1C2B54"/>
</g>
</g>
<defs>
<clipPath id="clip0_676_11919">
<rect width="44" height="44" fill="white"/>
</clipPath>
</defs>
</svg>
