<svg width="41" height="41" viewBox="0 0 41 41" fill="none" xmlns="http://www.w3.org/2000/svg">
<g clip-path="url(#clip0_676_10899)">
<path d="M39.6667 10.0692C39.1499 9.76578 38.5119 9.75868 37.9884 10.0497L30.9219 13.9846V27.4287L37.9884 31.3635C38.5119 31.6543 39.1499 31.6473 39.6667 31.3438C40.1824 31.0405 40.5 30.486 40.5 29.8875V11.5256C40.5 10.9272 40.1824 10.3726 39.6667 10.0692Z" fill="#1C2B54"/>
<path d="M26.1432 8.65137H2.19012C1.25649 8.65137 0.5 9.40785 0.5 10.3408V31.0725C0.5 32.0055 1.25649 32.762 2.19012 32.762H26.1432C27.0768 32.762 27.8333 32.0055 27.8333 31.0725V10.3408C27.8333 9.40785 27.0767 8.65137 26.1432 8.65137ZM20.0013 27.2842C15.9843 29.5815 10.8646 28.1883 8.56505 24.1702C6.26695 20.1533 7.66148 15.0335 11.6783 12.7347C12.4752 12.2796 13.315 11.9742 14.168 11.8004C11.8177 14.4163 11.2811 18.3425 13.1237 21.5627C14.9661 24.7833 18.621 26.3113 22.0692 25.6102C21.487 26.2575 20.798 26.8277 20.0013 27.2842Z" fill="#1C2B54"/>
</g>
<defs>
<clipPath id="clip0_676_10899">
<rect width="40" height="40" fill="white" transform="translate(0.5 0.707031)"/>
</clipPath>
</defs>
</svg>
