<svg width="33" height="32" viewBox="0 0 33 32" fill="none" xmlns="http://www.w3.org/2000/svg">
<path d="M29.667 27H3.66699C2.56699 27 1.66699 27.9 1.66699 29C1.66699 30.1 2.56699 31 3.66699 31H29.667C30.767 31 31.667 30.1 31.667 29C31.667 27.9 30.767 27 29.667 27Z" fill="#1C2B54"/>
<path d="M29.667 27C24.4585 30.275 10.278 30.8655 3.66699 31H29.667C30.767 31 31.667 30.1 31.667 29C31.667 27.9 30.767 27 29.667 27Z" fill="#1C2B54"/>
<path d="M24.3176 17.2L18.1676 24.4C17.3676 25.2 16.0176 25.2 15.2176 24.4L9.01754 17.2C8.51755 16.7 8.86754 15.85 9.56754 15.85H11.6676V2.4C11.6676 1.65 12.3176 1 13.0676 1H20.2176C21.0176 1 21.6676 1.65 21.6676 2.4V15.85H23.7676C24.4676 15.85 24.8176 16.7 24.3176 17.2Z" fill="#1C2B54"/>
<path d="M24.3171 17.2L18.1671 24.4C17.3671 25.2 16.0171 25.2 15.2171 24.4L12.6436 21.4115C18.3131 17.2285 20.692 10.3035 20.2171 1C21.0171 1 21.6671 1.65 21.6671 2.4V15.85H23.7671C24.4671 15.85 24.8171 16.7 24.3171 17.2Z" fill="#1C2B54"/>
</svg>
