<svg width="57" height="56" viewBox="0 0 57 56" fill="none" xmlns="http://www.w3.org/2000/svg">
<rect x="0.666992" width="56" height="56" rx="10" fill="white"/>
<g clip-path="url(#clip0_204_4090)">
<path d="M29.0002 12C35.2377 12 40.2943 17.0566 40.2943 23.2941V43.0588C40.2943 43.5786 39.8729 44 39.3531 44H18.6472C18.1274 44 17.7061 43.5786 17.7061 43.0588V23.2941C17.7061 17.0566 22.7626 12 29.0002 12V12ZM19.5884 40.2353V42.1177H38.4119V39.2942H20.5296C20.0098 39.2941 19.5884 39.7155 19.5884 40.2353ZM23.8237 35.5294V37.4118H38.4119V34.5883H24.7649C24.2451 34.5882 23.8237 35.0096 23.8237 35.5294ZM28.059 30.8235V32.7059H38.4119V29.8824H29.0002C28.4804 29.8824 28.059 30.3037 28.059 30.8235ZM32.2943 26.1176V28H38.4119V25.1765H33.2354C32.7157 25.1765 32.2943 25.5978 32.2943 26.1176Z" fill="#2B50AA"/>
</g>
<defs>
<clipPath id="clip0_204_4090">
<rect width="32" height="32" fill="white" transform="translate(13 12)"/>
</clipPath>
</defs>
</svg>
