<svg width="33" height="32" viewBox="0 0 33 32" fill="none" xmlns="http://www.w3.org/2000/svg">
<g clip-path="url(#clip0_463_6975)">
<mask id="mask0_463_6975" style="mask-type:luminance" maskUnits="userSpaceOnUse" x="0" y="0" width="33" height="32">
<path d="M32.6665 0H0.666504V32H32.6665V0Z" fill="white"/>
</mask>
<g mask="url(#mask0_463_6975)">
<path d="M31.7288 22.1042C29.8265 22.1042 28.0398 21.3704 26.6975 20.0376C25.3558 18.7056 24.617 16.9314 24.617 15.042C24.617 14.5242 24.1971 14.1045 23.6795 14.1045C23.1617 14.1045 22.742 14.5242 22.742 15.042C22.742 16.9314 22.003 18.7056 20.6612 20.0376C19.3189 21.3704 17.5323 22.1042 15.6299 22.1042C15.1121 22.1042 14.6924 22.5239 14.6924 23.0417C14.6924 23.5596 15.1121 23.9792 15.6299 23.9792C19.5513 23.9792 22.742 27.1567 22.742 31.0623C22.742 31.5801 23.1617 31.9998 23.6795 31.9998C24.1971 31.9998 24.617 31.5801 24.617 31.0623C24.617 27.1567 27.8074 23.9792 31.7288 23.9792C32.2466 23.9792 32.6663 23.5596 32.6663 23.0417C32.6663 22.5239 32.2466 22.1042 31.7288 22.1042Z" fill="#2B50AA"/>
<path d="M13.4936 14.7744C10.7327 14.7744 8.48632 12.5447 8.48632 9.80371C8.48632 9.28613 8.06665 8.86621 7.54882 8.86621C7.031 8.86621 6.61132 9.28613 6.61132 9.80371C6.61132 12.5447 4.36499 14.7744 1.604 14.7744C1.08618 14.7744 0.666504 15.1943 0.666504 15.7119C0.666504 16.2297 1.08618 16.6494 1.604 16.6494C4.36499 16.6494 6.61132 18.8862 6.61132 21.6355C6.61132 22.1531 7.031 22.573 7.54882 22.573C8.06665 22.573 8.48632 22.1531 8.48632 21.6355C8.48632 18.8862 10.7327 16.6494 13.4936 16.6494C14.0115 16.6494 14.4311 16.2297 14.4311 15.7119C14.4311 15.1943 14.0115 14.7744 13.4936 14.7744Z" fill="#2B50AA"/>
<path d="M15.019 6.47852C17.0495 6.47852 18.7016 8.11792 18.7016 10.1328C18.7016 10.6504 19.1213 11.0703 19.6391 11.0703C20.1569 11.0703 20.5766 10.6504 20.5766 10.1328C20.5766 8.11133 22.2287 6.4668 24.2592 6.4668C24.7771 6.4668 25.1967 6.04688 25.1967 5.5293C25.1967 5.01147 24.7771 4.5918 24.2592 4.5918C22.2287 4.5918 20.5766 2.95239 20.5766 0.9375C20.5766 0.419678 20.1569 0 19.6391 0C19.1213 0 18.7016 0.419678 18.7016 0.9375C18.7016 2.95898 17.0495 4.60352 15.019 4.60352C14.5012 4.60352 14.0815 5.02319 14.0815 5.54102C14.0815 6.05884 14.5012 6.47852 15.019 6.47852Z" fill="#2B50AA"/>
</g>
</g>
<defs>
<clipPath id="clip0_463_6975">
<rect width="32" height="32" fill="white" transform="translate(0.666504)"/>
</clipPath>
</defs>
</svg>
