<svg width="20" height="20" viewBox="0 0 20 20" fill="none" xmlns="http://www.w3.org/2000/svg">
<g clip-path="url(#clip0_425_7344)">
<mask id="mask0_425_7344" style="mask-type:luminance" maskUnits="userSpaceOnUse" x="0" y="0" width="20" height="20">
<path d="M20 0H0V20H20V0Z" fill="white"/>
</mask>
<g mask="url(#mask0_425_7344)">
<path fill-rule="evenodd" clip-rule="evenodd" d="M10 20C4.48598 20 0 15.514 0 10C0 4.48598 4.48598 0 10 0C15.514 0 20 4.48598 20 10C20 15.514 15.514 20 10 20ZM15.0753 3.91461L12.0363 6.95352V5.6257C12.0363 5.23121 11.7165 4.91141 11.322 4.91141C10.9276 4.91141 10.6077 5.23117 10.6077 5.6257V8.67797C10.6077 9.07246 10.9275 9.39223 11.322 9.39223H14.3743C14.7687 9.39223 15.0886 9.07246 15.0886 8.67797C15.0886 8.28344 14.7687 7.96367 14.3743 7.96367H13.0464L16.0854 4.92469C16.3644 4.64578 16.3644 4.19348 16.0854 3.91457C15.8064 3.63562 15.3542 3.63562 15.0753 3.91461ZM8.67801 10.6078H5.62574C5.23129 10.6078 4.91145 10.9275 4.91145 11.322C4.91145 11.7166 5.23125 12.0363 5.62574 12.0363H6.95355L3.91457 15.0753C3.63559 15.3543 3.63559 15.8065 3.91457 16.0855C4.05406 16.2249 4.2368 16.2947 4.41961 16.2947C4.60242 16.2947 4.7852 16.225 4.92469 16.0855L7.96363 13.0465V14.3743C7.96363 14.7689 8.28344 15.0886 8.67789 15.0886C9.07234 15.0886 9.39219 14.7689 9.39219 14.3743V11.3221C9.39223 10.9275 9.07246 10.6078 8.67801 10.6078Z" fill="#2B50AA"/>
</g>
</g>
<defs>
<clipPath id="clip0_425_7344">
<rect width="20" height="20" fill="white"/>
</clipPath>
</defs>
</svg>
