<svg width="44" height="44" viewBox="0 0 44 44" fill="none" xmlns="http://www.w3.org/2000/svg">
<g clip-path="url(#clip0_676_10969)">
<mask id="mask0_676_10969" style="mask-type:luminance" maskUnits="userSpaceOnUse" x="0" y="0" width="44" height="44">
<path d="M44 0H0V44H44V0Z" fill="white"/>
</mask>
<g mask="url(#mask0_676_10969)">
<path d="M22 0C9.84978 0 0 9.84978 0 22C0 34.1502 9.84978 44 22 44C34.1502 44 44 34.1502 44 22C43.9862 9.85543 34.1446 0.0137405 22 0ZM22 42.5334C10.6598 42.5334 1.46666 33.3402 1.46666 22C1.46666 10.6598 10.6598 1.46666 22 1.46666C33.3402 1.46666 42.5334 10.6598 42.5334 22C42.5204 33.3349 33.3349 42.5204 22 42.5334Z" fill="#1C2B54"/>
<path d="M21.9993 2.93311C20.1878 2.93212 18.3852 3.18891 16.6461 3.69578C16.3883 3.76388 16.1879 3.96645 16.1225 4.22485C16.057 4.48327 16.137 4.7568 16.3313 4.9393C16.5256 5.12178 16.8036 5.18448 17.0574 5.10304C18.1904 4.77508 19.3534 4.56183 20.5291 4.46651L15.6707 11.2792C12.7191 13.0238 10.6144 15.9051 9.85018 19.2476L6.95209 12.8822C8.55681 10.2292 10.8335 8.04683 13.5521 6.55578C13.788 6.43326 13.939 6.1927 13.9471 5.92704C13.955 5.66137 13.8187 5.41217 13.5906 5.27571C13.3625 5.13924 13.0784 5.13688 12.8481 5.26951C4.41284 9.8797 0.72713 20.0471 4.24875 28.9918C7.77037 37.9363 17.3984 42.8619 26.7125 40.484C36.0266 38.106 42.1152 29.1678 40.918 19.6297C39.7208 10.0917 31.6123 2.93547 21.9993 2.93311ZM22.3705 4.40931C27.9983 4.52856 33.229 7.33462 36.4409 11.9576L28.1241 11.1508C25.1433 9.45686 21.5944 9.07145 18.3195 10.086L22.3705 4.40931ZM21.9993 10.9998C28.0745 10.9998 32.9993 15.9246 32.9993 21.9998C32.9993 28.0749 28.0745 32.9998 21.9993 32.9998C15.9242 32.9998 10.9993 28.0749 10.9993 21.9998C11.0062 15.9275 15.9271 11.0067 21.9993 10.9998ZM6.08162 14.5124L9.53782 22.1046C9.56743 25.546 11.0234 28.8208 13.5587 31.1482L6.57955 30.4734C3.85957 25.5419 3.67432 19.6039 6.08162 14.5124ZM7.55782 32.0392L15.8745 32.8458C18.8554 34.5398 22.4042 34.9252 25.6793 33.9106L21.6283 39.5902C16.0004 39.471 10.7697 36.6649 7.55782 32.042V32.0392ZM23.4711 39.5308L28.3302 32.7174C31.2818 30.9728 33.3864 28.0915 34.1507 24.749L37.0489 31.1152C34.1281 35.93 29.0818 39.0587 23.4705 39.5338L23.4711 39.5308ZM37.9179 29.49L34.4609 21.895C34.4313 18.4536 32.9752 15.1787 30.44 12.8514L37.4191 13.5262C40.1379 18.4599 40.3242 24.3986 37.9201 29.493L37.9179 29.49Z" fill="#1C2B54"/>
</g>
</g>
<defs>
<clipPath id="clip0_676_10969">
<rect width="44" height="44" fill="white"/>
</clipPath>
</defs>
</svg>
