<svg width="41" height="41" viewBox="0 0 41 41" fill="none" xmlns="http://www.w3.org/2000/svg">
<g clip-path="url(#clip0_540_10552)">
<path d="M33.8143 9.32256C30.9289 6.33787 27.1945 4.43998 23.1417 3.86264L24.2969 2.70748C24.7545 2.24982 24.7545 1.50787 24.2969 1.05021C23.8393 0.592637 23.0973 0.592637 22.6396 1.05021L19.6719 4.01787C19.2142 4.47545 19.2142 5.21748 19.6719 5.67514L22.6395 8.64279C22.8684 8.87162 23.1683 8.98607 23.4681 8.98607C23.768 8.98607 24.068 8.87162 24.2967 8.64279C24.7544 8.18521 24.7544 7.44318 24.2967 6.98553L23.633 6.32186C26.8528 6.95193 29.8059 8.54834 32.1291 10.9515C35.0591 13.9824 36.6728 17.974 36.6728 22.1908C36.673 31.1083 29.418 38.3632 20.5005 38.3632C11.5831 38.3632 4.32813 31.1083 4.32813 22.1908C4.32813 18.7881 5.37242 15.5331 7.3482 12.7778C9.28297 10.0796 11.9502 8.06623 15.0616 6.95545C15.6712 6.73779 15.9888 6.06732 15.7713 5.45772C15.5537 4.84818 14.883 4.53053 14.2735 4.74811C10.7108 6.02006 7.65742 8.32443 5.44344 11.412C3.18047 14.5679 1.98438 18.2952 1.98438 22.1909C1.98438 27.1368 3.91039 31.7865 7.40766 35.2838C10.9049 38.7808 15.5547 40.7069 20.5005 40.7069C25.4464 40.7069 30.0962 38.7809 33.5934 35.2837C37.0907 31.7865 39.0167 27.1367 39.0167 22.1908C39.0167 17.3629 37.1691 12.7928 33.8143 9.32256Z" fill="#1C2B54"/>
<path d="M7.16602 22.3739C7.16602 29.7259 13.1473 35.7072 20.4994 35.7072C27.8514 35.7072 33.8327 29.7259 33.8327 22.3739C33.8327 15.022 27.8514 9.04053 20.4994 9.04053C13.1472 9.04053 7.16602 15.0219 7.16602 22.3739ZM21.296 23.529C19.428 22.8686 18.3457 22.3482 17.5605 21.7323C16.5941 20.9743 16.1517 19.6653 16.4059 18.3161C16.6817 16.8524 17.7024 15.6872 19.0698 15.2753C19.0888 15.2696 19.1074 15.265 19.1262 15.2595V14.7369C19.1262 14.0202 19.7073 13.4392 20.424 13.4392C21.1406 13.4392 21.7217 14.0202 21.7217 14.7369V15.1769C22.6278 15.3891 23.2602 15.8032 23.5158 15.9943C24.0899 16.4235 24.2073 17.2367 23.7782 17.8108C23.349 18.3849 22.536 18.5022 21.9618 18.0732C21.687 17.8678 20.9286 17.4259 19.8184 17.7604C19.1626 17.958 18.9929 18.6035 18.9565 18.7966C18.8846 19.1782 18.9672 19.5373 19.1621 19.6901C19.841 20.2224 21.059 20.6924 22.1609 21.0819C24.1767 21.7945 25.2976 23.6619 24.9502 25.7286C24.7796 26.7434 24.2691 27.6849 23.5126 28.38C22.9924 28.8579 22.3862 29.1977 21.7217 29.3894V30.0108C21.7217 30.7275 21.1406 31.3085 20.424 31.3085C19.7073 31.3085 19.1262 30.7275 19.1262 30.0108V29.5171C18.2629 29.4156 17.5425 29.1497 16.5736 28.5159C15.9738 28.1236 15.8057 27.3192 16.198 26.7194C16.5904 26.1195 17.3948 25.9515 17.9945 26.3439C18.8928 26.9316 19.2325 26.9855 20.4153 26.9773C21.5799 26.9695 22.2556 26.1015 22.3906 25.2983C22.4567 24.9061 22.4821 23.9483 21.296 23.529Z" fill="#1C2B54"/>
</g>
<defs>
<clipPath id="clip0_540_10552">
<rect width="40" height="40" fill="white" transform="translate(0.5 0.707031)"/>
</clipPath>
</defs>
</svg>
