<svg width="32" height="32" viewBox="0 0 32 32" fill="none" xmlns="http://www.w3.org/2000/svg">
<g clip-path="url(#clip0_9753_7402)">
<path d="M25.3933 5.6355H23.5146C22.9954 5.6355 22.5752 6.05562 22.5752 6.57487C22.5752 7.09406 22.9953 7.51424 23.5146 7.51424H25.3933C25.9124 7.51424 26.3326 7.09412 26.3326 6.57487C26.3326 6.05562 25.9124 5.6355 25.3933 5.6355Z" fill="#1C2B54"/>
<path d="M15.901 2.39743L14.9616 0.518751C14.7278 0.0545643 14.1654 -0.131623 13.7012 0.0986267C13.237 0.330689 13.049 0.894875 13.2811 1.35906L14.2205 3.23775C14.4522 3.70006 15.0136 3.88999 15.4809 3.65787C15.945 3.42581 16.133 2.86162 15.901 2.39743Z" fill="#1C2B54"/>
<path d="M22.0561 0.0986155C21.5937 -0.131634 21.0277 0.0546156 20.7956 0.51874L19.8562 2.39742C19.6242 2.86161 19.8122 3.42573 20.2764 3.65786C20.7451 3.89061 21.3057 3.69848 21.5368 3.23773L22.4762 1.35905C22.7082 0.894864 22.5202 0.330678 22.0561 0.0986155Z" fill="#1C2B54"/>
<path d="M12.2429 5.6355H10.3642C9.84499 5.6355 9.4248 6.05562 9.4248 6.57487C9.4248 7.09406 9.84493 7.51424 10.3642 7.51424H12.2429C12.762 7.51424 13.1822 7.09412 13.1822 6.57487C13.1822 6.05562 12.762 5.6355 12.2429 5.6355Z" fill="#1C2B54"/>
<path d="M6.60696 15.0918H2.84953C2.33078 15.0918 1.91016 15.5124 1.91016 16.0312V31.0606C1.91016 31.5794 2.33072 32 2.84953 32H6.6069C7.12565 32 7.54627 31.5795 7.54627 31.0606V16.0311C7.54627 15.5124 7.12577 15.0918 6.60696 15.0918Z" fill="#1C2B54"/>
<path d="M30.0717 17.5817C29.906 16.1245 28.5448 15.0917 27.0783 15.0917H19.7548C20.3772 13.9773 20.7113 10.8252 20.6965 9.53761C20.6719 7.40624 18.9068 5.69824 16.7754 5.69824H16.0003C15.4811 5.69824 15.0609 6.11837 15.0609 6.63762C15.0609 8.8098 14.2151 12.7305 12.6199 14.3258C11.5462 15.3995 10.6284 15.7885 9.4248 16.39V30.4849C11.2675 31.0991 13.6071 32 17.1732 32H23.3179C25.3426 32 26.9195 30.1248 26.1349 28.1436C27.3302 27.8179 28.2117 26.7217 28.2117 25.4246C28.2117 25.0585 28.1411 24.7081 28.0136 24.3861C30.0279 23.8373 30.7693 21.3501 29.3713 19.7885C29.8849 19.2147 30.1681 18.4298 30.0717 17.5817Z" fill="#1C2B54"/>
</g>
<defs>
<clipPath id="clip0_9753_7402">
<rect width="32" height="32" fill="white"/>
</clipPath>
</defs>
</svg>
