<svg width="33" height="32" viewBox="0 0 33 32" fill="none" xmlns="http://www.w3.org/2000/svg">
<g clip-path="url(#clip0_676_10462)">
<mask id="mask0_676_10462" style="mask-type:luminance" maskUnits="userSpaceOnUse" x="0" y="0" width="33" height="32">
<path d="M32.333 0H0.333008V32H32.333V0Z" fill="white"/>
</mask>
<g mask="url(#mask0_676_10462)">
<path d="M21.333 1.9375H11.333C9.43757 1.9375 7.89551 3.47956 7.89551 5.375V26.625C7.89551 28.5204 9.43757 30.0625 11.333 30.0625H21.333C23.2284 30.0625 24.7705 28.5204 24.7705 26.625V5.375C24.7705 3.47956 23.2284 1.9375 21.333 1.9375ZM17.583 27.5625H15.083C14.5652 27.5625 14.1455 27.1427 14.1455 26.625C14.1455 26.1073 14.5652 25.6875 15.083 25.6875H17.583C18.1008 25.6875 18.5205 26.1073 18.5205 26.625C18.5205 27.1427 18.1008 27.5625 17.583 27.5625ZM17.583 6.31249H15.083C14.5652 6.31249 14.1455 5.89275 14.1455 5.375C14.1455 4.85724 14.5652 4.4375 15.083 4.4375H17.583C18.1008 4.4375 18.5205 4.85724 18.5205 5.375C18.5205 5.89275 18.1008 6.31249 17.583 6.31249Z" fill="url(#paint0_linear_676_10462)"/>
<path d="M30.9727 9.93205C30.728 9.47581 30.1597 9.30429 29.7035 9.54901C29.2472 9.79381 29.0756 10.362 29.3204 10.8183C30.0541 12.186 30.4581 14.0261 30.4581 15.9993C30.4581 17.9724 30.0538 19.8131 29.3196 21.182C29.0748 21.6382 29.2463 22.2065 29.7025 22.4513C30.1588 22.696 30.7271 22.5245 30.9719 22.0683C31.8497 20.4316 32.3332 18.2763 32.3332 15.9993C32.3332 13.7223 31.85 11.5676 30.9727 9.93205Z" fill="#1C2B54"/>
<path d="M26.5369 11.4475C26.0937 11.715 25.9512 12.2912 26.2187 12.7345C26.7358 13.5916 27.0207 14.7511 27.0207 15.9996C27.0207 17.2481 26.7356 18.408 26.218 19.2658C25.9505 19.7091 26.0929 20.2852 26.5363 20.5528C26.9796 20.8204 27.5558 20.6778 27.8233 20.2345C28.5149 19.0886 28.8957 17.5846 28.8957 15.9996C28.8957 14.4146 28.5151 12.911 27.8241 11.7658C27.5565 11.3224 26.9803 11.18 26.5369 11.4475Z" fill="#1C2B54"/>
<path d="M3.34663 21.1821C2.61239 19.8132 2.20801 17.9726 2.20801 15.9993C2.20801 14.0261 2.61207 12.1862 3.34576 10.8184C3.59051 10.3621 3.41901 9.79381 2.96276 9.54901C2.50651 9.30429 1.93819 9.47581 1.69345 9.93205C0.816133 11.5676 0.333008 13.7224 0.333008 15.9993C0.333008 18.2764 0.816446 20.4317 1.69439 22.0684C1.93914 22.5246 2.50739 22.6961 2.96363 22.4513C3.41988 22.2067 3.59139 21.6384 3.34663 21.1821Z" fill="#1C2B54"/>
<path d="M5.6455 15.9996C5.6455 14.7511 5.93032 13.5916 6.4475 12.7345C6.71501 12.2912 6.5725 11.715 6.12919 11.4475C5.68588 11.18 5.10963 11.3224 4.84213 11.7658C4.15107 12.911 3.77051 14.4145 3.77051 15.9996C3.77051 17.5847 4.15132 19.0886 4.84282 20.2345C5.11032 20.6778 5.68657 20.8204 6.12988 20.5528C6.57319 20.2853 6.71569 19.7091 6.44819 19.2658C5.93057 18.408 5.6455 17.248 5.6455 15.9996Z" fill="#1C2B54"/>
</g>
</g>
<defs>
<linearGradient id="paint0_linear_676_10462" x1="16.333" y1="1.93749" x2="16.333" y2="30.0625" gradientUnits="userSpaceOnUse">
<stop stop-color="#1C2B54"/>
<stop offset="1" stop-color="#1C2B54"/>
</linearGradient>
<clipPath id="clip0_676_10462">
<rect width="32" height="32" fill="white" transform="translate(0.333008)"/>
</clipPath>
</defs>
</svg>
