<svg width="72" height="72" viewBox="0 0 72 72" fill="none" xmlns="http://www.w3.org/2000/svg">
<rect x="0.5" y="0.5" width="71" height="71" rx="23.5" fill="#2B50AA"/>
<rect x="0.5" y="0.5" width="71" height="71" rx="23.5" stroke="#E0E0E0"/>
<g clip-path="url(#clip0_204_4021)">
<mask id="mask0_204_4021" style="mask-type:luminance" maskUnits="userSpaceOnUse" x="16" y="16" width="40" height="40">
<path d="M56 16H16V56H56V16Z" fill="white"/>
</mask>
<g mask="url(#mask0_204_4021)">
<path d="M55.3567 39.7772C54.9421 39.3603 54.3837 39.1207 53.7993 39.1207L53.8133 39.1236H42.8771C41.6712 39.1236 40.693 40.1242 40.693 41.3294V43.1821C40.693 43.7642 40.9193 44.3128 41.3337 44.7268C41.7473 45.1408 42.2959 45.3691 42.8777 45.3691L46.0556 45.3694C43.4481 48.162 39.8198 49.7506 35.998 49.7506C28.4163 49.7506 22.2475 43.5818 22.2475 36C22.2475 28.4182 28.4159 22.2494 35.9977 22.2494C41.6745 22.2494 46.8423 25.8133 48.8572 31.1181C49.3154 32.3229 50.4894 33.133 51.7779 33.133C52.1567 33.133 52.5298 33.0637 52.8865 32.9281C54.4969 32.3168 55.3089 30.5086 54.6969 28.8982C51.7668 21.1847 44.2524 16.002 35.998 16.002C24.9711 16.002 16 24.973 16 36C16 47.027 24.9581 55.9981 35.985 55.9981C41.0751 55.9981 46.0039 53.9948 49.7522 50.4777V52.2498C49.7522 53.4556 50.7597 54.4306 51.9652 54.4306H53.8182C55.0237 54.4306 56 53.4556 56 52.2498V41.3372C56 40.7535 55.7727 40.1909 55.3567 39.7772Z" fill="white"/>
<path d="M45.3544 30.585L44.4545 29.6849C44.222 29.4523 43.9117 29.3242 43.581 29.3242C43.2503 29.3242 42.94 29.4527 42.7082 29.6849L33.9859 38.4071L28.7183 33.1395C28.4857 32.907 28.1755 32.7789 27.8454 32.7789C27.5147 32.7789 27.2048 32.9073 26.9722 33.1395L26.0714 34.0393C25.5908 34.5206 25.5908 35.3044 26.0714 35.7857L33.1131 42.8267C33.3452 43.0589 33.6552 43.187 33.9859 43.187C34.3166 43.187 34.6265 43.0585 34.8649 42.8202L45.3544 32.3307C45.836 31.8494 45.836 31.0663 45.3544 30.585Z" fill="white"/>
</g>
</g>
<defs>
<clipPath id="clip0_204_4021">
<rect width="40" height="40" fill="white" transform="translate(16 16)"/>
</clipPath>
</defs>
</svg>
