<svg width="57" height="56" viewBox="0 0 57 56" fill="none" xmlns="http://www.w3.org/2000/svg">
<rect x="0.333496" width="56" height="56" rx="10" fill="white"/>
<g clip-path="url(#clip0_204_4096)">
<path d="M29.728 22.8259L33.681 26.4049L35.1247 24.8099C36.7372 25.2063 38.5227 24.788 39.8036 23.5071C40.7144 22.5963 41.6861 20.9023 42.2215 19.2919C42.9443 17.1178 42.8133 15.4557 41.8428 14.4853C40.8724 13.5147 39.2102 13.3837 37.0361 14.1065C35.4257 14.6419 33.7318 15.6136 32.821 16.5244C31.5657 17.7796 31.1128 19.5557 31.5184 21.2045L29.728 22.8259Z" fill="#2B50AA"/>
<path d="M22.8506 29.0537L13.5998 37.4315C12.8284 38.1143 12.3676 39.0961 12.3354 40.126C12.2692 42.2405 13.9681 43.9997 16.0912 43.9997C17.1345 43.9997 18.1743 43.5551 18.9016 42.7336L27.0676 33.7115L22.8506 29.0537Z" fill="#2B50AA"/>
<path d="M44.3316 40.1262C44.2993 39.0963 43.8387 38.1145 43.0672 37.4317C42.1243 36.578 25.6509 21.6628 25.2098 21.2635C25.6448 19.6885 25.2457 17.9295 24.0102 16.694C23.5913 16.2751 20.028 12.7118 19.5908 12.2746C19.2247 11.9085 18.6312 11.9085 18.265 12.2746C17.8989 12.6407 17.8989 13.2343 18.265 13.6004L20.7841 16.1195L19.2815 17.6222L16.7623 15.103C16.3963 14.7368 15.8027 14.7369 15.4365 15.103C15.0704 15.469 15.0704 16.0627 15.4365 16.4288L17.9556 18.9478L16.453 20.4505L13.9339 17.9314C13.5678 17.5653 12.9742 17.5653 12.6081 17.9314C12.242 18.2975 12.242 18.8911 12.6081 19.2572C16.7248 23.3739 12.789 19.438 17.0275 23.6767C18.2319 24.8811 19.9743 25.3244 21.5969 24.8763C47.861 53.8843 28.345 32.3293 37.7652 42.7335C38.448 43.505 39.4298 43.9658 40.4598 43.998C42.6227 44.0663 44.3993 42.2897 44.3316 40.1262Z" fill="#2B50AA"/>
</g>
<defs>
<clipPath id="clip0_204_4096">
<rect width="32" height="32" fill="white" transform="translate(12.3335 12)"/>
</clipPath>
</defs>
</svg>
