<svg width="44" height="44" viewBox="0 0 44 44" fill="none" xmlns="http://www.w3.org/2000/svg">
<g clip-path="url(#clip0_676_10763)">
<mask id="mask0_676_10763" style="mask-type:luminance" maskUnits="userSpaceOnUse" x="0" y="0" width="44" height="44">
<path d="M44 0H0V44H44V0Z" fill="white"/>
</mask>
<g mask="url(#mask0_676_10763)">
<path d="M10.7953 41.4602H14.6096C16.8207 41.4602 16.8241 38.0151 14.6096 38.0151H10.7953C8.58418 38.0151 8.58092 41.4602 10.7953 41.4602ZM10.7953 39.3042H14.6096C15.17 39.3042 15.17 40.1711 14.6096 40.1711H10.7953C10.2351 40.1711 10.2351 39.3042 10.7953 39.3042Z" fill="#1C2B54"/>
<path d="M15.5286 22.1539L11.3298 26.3528L9.87556 24.8986C9.28617 24.3095 8.3748 25.2207 8.96408 25.8101L10.8741 27.72C11.1779 27.9717 11.4818 27.9717 11.7855 27.72L16.4402 23.0654C17.0294 22.4761 16.118 21.5649 15.5286 22.1539Z" fill="#1C2B54"/>
<path d="M43.5207 28.5137C43.2604 28.017 43.0719 27.4728 42.9438 26.9268C42.3153 24.2976 41.3604 21.7503 40.1059 19.3558L38.0084 15.3523C36.8211 13.0858 33.317 13.4627 32.6555 15.9486C31.0864 15.384 29.315 16.3119 28.8859 17.9234C27.5887 17.4566 26.0908 18.0064 25.4029 19.1995V5.0465V2.51823C25.4028 1.12974 24.2732 0 22.8846 0H7.86955C7.03622 0 7.03622 1.28907 7.86955 1.28907H22.8846C23.5624 1.28907 24.1138 1.84043 24.1138 2.51823V4.40198H1.28907V2.51823C1.28907 1.84043 1.84043 1.28907 2.51823 1.28907H4.26026C5.0936 1.28907 5.0936 0 4.26026 0H2.51823C1.12974 0 0 1.12974 0 2.51823V5.0465V36.1117V41.4818C0 42.8703 1.12974 44 2.51823 44H22.8846C24.2732 44 25.4028 42.8703 25.4028 41.4818V36.1117V33.53L27.706 34.6691C28.2753 34.9507 28.743 35.4194 29.0234 35.9891C30.0465 38.0684 32.6689 38.9304 34.7289 37.8512L38.569 35.8393C39.3072 35.4526 38.709 34.3109 37.9708 34.6975L34.1307 36.7093C32.7042 37.457 30.891 36.8648 30.18 35.42C29.7751 34.5973 29.0996 33.9203 28.2776 33.5137L18.5036 28.6791C16.668 27.7875 17.9955 24.9077 19.8598 25.7772L23.4087 27.6454C23.9562 27.9337 24.5669 27.3242 24.2799 26.7761L18.1148 15.0085C17.1024 13.1053 19.8135 11.3486 20.8476 13.3227L25.2053 21.6404L26.3436 23.8131C26.7193 24.5306 27.871 23.9512 27.4854 23.2149L26.3772 21.0997C25.9284 19.6043 27.7746 18.3986 28.9629 19.4411L30.1961 21.7948C30.5718 22.5123 31.7236 21.9329 31.3379 21.1966L30.084 18.8034C29.9668 17.4285 31.6504 16.5436 32.7148 17.4506L33.9559 19.8197C34.3316 20.5372 35.4834 19.9578 35.0977 19.2215L33.8564 16.852C33.6875 15.1646 36.0624 14.4155 36.8665 15.9504L38.9639 19.9539C40.1689 22.2541 41.0861 24.7008 41.69 27.2261C41.8365 27.8812 42.0671 28.517 42.3787 29.1117C43.1213 30.5292 42.5722 32.2865 41.1548 33.0292C40.4168 33.4161 41.0151 34.5579 41.753 34.1711C43.8002 33.0986 44.5931 30.5608 43.5207 28.5137ZM24.1138 41.4818C24.1138 42.1596 23.5624 42.7109 22.8846 42.7109H2.51823C1.84043 42.7109 1.28907 42.1596 1.28907 41.4818V36.7562H24.1138V41.4818ZM16.5723 25.9872C16.1349 26.9069 16.2198 28.0084 16.7899 28.8519C15.7241 29.9673 14.2617 30.5993 12.7014 30.5993C9.57909 30.5993 7.03897 28.0592 7.03897 24.9369C7.03897 21.8146 9.57909 19.2745 12.7014 19.2745C15.6639 19.2745 18.1007 21.5618 18.3425 24.4629C17.5791 24.6959 16.9155 25.2657 16.5723 25.9872ZM21.2522 11.8219C20.9712 11.5937 20.6469 11.4183 20.291 11.307C18.2264 10.662 16.1471 12.5551 16.6016 14.6693H4.36545C4.24695 14.6693 4.15061 14.573 4.15061 14.4545V9.84844C4.15061 9.72993 4.24695 9.63361 4.36545 9.63361H21.0374C21.1559 9.63361 21.2522 9.72993 21.2522 9.84844V11.8219ZM24.1138 16.7795L22.5412 13.7779V9.84844C22.5412 9.01923 21.8666 8.34453 21.0374 8.34453H4.36545C3.53624 8.34453 2.86155 9.01923 2.86155 9.84844V14.4546C2.86155 15.2838 3.53624 15.9585 4.36545 15.9585H17.157L22.1772 25.5407L20.4478 24.6301C20.4401 24.626 20.4323 24.6221 20.4244 24.6184C20.1684 24.4966 19.9004 24.4145 19.6279 24.3716C19.3391 20.8022 16.3439 17.9854 12.7015 17.9854C8.86841 17.9854 5.75 21.1038 5.75 24.9369C5.75 28.77 8.86841 31.8884 12.7015 31.8884C14.6239 31.8884 16.4265 31.1089 17.736 29.7305C19.7809 30.9089 21.9981 31.8459 24.1138 32.8923V35.467H1.28907V5.69104H24.1138V16.7795Z" fill="#1C2B54"/>
</g>
</g>
<defs>
<clipPath id="clip0_676_10763">
<rect width="44" height="44" fill="white"/>
</clipPath>
</defs>
</svg>
