<svg width="26" height="25" viewBox="0 0 26 25" fill="none" xmlns="http://www.w3.org/2000/svg">
<g clip-path="url(#clip0_540_9407)">
<path d="M20.3383 4.40283H18.8706C18.465 4.40283 18.1367 4.73105 18.1367 5.13672C18.1367 5.54233 18.4649 5.8706 18.8706 5.8706H20.3383C20.7439 5.8706 21.0722 5.54238 21.0722 5.13672C21.0722 4.73105 20.7439 4.40283 20.3383 4.40283Z" fill="#1C2B54"/>
<path d="M12.9223 1.873L12.1885 0.405274C12.0058 0.0426284 11.5664 -0.10283 11.2038 0.0770521C10.8411 0.258351 10.6942 0.699121 10.8755 1.06177L11.6094 2.52949C11.7905 2.89067 12.2291 3.03906 12.5941 2.85771C12.9567 2.67641 13.1036 2.23564 12.9223 1.873Z" fill="#1C2B54"/>
<path d="M17.7318 0.0770434C17.3706 -0.102839 16.9284 0.0426684 16.7471 0.405265L16.0132 1.87299C15.8319 2.23563 15.9788 2.67635 16.3414 2.8577C16.7076 3.03954 17.1456 2.88944 17.3261 2.52948L18.06 1.06176C18.2413 0.699113 18.0944 0.258342 17.7318 0.0770434Z" fill="#1C2B54"/>
<path d="M10.0649 4.40283H8.59717C8.19155 4.40283 7.86328 4.73105 7.86328 5.13672C7.86328 5.54233 8.1915 5.8706 8.59717 5.8706H10.0649C10.4705 5.8706 10.7988 5.54238 10.7988 5.13672C10.7988 4.73105 10.4705 4.40283 10.0649 4.40283Z" fill="#1C2B54"/>
<path d="M5.66157 11.7905H2.72607C2.3208 11.7905 1.99219 12.1191 1.99219 12.5244V24.2662C1.99219 24.6715 2.32075 25.0001 2.72607 25.0001H5.66152C6.06679 25.0001 6.3954 24.6715 6.3954 24.2662V12.5244C6.3954 12.1191 6.06689 11.7905 5.66157 11.7905Z" fill="#1C2B54"/>
<path d="M23.9937 13.7356C23.8642 12.5972 22.8008 11.7903 21.6551 11.7903H15.9336C16.4199 10.9197 16.6808 8.45712 16.6693 7.45117C16.6501 5.78603 15.2711 4.45166 13.6059 4.45166H13.0004C12.5948 4.45166 12.2665 4.77988 12.2665 5.18555C12.2665 6.88256 11.6057 9.94564 10.3595 11.1919C9.52065 12.0307 8.80356 12.3347 7.86328 12.8046V23.8162C9.30288 24.2961 11.1307 24.9999 13.9167 24.9999H18.7173C20.299 24.9999 21.531 23.5349 20.918 21.9871C21.8519 21.7327 22.5405 20.8762 22.5405 19.8629C22.5405 19.5769 22.4854 19.3031 22.3858 19.0516C23.9594 18.6228 24.5387 16.6797 23.4465 15.4596C23.8477 15.0114 24.069 14.3982 23.9937 13.7356Z" fill="#1C2B54"/>
</g>
<defs>
<clipPath id="clip0_540_9407">
<rect width="25" height="25" fill="white" transform="translate(0.5)"/>
</clipPath>
</defs>
</svg>
