<svg width="46" height="46" viewBox="0 0 46 46" fill="none" xmlns="http://www.w3.org/2000/svg">
<path d="M11.504 45.8763H27.7412C30.3542 45.8763 32.4797 43.7508 32.4797 41.1378V15.8683C32.4797 15.4786 32.1644 15.1632 31.7746 15.1632C31.3849 15.1632 31.0695 15.4786 31.0695 15.8683V41.1378C31.0695 42.9727 29.5761 44.4662 27.7411 44.4662H11.504C9.66902 44.4662 8.17554 42.9727 8.17554 41.1378V10.8695C8.17554 9.03452 9.66902 7.54177 11.504 7.54177H25.7389C26.1287 7.54177 26.444 7.22642 26.444 6.83668C26.444 6.44693 26.1287 6.13158 25.7389 6.13158H24.5416V3.91181C24.5416 2.17118 23.1253 0.754883 21.3846 0.754883H17.8614C16.1208 0.754883 14.7045 2.17118 14.7045 3.91181V6.13167H11.5042C8.89115 6.13167 6.76563 8.25719 6.76563 10.8695V41.1378C6.76545 43.7508 8.89097 45.8763 11.504 45.8763ZM16.1144 3.91181C16.1144 2.94851 16.8979 2.16498 17.8612 2.16498H21.3845C22.3478 2.16498 23.1313 2.94851 23.1313 3.91181V6.12889H16.1144V3.91181Z" fill="#1C2B54"/>
<path d="M41.5976 7.37057C41.5976 3.57602 38.5108 0.489258 34.7163 0.489258C30.9217 0.489258 27.835 3.57602 27.835 7.37057C27.835 11.1651 30.9217 14.2519 34.7163 14.2519C38.5108 14.2519 41.5976 11.1651 41.5976 7.37057ZM34.7163 12.8417C31.6998 12.8417 29.2451 10.3871 29.2451 7.37057C29.2451 4.35407 31.6998 1.89945 34.7163 1.89945C37.7328 1.89945 40.1874 4.35407 40.1874 7.37057C40.1874 10.3871 37.7328 12.8417 34.7163 12.8417Z" fill="#1C2B54"/>
<path d="M36.5497 5.25046L33.8045 7.99501L32.8833 7.07375C32.6079 6.79838 32.1617 6.79838 31.8863 7.07375C31.6108 7.34921 31.6108 7.79538 31.8863 8.07075L33.3061 9.49055C33.4438 9.62828 33.6242 9.6971 33.8046 9.6971C33.985 9.6971 34.1654 9.62828 34.3032 9.49055L37.5469 6.24755C37.8224 5.97218 37.8224 5.52592 37.5469 5.25055C37.2713 4.97509 36.8252 4.97509 36.5497 5.25046Z" fill="#1C2B54"/>
<rect x="11.3807" y="10.9764" width="16.217" height="29.9191" rx="1.3" stroke="#1C2B54" stroke-width="1.4"/>
</svg>
