<svg width="57" height="56" viewBox="0 0 57 56" fill="none" xmlns="http://www.w3.org/2000/svg">
<rect x="0.666992" width="56" height="56" rx="10" fill="white"/>
<g clip-path="url(#clip0_204_4110)">
<path d="M38.0038 30.633C37.8653 30.633 37.7227 30.653 37.5801 30.6923L37.0434 30.8402L36.2527 28.9142C35.8094 27.8345 34.4992 26.9561 33.3319 26.9561H24.6537C23.4865 26.9561 22.1762 27.8346 21.733 28.9143L20.9437 30.8368L20.4199 30.6924C20.2772 30.6531 20.1346 30.6332 19.9961 30.6332C19.2999 30.6332 18.7944 31.1327 18.7944 31.8208C18.7944 32.5001 19.2902 33.0721 19.9623 33.2439C19.5938 34.2615 19.3074 35.7869 19.3074 36.7891V40.8875C19.3074 41.7625 20.0191 42.4742 20.8941 42.4742H21.4758C22.3508 42.4742 23.0626 41.7625 23.0626 40.8875V40.1208H34.9229V40.8875C34.9229 41.7625 35.6346 42.4742 36.5096 42.4742H37.0916C37.9666 42.4742 38.6783 41.7625 38.6783 40.8875V36.7891C38.6783 35.7879 38.3925 34.2646 38.0246 33.2469C38.7032 33.0794 39.2055 32.5043 39.2055 31.8208C39.2054 31.1325 38.7 30.633 38.0038 30.633ZM21.9302 32.2323L23.22 29.0901C23.4851 28.4443 24.2733 27.9158 24.9714 27.9158H33.0145C33.7127 27.9158 34.5008 28.4443 34.766 29.0901L36.0558 32.2323C36.321 32.8782 35.9667 33.4066 35.2685 33.4066H22.7174C22.0193 33.4066 21.665 32.8782 21.9302 32.2323ZM25.3498 37.3416C25.3498 37.6907 25.0642 37.9763 24.7151 37.9763H22.0827C21.7337 37.9763 21.448 37.6907 21.448 37.3416V36.2917C21.448 35.9427 21.7337 35.6571 22.0827 35.6571H24.7151C25.0642 35.6571 25.3498 35.9427 25.3498 36.2917V37.3416ZM36.509 37.3416C36.509 37.6907 36.2234 37.9763 35.8743 37.9763H33.2421C32.893 37.9763 32.6074 37.6907 32.6074 37.3416V36.2917C32.6074 35.9427 32.893 35.6571 33.2421 35.6571H35.8743C36.2234 35.6571 36.509 35.9427 36.509 36.2917V37.3416Z" fill="#2B50AA"/>
<path d="M44.2956 21.0813L29.7081 12.5304C29.5145 12.4169 29.263 12.3545 29 12.3545C28.737 12.3545 28.4855 12.4169 28.2919 12.5304L13.7044 21.0813C13.3029 21.3166 13 21.8452 13 22.3107V42.6944C13 43.2193 13.427 43.6464 13.952 43.6464H15.591C16.116 43.6464 16.5431 43.2193 16.5431 42.6944V25.4452C16.5431 25.2703 16.6854 25.1279 16.8604 25.1279H41.1393C41.3144 25.1279 41.4567 25.2703 41.4567 25.4452V42.6944C41.4567 43.2193 41.8837 43.6464 42.4087 43.6464H44.0478C44.5729 43.6464 44.9999 43.2193 44.9999 42.6944V22.3107C45 21.8452 44.6971 21.3166 44.2956 21.0813Z" fill="#2B50AA"/>
</g>
<defs>
<clipPath id="clip0_204_4110">
<rect width="32" height="32" fill="white" transform="translate(13 12)"/>
</clipPath>
</defs>
</svg>
