<svg width="44" height="44" viewBox="0 0 44 44" fill="none" xmlns="http://www.w3.org/2000/svg">
<g clip-path="url(#clip0_676_10743)">
<mask id="mask0_676_10743" style="mask-type:luminance" maskUnits="userSpaceOnUse" x="0" y="0" width="44" height="44">
<path d="M44 0H0V44H44V0Z" fill="white"/>
</mask>
<g mask="url(#mask0_676_10743)">
<path d="M36.1797 0H12.9766C11.1995 0 9.75394 1.44564 9.75394 3.22266V13.2682L4.78638 18.2357C4.66555 18.3566 4.59766 18.5205 4.59766 18.6915V23.8477C4.59766 24.2038 4.88615 24.4923 5.24219 24.4923H7.17578V28.7371L4.78638 31.1264C4.66555 31.2473 4.59766 31.4112 4.59766 31.5822V40.7775C4.59766 42.5545 6.0433 44.0002 7.82031 44.0002H36.1797C37.9567 44.0002 39.4024 42.5545 39.4024 40.7775V3.22283C39.4024 1.44564 37.9567 0 36.1797 0ZM36.1797 42.7109H7.82031C6.75417 42.7109 5.88672 41.8435 5.88672 40.7774V37.5547H33.6016C33.9576 37.5547 34.2461 37.2662 34.2461 36.9102C34.2461 36.5541 33.9576 36.2657 33.6016 36.2657H5.88672V31.8489L8.27612 29.4596C8.39695 29.3387 8.46485 29.1749 8.46485 29.0038V23.8476C8.46485 23.4915 8.17635 23.203 7.82031 23.203H5.88672V18.9583L10.8542 13.9908C10.975 13.8699 11.0429 13.706 11.0429 13.535V3.22248C11.0429 2.15634 11.9104 1.28889 12.9766 1.28889H36.1797C37.2458 1.28889 38.1133 2.15634 38.1133 3.22248V36.2657H36.1797C35.8237 36.2657 35.5352 36.5541 35.5352 36.9102C35.5352 37.2662 35.8237 37.5547 36.1797 37.5547H38.1133V40.7774C38.1133 41.8435 37.2458 42.7109 36.1797 42.7109Z" fill="#1C2B54"/>
<path d="M16.8438 2.57812H12.9765C12.6205 2.57812 12.332 2.86662 12.332 3.22266V13.5352C12.332 13.8912 12.6205 14.1797 12.9765 14.1797H16.8438C17.1998 14.1797 17.4883 13.8912 17.4883 13.5352V3.22266C17.4883 2.86662 17.1998 2.57812 16.8438 2.57812ZM16.1992 12.8907H13.621V3.86719H16.1992V12.8907Z" fill="#1C2B54"/>
<path d="M23.2891 2.57812H19.4218C19.0658 2.57812 18.7773 2.86662 18.7773 3.22266V13.5352C18.7773 13.8912 19.0658 14.1797 19.4218 14.1797H23.2891C23.6451 14.1797 23.9336 13.8912 23.9336 13.5352V3.22266C23.9336 2.86662 23.6451 2.57812 23.2891 2.57812ZM22.6445 12.8907H20.0664V3.86719H22.6445V12.8907Z" fill="#1C2B54"/>
<path d="M29.7344 2.57812H25.8673C25.5111 2.57812 25.2227 2.86662 25.2227 3.22266V13.5352C25.2227 13.8912 25.5111 14.1797 25.8673 14.1797H29.7344C30.0905 14.1797 30.379 13.8912 30.379 13.5352V3.22266C30.379 2.86662 30.0905 2.57812 29.7344 2.57812ZM29.0899 12.8907H26.5118V3.86719H29.0899V12.8907Z" fill="#1C2B54"/>
<path d="M36.8242 13.5352V3.22266C36.8242 2.86662 36.5357 2.57812 36.1797 2.57812H32.3125C31.9565 2.57812 31.668 2.86662 31.668 3.22266V13.5352C31.668 13.8912 31.9565 14.1797 32.3125 14.1797H36.1797C36.5357 14.1797 36.8242 13.8912 36.8242 13.5352ZM35.5352 12.8907H32.9571V3.86719H35.5352V12.8907Z" fill="#1C2B54"/>
</g>
</g>
<defs>
<clipPath id="clip0_676_10743">
<rect width="44" height="44" fill="white"/>
</clipPath>
</defs>
</svg>
