<svg width="44" height="44" viewBox="0 0 44 44" fill="none" xmlns="http://www.w3.org/2000/svg">
<g clip-path="url(#clip0_676_12027)">
<mask id="mask0_676_12027" style="mask-type:luminance" maskUnits="userSpaceOnUse" x="0" y="0" width="44" height="44">
<path d="M44 0H0V44H44V0Z" fill="white"/>
</mask>
<g mask="url(#mask0_676_12027)">
<path d="M43.5723 17.6635C43.4793 17.1983 43.0268 16.8965 42.5612 16.9895C42.0959 17.0825 41.7938 17.5354 41.8871 18.0009C42.1486 19.3085 42.2812 20.6543 42.2812 22C42.2812 33.1834 33.1832 42.2813 22 42.2813C17.5648 42.2813 13.2337 40.815 9.71899 38.1395C10.1967 37.0663 9.99657 35.7618 9.11742 34.8827C7.97807 33.7433 6.12437 33.7433 4.98537 34.8827C3.84602 36.022 3.84602 37.8757 4.98537 39.0147C5.5547 39.5843 6.30296 39.8694 7.05122 39.8694C7.58397 39.8694 8.11638 39.724 8.58467 39.4353C12.4143 42.383 17.1495 44 22 44C27.8763 44 33.4011 41.7116 37.5564 37.5564C41.7116 33.4012 44 27.8764 44 22C44 20.5411 43.856 19.0823 43.5723 17.6635ZM6.20057 37.7995C5.73127 37.3305 5.73127 36.5672 6.20057 36.0982C6.43522 35.8636 6.74305 35.746 7.05122 35.746C7.35939 35.746 7.66756 35.8636 7.90187 36.0982C8.35807 36.5541 8.36949 37.2875 7.93845 37.7592C7.93007 37.7686 7.92134 37.777 7.91328 37.7867L7.91227 37.7881C7.90858 37.7917 7.90556 37.7957 7.90187 37.7995C7.4329 38.2687 6.66953 38.2687 6.20057 37.7995Z" fill="#1C2B54"/>
<path d="M2.1142 26.0055C1.85168 24.696 1.71875 23.3481 1.71875 22C1.71875 10.8167 10.8167 1.71875 22 1.71875C26.4352 1.71875 30.7663 3.18506 34.281 5.86053C33.8033 6.93375 34.0034 8.23825 34.8825 9.11743C35.4522 9.68708 36.2005 9.97174 36.9488 9.97174C37.697 9.97174 38.4453 9.68708 39.0146 9.11743C40.1539 7.97809 40.1539 6.12439 39.0146 4.98538C38.0397 4.01019 36.5415 3.87055 35.4153 4.56476C31.5857 1.6167 26.8504 0 22 0C16.1237 0 10.5988 2.28842 6.44364 6.44364C2.28842 10.5988 0 16.1237 0 22C0 23.4613 0.144348 24.9226 0.428681 26.3432C0.510589 26.7514 0.869446 27.0337 1.2706 27.0337C1.32632 27.0337 1.38339 27.0283 1.44012 27.017C1.90574 26.9236 2.20752 26.4708 2.1142 26.0055ZM37.7994 6.20059C38.2687 6.66956 38.2687 7.43292 37.7994 7.90188C37.3305 8.37118 36.5671 8.37118 36.0981 7.90188C35.6415 7.44568 35.6305 6.71219 36.0618 6.24054C36.07 6.23147 36.0787 6.22275 36.0867 6.21335L36.0877 6.21201C36.0914 6.20831 36.0944 6.20429 36.0981 6.20059C36.3324 5.96594 36.6406 5.84879 36.9488 5.84879C37.2566 5.84879 37.5647 5.96594 37.7994 6.20059Z" fill="#1C2B54"/>
<path d="M3.17259 29.5546C2.99468 29.1148 2.49381 28.9026 2.05373 29.0805C1.61363 29.2588 1.40148 29.76 1.57972 30.1997L1.59416 30.2357C1.72945 30.57 2.05104 30.7724 2.39076 30.7724C2.49819 30.7724 2.60762 30.7523 2.71303 30.7097C3.15312 30.5314 3.36528 30.0305 3.18736 29.5904L3.17259 29.5546Z" fill="#1C2B54"/>
<path d="M22 13.9219C17.5457 13.9219 13.9219 17.5457 13.9219 22C13.9219 26.4543 17.5457 30.0781 22 30.0781C26.4543 30.0781 30.0781 26.4543 30.0781 22C30.0781 17.5457 26.4543 13.9219 22 13.9219ZM22 28.3593C18.4934 28.3593 15.6406 25.5066 15.6406 22C15.6406 18.4934 18.4934 15.6406 22 15.6406C25.5066 15.6406 28.3593 18.4934 28.3593 22C28.3593 25.5066 25.5066 28.3593 22 28.3593Z" fill="#1C2B54"/>
<path d="M37.0263 25.5827C37.5009 25.5827 37.8856 25.198 37.8856 24.7234V19.2613C37.8856 18.7866 37.5009 18.4019 37.0263 18.4019H35.328C35.0182 17.2471 34.5609 16.1437 33.9627 15.1071L35.1581 13.9117C35.3193 13.7506 35.4099 13.532 35.4099 13.3038C35.4099 13.0758 35.3193 12.8573 35.1578 12.6962L31.2942 8.83533C30.9586 8.49997 30.4148 8.49997 30.0791 8.83567L28.885 10.0297C27.8484 9.43152 26.7449 8.97397 25.5902 8.66413V6.97559C25.5902 6.50091 25.2055 6.11621 24.7308 6.11621H19.269C18.7944 6.11621 18.4097 6.50091 18.4097 6.97559V8.66446C17.2549 8.97431 16.1514 9.43152 15.1149 10.0297L13.9205 8.83567C13.5851 8.49997 13.0413 8.49997 12.7056 8.83533L8.8421 12.6962C8.68063 12.8573 8.58999 13.0758 8.58999 13.3041C8.58999 13.532 8.68063 13.7506 8.84176 13.9117L10.0372 15.1071C9.43896 16.1441 8.98141 17.2475 8.67157 18.4022H6.97665C6.50232 18.4022 6.11762 18.7866 6.11728 19.261L6.11426 24.723C6.11426 24.9509 6.20455 25.1698 6.36569 25.331C6.52682 25.4921 6.7457 25.5827 6.97364 25.5827H8.6719C8.98141 26.7375 9.43896 27.8413 10.0372 28.8779L8.83539 30.0797C8.49969 30.4151 8.49969 30.9592 8.83506 31.2949L12.6958 35.1584C12.857 35.3195 13.0756 35.4101 13.3038 35.4105C13.5317 35.4105 13.7503 35.3198 13.9114 35.1588L15.1149 33.9553C16.1514 34.5539 17.2549 35.011 18.4097 35.3209V37.0252C18.4097 37.4998 18.7944 37.8846 19.269 37.8846H24.7312C25.2058 37.8846 25.5905 37.4998 25.5905 37.0252V35.3209C26.7453 35.011 27.8487 34.5539 28.8853 33.9553L30.0884 35.1588C30.2496 35.3198 30.4685 35.4105 30.6964 35.4105C30.9243 35.4105 31.1432 35.3195 31.3044 35.1584L35.1648 31.2949C35.5005 30.9592 35.5002 30.4154 35.1648 30.0797L33.963 28.8779C34.5612 27.8413 35.0185 26.7375 35.3283 25.5827H37.0263ZM33.8116 24.5428C33.5051 25.9685 32.9479 27.3136 32.155 28.5405C31.9351 28.8809 31.9828 29.3284 32.2691 29.6148L33.3417 30.6873L30.6961 33.3352L29.6222 32.2617C29.3359 31.975 28.8884 31.9277 28.5483 32.1475C27.3213 32.9405 25.9763 33.4978 24.5506 33.8042C24.1544 33.8892 23.8714 34.2393 23.8714 34.6444V36.1658H20.1285V34.6444C20.1285 34.2393 19.8454 33.8892 19.4497 33.8042C18.0236 33.4978 16.6785 32.9405 15.4519 32.1475C15.1115 31.9277 14.6641 31.9754 14.3777 32.2617L13.3042 33.3352L10.6582 30.6873L11.7308 29.6148C12.0175 29.3284 12.0648 28.8809 11.8449 28.5405C11.0519 27.3136 10.4948 25.9685 10.1886 24.5428C10.1033 24.1466 9.75317 23.864 9.34833 23.864H7.83334L7.83569 20.1207H9.34799C9.75317 20.1207 10.1033 19.8381 10.1882 19.4419C10.4948 18.0162 11.0519 16.6711 11.8449 15.4442C12.0648 15.104 12.0175 14.6566 11.7308 14.3703L10.6649 13.3041L13.3129 10.6585L14.3777 11.7233C14.6641 12.0097 15.1115 12.0573 15.4519 11.8374C16.6789 11.0446 18.0236 10.4873 19.4493 10.1808C19.8454 10.0959 20.1285 9.74569 20.1285 9.34055V7.83497H23.8714V9.34055C23.8714 9.74569 24.1544 10.0959 24.5502 10.1808C25.9759 10.4873 27.321 11.0446 28.548 11.8374C28.888 12.0573 29.3355 12.0097 29.6222 11.7233L30.687 10.6585L33.335 13.3041L32.2688 14.3703C31.9825 14.6566 31.9351 15.104 32.1546 15.4442C32.9479 16.6711 33.5051 18.0162 33.8113 19.4419C33.8965 19.8381 34.2467 20.1207 34.6515 20.1207H36.1669V23.864H34.6515C34.2467 23.864 33.8965 24.147 33.8116 24.5428Z" fill="#1C2B54"/>
<path d="M25.1839 20.6424L21.8028 18.4752C21.3063 18.1569 20.6762 18.1351 20.1585 18.4181C19.6409 18.7011 19.3193 19.2436 19.3193 19.8333V24.1675C19.3193 24.7573 19.6409 25.2995 20.1585 25.5825C20.4002 25.7147 20.6664 25.7805 20.9323 25.7805C21.2354 25.7805 21.5383 25.6949 21.8028 25.5254L25.1839 23.3585C25.6488 23.0604 25.9261 22.5528 25.9261 22.0002C25.9261 21.448 25.6488 20.9405 25.1839 20.6424ZM21.038 23.9738V20.0268L24.1173 22.0002L21.038 23.9738Z" fill="#1C2B54"/>
<path d="M42.4864 14.1265C42.4864 14.6012 42.1013 14.9859 41.6269 14.9859C41.1523 14.9859 40.7676 14.6012 40.7676 14.1265C40.7676 13.6518 41.1523 13.2671 41.6269 13.2671C42.1013 13.2671 42.4864 13.6518 42.4864 14.1265Z" fill="#1C2B54"/>
</g>
</g>
<defs>
<clipPath id="clip0_676_12027">
<rect width="44" height="44" fill="white"/>
</clipPath>
</defs>
</svg>
