<svg width="48" height="48" viewBox="0 0 48 48" fill="none" xmlns="http://www.w3.org/2000/svg">
<g clip-path="url(#clip0_676_10851)">
<mask id="mask0_676_10851" style="mask-type:luminance" maskUnits="userSpaceOnUse" x="0" y="0" width="48" height="48">
<path d="M48 0H0V48H48V0Z" fill="white"/>
</mask>
<g mask="url(#mask0_676_10851)">
<path d="M35.7037 11.2698C35.3738 11.4749 35.2725 11.9084 35.4775 12.2382C36.8018 14.3697 37.5017 16.8296 37.5017 19.3519C37.5017 22.8201 36.1886 26.1163 33.8044 28.6334C31.9382 30.6034 30.9127 33.226 30.9168 36.0212L30.9264 37.7832C30.9273 38.2816 30.7336 38.7502 30.3815 39.103C30.0294 39.4558 29.5607 39.65 29.0623 39.65H28.5689V27.3246C28.5689 26.7737 28.2612 26.2934 27.8054 26.0461V23.7633C27.9064 23.0904 28.0993 22.4367 28.3812 21.8195C28.6888 21.1456 29.0972 20.5233 29.5951 19.9699C29.8962 19.6353 29.9557 19.1443 29.7431 18.7485C29.1016 17.5529 28.3974 16.3732 27.6502 15.2422C26.8336 14.0058 25.9448 12.7964 25.0087 11.6472C24.5037 11.0275 23.5066 11.0075 22.9836 11.6394C22.0161 12.8088 21.1037 14.0444 20.2722 15.3118C19.5477 16.416 18.8687 17.5685 18.2543 18.7367C18.0349 19.1536 18.1169 19.6727 18.4538 19.9995C19.0473 20.5751 19.5001 21.249 19.7999 22.0023C20.0242 22.5655 20.1565 23.1613 20.1933 23.7732C20.1937 23.7803 20.195 23.7872 20.1956 23.7942V26.0444C19.7412 26.2911 19.432 26.7725 19.432 27.3247V37.3159C19.432 37.7043 19.7467 38.019 20.1351 38.019C20.5235 38.019 20.8382 37.7043 20.8382 37.3159V30.5314H27.1625V39.6502L18.9624 39.6509C17.9359 39.651 17.0994 38.816 17.0978 37.7865L17.0884 36.0899C17.0842 33.2621 16.0437 30.5997 14.1585 28.5931C11.8284 26.1133 10.5289 22.8736 10.4996 19.4711C10.4356 12.0652 16.4056 5.95601 23.8077 5.85288C23.8699 5.85204 23.9319 5.85157 23.9942 5.85157C27.6931 5.85157 31.26 7.38316 33.8056 10.0713C34.0725 10.3533 34.5177 10.3654 34.7996 10.0983C35.0815 9.83126 35.0937 9.38622 34.8265 9.10422C32.016 6.1362 28.0783 4.44531 23.994 4.44531C23.9256 4.44531 23.8566 4.44578 23.7881 4.44682C15.6146 4.56063 9.02264 11.3059 9.09334 19.4832C9.12596 23.2404 10.5607 26.8176 13.1337 29.556C14.7735 31.3014 15.6786 33.6225 15.6822 36.0948L15.6918 37.7914C15.694 39.3661 16.8163 40.6839 18.3023 40.99L18.2914 43.5046C18.2877 43.5331 18.2854 43.5619 18.2854 43.5913C18.2854 43.6191 18.2874 43.6463 18.2905 43.6733L18.2854 44.8498C18.2818 45.6902 18.6064 46.481 19.1994 47.0767C19.7923 47.6722 20.5816 47.9999 21.4218 47.9999L26.5668 47.9994C28.2886 47.9991 29.6956 46.5983 29.7031 44.8766L29.72 40.99C30.3436 40.8634 30.9165 40.557 31.3765 40.0964C31.9943 39.4776 32.334 38.6555 32.3326 37.7781L32.323 36.0162C32.3194 33.586 33.208 31.3073 34.8251 29.6003C37.4579 26.8209 38.9079 23.1811 38.9079 19.3517C38.9079 16.5669 38.1348 13.8504 36.6719 11.4958C36.4671 11.1662 36.0336 11.0652 35.7037 11.2698ZM21.6018 24.4339H26.399V25.8684H21.6018V24.4339ZM19.6147 19.1726C20.1774 18.119 20.7934 17.0807 21.4479 16.0832C22.0269 15.2007 22.6464 14.3344 23.2974 13.4964V19.5447C23.2974 19.9331 23.6121 20.2478 24.0006 20.2478C24.3889 20.2478 24.7037 19.9331 24.7037 19.5447V13.5298C25.3238 14.3385 25.9178 15.1712 26.4768 16.0172C27.1577 17.048 27.8017 18.1204 28.3931 19.2081C27.87 19.8223 27.4361 20.5032 27.1019 21.2357C26.8397 21.81 26.6413 22.4105 26.5095 23.0277H21.5268C21.4453 22.4974 21.3047 21.9799 21.1068 21.4822C20.7641 20.6221 20.2629 19.8462 19.6147 19.1726ZM20.8383 29.125V27.3246C20.8383 27.2971 20.8612 27.2749 20.8984 27.2749H27.1118C27.1399 27.2749 27.1626 27.2971 27.1626 27.3246V29.125H20.8383ZM28.2968 44.8705C28.2927 45.8203 27.5166 46.593 26.5667 46.5931L21.4221 46.5937C20.9587 46.5937 20.523 46.4128 20.1958 46.0843C19.8688 45.7558 19.6897 45.3196 19.6917 44.8558L19.6941 44.2945H26.289C26.6775 44.2945 26.9922 43.9798 26.9922 43.5913C26.9922 43.203 26.6775 42.8882 26.289 42.8882H19.7003L19.7083 41.0581L28.3134 41.0572L28.2968 44.8705Z" fill="#1C2B54"/>
<path d="M23.9941 2.70656C24.3826 2.70656 24.6973 2.39184 24.6973 2.00344V0.703125C24.6973 0.314718 24.3826 0 23.9941 0C23.6057 0 23.291 0.314718 23.291 0.703125V2.00344C23.291 2.39184 23.6057 2.70656 23.9941 2.70656Z" fill="#1C2B54"/>
<path d="M42.4687 19.0625H41.209C40.8206 19.0625 40.5059 19.3772 40.5059 19.7656C40.5059 20.154 40.8206 20.4687 41.209 20.4687H42.4687C42.8571 20.4687 43.1718 20.154 43.1718 19.7656C43.1718 19.3772 42.857 19.0625 42.4687 19.0625Z" fill="#1C2B54"/>
<path d="M6.79017 19.0625H5.53026C5.14186 19.0625 4.82715 19.3772 4.82715 19.7656C4.82715 20.154 5.14186 20.4687 5.53026 20.4687H6.79008C7.17849 20.4687 7.4932 20.154 7.4932 19.7656C7.4932 19.3772 7.17849 19.0625 6.79017 19.0625Z" fill="#1C2B54"/>
<path d="M36.1688 7.90876C36.3525 7.90876 36.5359 7.83723 36.6739 7.69492L37.5648 6.77542C37.8351 6.49652 37.828 6.05139 37.549 5.7812C37.2702 5.51101 36.8252 5.51786 36.5548 5.79695L35.6639 6.71645C35.3937 6.99536 35.4008 7.44049 35.6797 7.71066C35.8161 7.84295 35.9926 7.90876 36.1688 7.90876Z" fill="#1C2B54"/>
<path d="M11.3263 31.8355L10.4354 32.755C10.1652 33.0339 10.1723 33.479 10.4512 33.7492C10.5877 33.8814 10.7641 33.9473 10.9404 33.9473C11.124 33.9473 11.3075 33.8758 11.4455 33.7335L12.3364 32.814C12.6066 32.535 12.5996 32.0899 12.3207 31.8197C12.0417 31.5496 11.5966 31.5565 11.3263 31.8355Z" fill="#1C2B54"/>
<path d="M36.6739 31.8355C36.4037 31.5566 35.9586 31.5494 35.6797 31.8198C35.4008 32.0901 35.3937 32.5352 35.6639 32.814L36.5548 33.7335C36.6929 33.8759 36.8762 33.9474 37.06 33.9474C37.2361 33.9474 37.4127 33.8816 37.5491 33.7493C37.8281 33.479 37.8351 33.0339 37.5649 32.755L36.6739 31.8355Z" fill="#1C2B54"/>
<path d="M11.3262 7.69492C11.4643 7.83733 11.6476 7.90877 11.8314 7.90877C12.0075 7.90877 12.1841 7.84296 12.3206 7.71068C12.5995 7.44039 12.6065 6.99527 12.3363 6.71645L11.4454 5.79696C11.1751 5.51805 10.73 5.51083 10.4512 5.7812C10.1723 6.05148 10.1652 6.49661 10.4354 6.77543L11.3262 7.69492Z" fill="#1C2B54"/>
</g>
</g>
<defs>
<clipPath id="clip0_676_10851">
<rect width="48" height="48" fill="white"/>
</clipPath>
</defs>
</svg>
