<svg width="195" height="56" viewBox="0 0 195 56" fill="none" xmlns="http://www.w3.org/2000/svg">
<path d="M15.2188 11.5391L8.28516 34H0.921875L11.3711 5.5625H16.0391L15.2188 11.5391ZM20.9609 34L14.0078 11.5391L13.1094 5.5625H17.8359L28.3438 34H20.9609ZM20.6875 23.3945V28.6875H6.09766V23.3945H20.6875ZM40.7188 5.5625V34H33.8828V5.5625H40.7188ZM48.543 5.5625H59.7344C61.9219 5.5625 63.8229 5.88802 65.4375 6.53906C67.0521 7.1901 68.2956 8.15365 69.168 9.42969C70.0534 10.7057 70.4961 12.2812 70.4961 14.1562C70.4961 15.7839 70.2422 17.1445 69.7344 18.2383C69.2266 19.332 68.5169 20.237 67.6055 20.9531C66.707 21.6562 65.6589 22.2357 64.4609 22.6914L62.2148 23.9609H52.8203L52.7812 18.668H59.7344C60.6068 18.668 61.3294 18.5117 61.9023 18.1992C62.4753 17.8867 62.9049 17.444 63.1914 16.8711C63.4909 16.2852 63.6406 15.5885 63.6406 14.7812C63.6406 13.9609 63.4909 13.2578 63.1914 12.6719C62.8919 12.0859 62.4492 11.6367 61.8633 11.3242C61.2904 11.0117 60.5807 10.8555 59.7344 10.8555H55.3984V34H48.543V5.5625ZM64.1094 34L57.8203 21.4219L65.0859 21.3828L71.4531 33.707V34H64.1094Z" fill="#2B50AA"/>
<path d="M8.40625 49.1406H5.57812V47.0234H8.40625C8.79167 47.0234 9.10417 46.9583 9.34375 46.8281C9.58333 46.6979 9.75781 46.5182 9.86719 46.2891C9.98177 46.0547 10.0391 45.7917 10.0391 45.5C10.0391 45.1875 9.98177 44.8984 9.86719 44.6328C9.75781 44.3672 9.58333 44.1536 9.34375 43.9922C9.10417 43.8255 8.79167 43.7422 8.40625 43.7422H6.60938V53H3.86719V41.625H8.40625C9.31771 41.625 10.1016 41.7917 10.7578 42.125C11.4193 42.4583 11.9271 42.9167 12.2812 43.5C12.6354 44.0781 12.8125 44.7396 12.8125 45.4844C12.8125 46.2188 12.6354 46.8594 12.2812 47.4062C11.9271 47.9531 11.4193 48.3802 10.7578 48.6875C10.1016 48.9896 9.31771 49.1406 8.40625 49.1406ZM34.4609 41.625H37.2031V49.0547C37.2031 49.9401 37.0182 50.6901 36.6484 51.3047C36.2786 51.9141 35.7604 52.375 35.0938 52.6875C34.4271 53 33.6432 53.1562 32.7422 53.1562C31.8516 53.1562 31.0677 53 30.3906 52.6875C29.7188 52.375 29.1927 51.9141 28.8125 51.3047C28.4375 50.6901 28.25 49.9401 28.25 49.0547V41.625H31V49.0547C31 49.5234 31.0677 49.9062 31.2031 50.2031C31.3385 50.4948 31.5365 50.7083 31.7969 50.8438C32.0573 50.9792 32.3724 51.0469 32.7422 51.0469C33.1172 51.0469 33.4323 50.9792 33.6875 50.8438C33.9427 50.7083 34.1354 50.4948 34.2656 50.2031C34.3958 49.9062 34.4609 49.5234 34.4609 49.0547V41.625ZM52.9297 41.625H57.4062C58.2812 41.625 59.0417 41.7552 59.6875 42.0156C60.3333 42.276 60.8307 42.6615 61.1797 43.1719C61.5339 43.6823 61.7109 44.3125 61.7109 45.0625C61.7109 45.7135 61.6094 46.2578 61.4062 46.6953C61.2031 47.1328 60.9193 47.4948 60.5547 47.7812C60.1953 48.0625 59.776 48.2943 59.2969 48.4766L58.3984 48.9844H54.6406L54.625 46.8672H57.4062C57.7552 46.8672 58.0443 46.8047 58.2734 46.6797C58.5026 46.5547 58.6745 46.3776 58.7891 46.1484C58.9089 45.9141 58.9688 45.6354 58.9688 45.3125C58.9688 44.9844 58.9089 44.7031 58.7891 44.4688C58.6693 44.2344 58.4922 44.0547 58.2578 43.9297C58.0286 43.8047 57.7448 43.7422 57.4062 43.7422H55.6719V53H52.9297V41.625ZM59.1562 53L56.6406 47.9688L59.5469 47.9531L62.0938 52.8828V53H59.1562ZM80.2812 41.625V53H77.5469V41.625H80.2812ZM98.9531 41.625V53H96.2109V41.625H98.9531ZM103.375 46.3594V48.4688H98.1719V46.3594H103.375ZM103.82 41.625V43.7422H98.1719V41.625H103.82ZM121.875 41.625V53H119.141V41.625H121.875ZM145.633 50.8906V53H139.57V50.8906H145.633ZM140.547 41.625V53H137.805V41.625H140.547ZM144.852 46.1406V48.1797H139.57V46.1406H144.852ZM145.656 41.625V43.7422H139.57V41.625H145.656ZM160.758 41.625H165.234C166.109 41.625 166.87 41.7552 167.516 42.0156C168.161 42.276 168.659 42.6615 169.008 43.1719C169.362 43.6823 169.539 44.3125 169.539 45.0625C169.539 45.7135 169.438 46.2578 169.234 46.6953C169.031 47.1328 168.747 47.4948 168.383 47.7812C168.023 48.0625 167.604 48.2943 167.125 48.4766L166.227 48.9844H162.469L162.453 46.8672H165.234C165.583 46.8672 165.872 46.8047 166.102 46.6797C166.331 46.5547 166.503 46.3776 166.617 46.1484C166.737 45.9141 166.797 45.6354 166.797 45.3125C166.797 44.9844 166.737 44.7031 166.617 44.4688C166.497 44.2344 166.32 44.0547 166.086 43.9297C165.857 43.8047 165.573 43.7422 165.234 43.7422H163.5V53H160.758V41.625ZM166.984 53L164.469 47.9688L167.375 47.9531L169.922 52.8828V53H166.984ZM191.055 49.9766C191.055 49.7995 191.029 49.6406 190.977 49.5C190.924 49.3542 190.828 49.2188 190.688 49.0938C190.547 48.9688 190.344 48.8438 190.078 48.7188C189.818 48.5885 189.474 48.4531 189.047 48.3125C188.547 48.1458 188.065 47.9583 187.602 47.75C187.138 47.5365 186.724 47.2891 186.359 47.0078C185.995 46.7214 185.706 46.388 185.492 46.0078C185.279 45.6224 185.172 45.1745 185.172 44.6641C185.172 44.1745 185.281 43.7344 185.5 43.3438C185.719 42.9479 186.023 42.612 186.414 42.3359C186.81 42.0547 187.273 41.8411 187.805 41.6953C188.336 41.5443 188.917 41.4688 189.547 41.4688C190.38 41.4688 191.115 41.6146 191.75 41.9062C192.391 42.1927 192.891 42.6016 193.25 43.1328C193.615 43.6589 193.797 44.2812 193.797 45H191.07C191.07 44.7135 191.01 44.4609 190.891 44.2422C190.776 44.0234 190.602 43.8516 190.367 43.7266C190.133 43.6016 189.839 43.5391 189.484 43.5391C189.141 43.5391 188.852 43.5911 188.617 43.6953C188.383 43.7995 188.206 43.9401 188.086 44.1172C187.966 44.2891 187.906 44.4792 187.906 44.6875C187.906 44.8594 187.953 45.0156 188.047 45.1562C188.146 45.2917 188.284 45.4193 188.461 45.5391C188.643 45.6589 188.862 45.7734 189.117 45.8828C189.378 45.9922 189.669 46.099 189.992 46.2031C190.596 46.3958 191.133 46.612 191.602 46.8516C192.076 47.0859 192.474 47.3542 192.797 47.6562C193.125 47.9531 193.372 48.2917 193.539 48.6719C193.711 49.0521 193.797 49.4818 193.797 49.9609C193.797 50.4714 193.698 50.9245 193.5 51.3203C193.302 51.7161 193.018 52.0521 192.648 52.3281C192.279 52.599 191.836 52.8047 191.32 52.9453C190.805 53.0859 190.229 53.1562 189.594 53.1562C189.01 53.1562 188.435 53.0833 187.867 52.9375C187.305 52.7865 186.794 52.5573 186.336 52.25C185.878 51.9375 185.51 51.5391 185.234 51.0547C184.964 50.5651 184.828 49.9844 184.828 49.3125H187.578C187.578 49.6458 187.622 49.9271 187.711 50.1562C187.799 50.3854 187.93 50.5703 188.102 50.7109C188.273 50.8464 188.484 50.9453 188.734 51.0078C188.984 51.0651 189.271 51.0938 189.594 51.0938C189.943 51.0938 190.224 51.0443 190.438 50.9453C190.651 50.8411 190.807 50.7057 190.906 50.5391C191.005 50.3672 191.055 50.1797 191.055 49.9766Z" fill="#2B50AA"/>
</svg>
