<svg width="54" height="54" viewBox="0 0 54 54" fill="none" xmlns="http://www.w3.org/2000/svg">
<rect width="54" height="54" rx="27" fill="#F6F6F9"/>
<g clip-path="url(#clip0_540_9639)">
<g clip-path="url(#clip1_540_9639)">
<mask id="mask0_540_9639" style="mask-type:luminance" maskUnits="userSpaceOnUse" x="12" y="12" width="30" height="30">
<path d="M42 12H12V42H42V12Z" fill="white"/>
</mask>
<g mask="url(#mask0_540_9639)">
<path d="M23.4035 26.0001C24.6535 26.0001 25.7185 25.0141 26.244 24.4266C26.4079 24.2392 26.4982 23.9988 26.4982 23.7499C26.4982 23.5009 26.4079 23.2605 26.244 23.0731C25.7185 22.4856 24.65 21.5001 23.4035 21.5001C22.7868 21.4813 22.1878 21.7075 21.7374 22.1291C21.2871 22.5508 21.0219 23.1335 21 23.7501C21.0219 24.3667 21.2871 24.9495 21.7374 25.3711C22.1878 25.7927 22.7868 26.0189 23.4035 26.0001ZM23.4035 22.5001C24.2945 22.5001 25.165 23.3666 25.498 23.7396V23.7606C25.165 24.1331 24.294 25.0001 23.4035 25.0001C23.0521 25.0187 22.7075 24.8978 22.4447 24.6638C22.1818 24.4297 22.022 24.1014 22 23.7501C22.022 23.3989 22.1818 23.0705 22.4447 22.8364C22.7075 22.6024 23.0521 22.4815 23.4035 22.5001Z" fill="#1C2B54"/>
<path d="M30.5966 26.0001C31.2133 26.0189 31.8123 25.7927 32.2627 25.3711C32.7131 24.9495 32.9782 24.3667 33.0001 23.7501C32.9782 23.1335 32.7131 22.5508 32.2627 22.1291C31.8123 21.7075 31.2133 21.4813 30.5966 21.5001C29.3466 21.5001 28.2811 22.4856 27.7561 23.0731C27.5923 23.2605 27.502 23.5009 27.502 23.7499C27.502 23.9988 27.5923 24.2392 27.7561 24.4266C28.2811 25.0141 29.3501 26.0001 30.5966 26.0001ZM30.5966 22.5001C30.9481 22.4815 31.2927 22.6024 31.5555 22.8364C31.8183 23.0705 31.9781 23.3989 32.0001 23.7501C31.9781 24.1014 31.8183 24.4297 31.5555 24.6638C31.2927 24.8978 30.9481 25.0187 30.5966 25.0001C29.7061 25.0001 28.8351 24.1331 28.5001 23.7391C28.8356 23.3661 29.7061 22.5001 30.5966 22.5001Z" fill="#1C2B54"/>
<path d="M24.5 30.5C24.5 31.163 24.7634 31.7989 25.2322 32.2678C25.7011 32.7366 26.337 33 27 33C27.663 33 28.2989 32.7366 28.7678 32.2678C29.2366 31.7989 29.5 31.163 29.5 30.5C29.5 30.1022 29.342 29.7206 29.0607 29.4393C28.7794 29.158 28.3978 29 28 29H26C25.6022 29 25.2206 29.158 24.9393 29.4393C24.658 29.7206 24.5 30.1022 24.5 30.5ZM28.5 30.5C28.5 30.8978 28.342 31.2794 28.0607 31.5607C27.7794 31.842 27.3978 32 27 32C26.6022 32 26.2206 31.842 25.9393 31.5607C25.658 31.2794 25.5 30.8978 25.5 30.5C25.5 30.3674 25.5527 30.2402 25.6464 30.1464C25.7402 30.0527 25.8674 30 26 30H28C28.1326 30 28.2598 30.0527 28.3536 30.1464C28.4473 30.2402 28.5 30.3674 28.5 30.5Z" fill="#1C2B54"/>
<path d="M36.6087 32.7434C36.5012 32.7079 36.3937 32.6724 36.2902 32.6304C35.4583 32.3714 34.7459 31.8246 34.2807 31.0879C34.354 30.8376 34.4075 30.582 34.4407 30.3234L35.4547 21.0084C35.5778 19.8957 35.462 18.7696 35.1151 17.7053C34.7683 16.6409 34.1983 15.6628 33.4432 14.8364C32.6247 13.9425 31.6293 13.2288 30.52 12.7405C29.4108 12.2522 28.2121 12 27.0002 12C25.7883 12 24.5896 12.2522 23.4803 12.7405C22.3711 13.2288 21.3756 13.9425 20.5572 14.8364C19.8021 15.6628 19.2321 16.6409 18.8852 17.7053C18.5384 18.7696 18.4226 19.8957 18.5457 21.0084L19.5607 30.3314C19.5936 30.5877 19.6466 30.8409 19.7192 31.0889C19.2525 31.8263 18.5385 32.3734 17.7052 32.6324C17.6052 32.6724 17.4992 32.7079 17.3882 32.7444C16.9259 32.8791 16.5312 33.1828 16.2825 33.5951C16.0338 34.0074 15.9493 34.4981 16.0457 34.9699C16.9692 39.0434 21.5762 41.9999 27.0002 41.9999C32.4242 41.9999 37.0312 39.0434 37.9542 34.9719C38.051 34.4993 37.9663 34.0076 37.7169 33.5947C37.4676 33.1818 37.072 32.8778 36.6087 32.7434ZM19.5397 20.8999C19.4324 19.9271 19.5339 18.9425 19.8375 18.0121C20.1411 17.0817 20.6398 16.2267 21.3002 15.5044C22.0247 14.715 22.9053 14.0848 23.8861 13.6536C24.867 13.2225 25.9268 12.9999 26.9982 12.9999C28.0696 12.9999 29.1294 13.2225 30.1103 13.6536C31.0911 14.0848 31.9717 14.715 32.6962 15.5044C33.3573 16.2264 33.8567 17.0812 34.161 18.0116C34.4653 18.9421 34.5675 19.9268 34.4607 20.8999L33.4502 30.2074C33.3539 30.9853 33.0225 31.7154 32.5002 32.2999C31.4287 33.4959 29.2942 35.4999 27.0002 35.4999C24.7062 35.4999 22.5717 33.4959 21.5027 32.2999C20.9813 31.7171 20.6499 30.9893 20.5527 30.2134L19.5397 20.8999ZM36.9792 34.7499C36.1577 38.3709 31.9612 40.9999 27.0002 40.9999C22.0392 40.9999 17.8427 38.3709 17.0207 34.7499C16.9846 34.52 17.035 34.2848 17.1622 34.0899C17.2893 33.8949 17.4842 33.754 17.7092 33.6944C17.8372 33.6519 17.9647 33.6084 18.0772 33.5624C18.8836 33.2744 19.6074 32.7938 20.1857 32.1624C20.348 32.4515 20.5397 32.7231 20.7577 32.9729C21.9372 34.2869 24.3172 36.4999 27.0002 36.4999C29.6832 36.4999 32.0632 34.2869 33.2427 32.9679C33.4605 32.7183 33.652 32.4468 33.8142 32.1579C34.391 32.7891 35.1132 33.2697 35.9182 33.5579C36.0357 33.6079 36.1632 33.6494 36.3017 33.6959C36.5249 33.7569 36.7176 33.8983 36.8427 34.0929C36.9678 34.2875 37.0164 34.5215 36.9792 34.7499Z" fill="#1C2B54"/>
</g>
</g>
</g>
<defs>
<clipPath id="clip0_540_9639">
<rect width="30" height="30" fill="white" transform="translate(12 12)"/>
</clipPath>
<clipPath id="clip1_540_9639">
<rect width="30" height="30" fill="white" transform="translate(12 12)"/>
</clipPath>
</defs>
</svg>
