<svg width="54" height="54" viewBox="0 0 54 54" fill="none" xmlns="http://www.w3.org/2000/svg">
<rect width="54" height="54" rx="27" fill="#F6F6F9"/>
<g clip-path="url(#clip0_540_9629)">
<mask id="mask0_540_9629" style="mask-type:luminance" maskUnits="userSpaceOnUse" x="12" y="12" width="30" height="30">
<path d="M42 12H12V42H42V12Z" fill="white"/>
</mask>
<g mask="url(#mask0_540_9629)">
<path d="M41.9999 17.1448C41.9999 17.1415 41.9995 17.1382 41.9994 17.1349C41.999 17.1218 41.9983 17.1089 41.9967 17.0961C41.9962 17.0914 41.9953 17.0867 41.9946 17.0821C41.9928 17.0703 41.9907 17.0587 41.988 17.0473C41.9869 17.0428 41.9857 17.0383 41.9845 17.0338C41.9811 17.0215 41.9772 17.0093 41.9728 16.9974C41.972 16.9951 41.9714 16.9928 41.9706 16.9905L40.7785 13.9389C40.6583 13.6314 40.3673 13.4326 40.0371 13.4326H37.8665C37.6299 13.4326 37.4382 13.6244 37.4382 13.861C37.4382 14.0976 37.6299 14.2894 37.8665 14.2894H39.9956L40.9443 16.718H31.9751L31.4132 14.2894H34.7256C34.9622 14.2894 35.154 14.0976 35.154 13.861C35.154 13.6244 34.9622 13.4326 34.7256 13.4326H30.8743H26.5579H17.3951C17.0649 13.4326 16.7739 13.6314 16.6537 13.939L15.4616 16.9905C15.4607 16.9928 15.4603 16.9952 15.4594 16.9974C15.4549 17.0093 15.4511 17.0214 15.4477 17.0338C15.4464 17.0383 15.4453 17.0428 15.4442 17.0473C15.4415 17.0587 15.4393 17.0703 15.4376 17.0821C15.4369 17.0867 15.436 17.0914 15.4354 17.0961C15.434 17.1089 15.4331 17.1218 15.4328 17.1349C15.4327 17.1381 15.4323 17.1414 15.4323 17.1448C15.4323 17.1453 15.4322 17.1458 15.4322 17.1463V23.4399C15.4322 23.6765 15.624 23.8683 15.8606 23.8683C16.0972 23.8683 16.289 23.6765 16.289 23.4399V17.5748H25.3693V24.0862C25.3693 24.3408 25.5193 24.5729 25.7515 24.6773C25.8366 24.7156 25.9271 24.7343 26.017 24.7343C26.1727 24.7343 26.3266 24.6784 26.4473 24.5714L28.7161 22.5614L30.9849 24.5713C31.1754 24.7403 31.4485 24.7818 31.6807 24.6773C31.9129 24.5728 32.0629 24.3408 32.0629 24.0862V17.5748H41.1432V36.789C41.1432 37.0964 40.8931 37.3465 40.5857 37.3465H32.731C32.731 37.3416 32.7305 37.3368 32.7304 37.3319C32.7299 37.2935 32.7285 37.2551 32.7252 37.217C33.4628 37.4125 34.2508 37.0335 34.5463 36.3087C34.7018 35.9274 34.6995 35.5085 34.5398 35.129C34.5248 35.0933 34.5082 35.0586 34.4907 35.0244C34.4875 35.0182 34.4844 35.0118 34.4812 35.0056C34.464 34.973 34.4457 34.9412 34.4264 34.9102C34.4227 34.9042 34.4188 34.8983 34.415 34.8924C34.3946 34.8605 34.3735 34.8293 34.3509 34.7993C34.3505 34.7987 34.35 34.7981 34.3496 34.7976C34.3272 34.7679 34.3036 34.7393 34.2791 34.7114C34.2747 34.7063 34.2703 34.7011 34.2658 34.696C34.2416 34.6691 34.2164 34.643 34.1904 34.6178C34.1853 34.6129 34.1802 34.6082 34.175 34.6034C34.1478 34.5778 34.1199 34.5529 34.0908 34.5294C34.0898 34.5286 34.0888 34.5279 34.0878 34.5271C34.0592 34.5041 34.0295 34.4823 33.9992 34.4613C33.9938 34.4575 33.9884 34.4536 33.9828 34.4499C33.9525 34.4295 33.9215 34.4102 33.8896 34.3919C33.887 34.3903 33.8846 34.3886 33.8819 34.387C34.0629 34.2304 34.2058 34.0321 34.2989 33.8039C34.4543 33.4227 34.4521 33.0037 34.2924 32.6242C34.1527 32.2922 33.9071 32.0251 33.5926 31.8594C33.5477 31.8357 33.5013 31.8141 33.4537 31.7947L26.7865 29.0761L29.89 28.1155C30.6283 27.887 31.0441 27.0995 30.8169 26.3602C30.7321 26.0842 30.564 25.8515 30.3469 25.6814C30.0237 25.4282 29.5918 25.3139 29.1635 25.4038C29.1615 25.4043 29.1595 25.4046 29.1574 25.4052C29.1337 25.4105 26.7545 25.9455 24.2698 26.43C24.1596 26.4515 24.0521 26.4722 23.9463 26.4926C23.8615 26.5089 23.778 26.525 23.696 26.5405C23.6725 26.5451 23.6488 26.5495 23.6255 26.554C23.4807 26.5814 23.3405 26.6077 23.2042 26.6331C23.1494 26.6433 23.095 26.6533 23.0415 26.6632C19.921 27.238 19.0444 27.2484 18.8011 27.2154C18.8002 27.2153 18.7993 27.2152 18.7984 27.215C18.7947 27.2145 18.7911 27.214 18.7877 27.2134C18.7852 27.213 18.7829 27.2126 18.7807 27.2123C18.779 27.212 18.7773 27.2117 18.7757 27.2114C18.7605 27.2087 18.7487 27.2058 18.7395 27.2031L18.6693 27.1745L18.7568 26.96C18.8428 26.749 18.8415 26.5172 18.7532 26.3073C18.7311 26.2548 18.7042 26.2052 18.6731 26.159C18.5796 26.0206 18.4473 25.9128 18.2891 25.8483L15.9883 24.9101C15.7774 24.824 15.5455 24.8254 15.3356 24.9137C15.1256 25.002 14.9626 25.1668 14.8766 25.3777L12.0631 32.2779C11.8856 32.7133 12.0954 33.2119 12.5308 33.3895L14.8317 34.3277C14.9368 34.3705 15.0455 34.3908 15.1525 34.3908C15.489 34.3908 15.8086 34.1903 15.9433 33.86L15.9645 33.8081L16.495 34.0244C16.4953 34.0245 16.4956 34.0247 16.4959 34.0248C17.0033 34.2317 17.4708 34.5269 17.8755 34.8932C17.9491 34.9599 18.0206 35.0288 18.0899 35.1C18.1592 35.1712 18.2262 35.2447 18.291 35.3203C18.3233 35.3581 18.3552 35.3964 18.3863 35.4353C18.9759 36.1705 19.7489 36.7473 20.6215 37.1031L21.2183 37.3464H16.8465C16.5392 37.3464 16.289 37.0963 16.289 36.7889V35.705C16.289 35.4684 16.0972 35.2766 15.8606 35.2766C15.624 35.2766 15.4323 35.4684 15.4323 35.705V36.7889C15.4323 37.5687 16.0667 38.2032 16.8465 38.2032H23.3196L28.838 40.4533C29.0279 40.5308 29.2244 40.5675 29.418 40.5674C30.0261 40.5674 30.6037 40.205 30.8472 39.608C30.947 39.3632 30.9791 39.1072 30.9522 38.8612C31.2392 38.9024 31.5368 38.8646 31.8066 38.7481C32.0808 38.6297 32.308 38.4411 32.4694 38.2031H40.5858C41.3656 38.2031 42 37.5687 42 36.7889V17.1464C42 17.1458 41.9999 17.1453 41.9999 17.1448ZM26.8985 14.2894H30.5337L31.0957 16.718H26.3365L26.8985 14.2894ZM25.4571 16.718H16.4879L17.4366 14.2894H26.0191L25.4571 16.718ZM31.2063 23.6228L29.1459 21.7976C29.0234 21.689 28.8698 21.6348 28.7162 21.6348C28.5626 21.6348 28.4089 21.689 28.2864 21.7976L26.2261 23.6228V17.5748H31.2063V23.6228ZM15.1515 33.5328L12.858 32.5977L15.6685 25.705L17.962 26.6402L15.1515 33.5328ZM32.2658 36.118L31.7741 35.9175C31.7739 35.9174 31.7744 35.9176 31.7741 35.9175C31.774 35.9175 31.7731 35.917 31.7729 35.917L26.6525 33.8292C26.4335 33.7399 26.1834 33.845 26.0941 34.0641C26.0047 34.2832 26.1099 34.5332 26.329 34.6226L31.4494 36.7104C31.4708 36.7191 31.4915 36.7288 31.5115 36.7394C31.5171 36.7424 31.5223 36.746 31.5278 36.7491C31.5419 36.7571 31.556 36.7651 31.5693 36.7739C31.5757 36.7782 31.5816 36.7831 31.5878 36.7876C31.5995 36.796 31.6116 36.8043 31.6227 36.8135C31.6294 36.819 31.6355 36.8251 31.642 36.8309C31.652 36.8397 31.6622 36.8483 31.6715 36.8577C31.6781 36.8641 31.6839 36.8712 31.6901 36.8779C31.6987 36.8871 31.7075 36.8962 31.7156 36.9059C31.7218 36.9134 31.7272 36.9213 31.733 36.929C31.7403 36.9386 31.748 36.948 31.7547 36.958C31.7604 36.9663 31.7652 36.9751 31.7705 36.9836C31.7766 36.9934 31.7831 37.0031 31.7886 37.0132C31.7937 37.0224 31.7979 37.0319 31.8025 37.0412C31.8074 37.0512 31.8128 37.0611 31.8172 37.0713C31.8215 37.0812 31.8249 37.0914 31.8288 37.1014C31.8326 37.1115 31.8368 37.1215 31.8402 37.1318C31.8436 37.1422 31.8462 37.1528 31.8491 37.1633C31.852 37.1736 31.8552 37.1838 31.8576 37.1943C31.86 37.2049 31.8615 37.2157 31.8634 37.2264C31.8654 37.237 31.8676 37.2476 31.869 37.2584C31.8704 37.2692 31.8709 37.2801 31.8718 37.2909C31.8727 37.3018 31.874 37.3126 31.8743 37.3235C31.8747 37.3343 31.8742 37.3451 31.874 37.3559C31.8739 37.367 31.8741 37.3781 31.8734 37.3893C31.8728 37.3999 31.8712 37.4105 31.87 37.4211C31.8688 37.4326 31.8678 37.444 31.866 37.4554C31.8643 37.4658 31.8616 37.4762 31.8595 37.4866C31.857 37.4981 31.8549 37.5097 31.8518 37.5212C31.8491 37.5313 31.8455 37.5414 31.8423 37.5515C31.8387 37.5629 31.8353 37.5744 31.831 37.5857C31.8274 37.5935 31.8238 37.6014 31.8205 37.6093C31.8197 37.6111 31.8193 37.613 31.8186 37.6147C31.7517 37.7692 31.6282 37.892 31.4669 37.9617C31.2893 38.0383 31.0861 38.0409 30.9091 37.9688L30.0019 37.5989C29.9977 37.5972 29.9934 37.596 29.9892 37.5944C29.9849 37.5925 29.9809 37.5902 29.9766 37.5885L25.812 35.8904C25.5928 35.8011 25.3429 35.9062 25.2536 36.1253C25.1642 36.3444 25.2694 36.5944 25.4885 36.6838L29.6531 38.3819C29.6575 38.3837 29.662 38.385 29.6665 38.3867C29.6706 38.3884 29.6743 38.3906 29.6785 38.3922C30.028 38.5348 30.1965 38.9351 30.054 39.2846C29.9114 39.6342 29.5113 39.8027 29.1616 39.6601L23.5662 37.3785C23.5659 37.3784 23.5664 37.3786 23.5662 37.3785L20.9452 36.3097C20.4839 36.1217 20.0556 35.8606 19.6775 35.5395C19.4506 35.3468 19.2418 35.1325 19.0548 34.8993C18.8705 34.6695 18.6684 34.4553 18.4509 34.2583C17.9724 33.8251 17.4195 33.4761 16.8196 33.2314C16.8195 33.2314 16.8197 33.2314 16.8196 33.2314L16.2882 33.0148L17.3462 30.42L18.3461 27.9679L18.4198 27.9979C18.4893 28.0262 18.5883 28.0664 18.8548 28.0765C19.1877 28.0916 19.7385 28.0568 20.7252 27.9174C21.3964 27.8226 22.2197 27.6855 23.1808 27.5087C23.2045 27.5043 23.228 27.5 23.2519 27.4956C23.2968 27.4873 23.3422 27.4789 23.3878 27.4704C23.4233 27.4639 23.4589 27.4572 23.4948 27.4504C23.5357 27.4428 23.5768 27.4351 23.6181 27.4273C23.662 27.419 23.7064 27.4107 23.7511 27.4022C23.7868 27.3954 23.8225 27.3886 23.8586 27.3818C23.913 27.3714 23.9684 27.3608 24.024 27.3501C24.0526 27.3446 24.0809 27.3392 24.1097 27.3337C24.1948 27.3173 24.281 27.3007 24.3687 27.2836C26.845 26.802 29.235 26.2659 29.3424 26.2418C29.3531 26.2395 29.3638 26.2383 29.3746 26.2367C29.6497 26.196 29.9193 26.3551 29.9982 26.6119C30.0259 26.7021 30.0292 26.7941 30.0117 26.8807C29.9733 27.0713 29.8348 27.2358 29.6368 27.297L25.3898 28.6115C25.2169 28.6651 25.0963 28.8214 25.0886 29.0022C25.0807 29.1829 25.1872 29.3492 25.3548 29.4175L33.1304 32.588C33.2998 32.6571 33.4321 32.7879 33.503 32.9565C33.5739 33.1251 33.5749 33.3112 33.5058 33.4804C33.4367 33.6498 33.306 33.7821 33.1374 33.853C33.0531 33.8884 32.9645 33.9063 32.8757 33.9068C32.8744 33.9068 32.8731 33.9066 32.8718 33.9066C32.851 33.9066 32.8302 33.9058 32.8094 33.9039C32.8032 33.9033 32.7971 33.902 32.791 33.9013C32.7751 33.8994 32.7592 33.8976 32.7435 33.8945C32.7335 33.8926 32.7237 33.8896 32.7138 33.8873C32.7019 33.8845 32.69 33.8821 32.6783 33.8786C32.6662 33.8751 32.6543 33.8703 32.6423 33.866C32.6328 33.8626 32.6232 33.8598 32.6138 33.856L27.4929 31.768C27.2739 31.6786 27.0239 31.7838 26.9345 32.0029C26.8452 32.222 26.9504 32.472 27.1695 32.5614L33.3778 35.0928C33.4202 35.11 33.4602 35.1312 33.4975 35.1558C33.6095 35.2296 33.6972 35.3348 33.7503 35.4612C33.8124 35.6087 33.8209 35.7696 33.7758 35.921C33.7694 35.9426 33.7618 35.964 33.7532 35.9852C33.7443 36.007 33.7344 36.0282 33.7236 36.0486C33.6983 36.096 33.6675 36.1389 33.6332 36.178C33.6119 36.2023 33.5891 36.2249 33.5648 36.2456C33.561 36.2489 33.5574 36.2527 33.5535 36.2558C33.3972 36.3837 33.1882 36.4386 32.984 36.3974C32.9426 36.389 32.9014 36.3771 32.8608 36.3606L32.2658 36.118Z" fill="#1C2B54"/>
</g>
</g>
<defs>
<clipPath id="clip0_540_9629">
<rect width="30" height="30" fill="white" transform="translate(12 12)"/>
</clipPath>
</defs>
</svg>
