<svg width="54" height="54" viewBox="0 0 54 54" fill="none" xmlns="http://www.w3.org/2000/svg">
<rect width="54" height="54" rx="27" fill="#F6F6F9"/>
<g clip-path="url(#clip0_540_9647)">
<mask id="mask0_540_9647" style="mask-type:luminance" maskUnits="userSpaceOnUse" x="12" y="12" width="30" height="30">
<path d="M42 12H12V42H42V12Z" fill="white"/>
</mask>
<g mask="url(#mask0_540_9647)">
<path d="M31.5117 17.2734C31.9 17.2734 32.2148 16.9586 32.2148 16.5703C32.2148 16.182 31.9 15.8672 31.5117 15.8672C31.1234 15.8672 30.8086 16.182 30.8086 16.5703C30.8086 16.9586 31.1234 17.2734 31.5117 17.2734Z" fill="#1C2B54"/>
<path d="M41.5286 16.2987C41.2631 16.0337 40.9104 15.8878 40.5353 15.8878C40.5344 15.8878 40.5333 15.8878 40.5324 15.8878L35.5616 15.8981L34.5062 14.5457C33.2703 12.9619 31.4106 12.0544 29.4021 12.0544C29.3978 12.0544 29.2578 12.0547 29.2578 12.0547C28.5619 12.056 27.8907 12.1639 27.2585 12.3612C27.2273 12.3603 27.1961 12.3589 27.1647 12.3589C26.3721 12.3589 25.6269 12.6676 25.0664 13.2281L18.327 19.9675C17.2356 21.0589 17.0176 22.7516 17.7969 24.0839C17.9164 24.2882 18.0563 24.4771 18.2126 24.6497C17.7061 25.2438 17.2175 25.8544 16.7511 26.4832C14.9422 28.9218 13.3758 31.7007 12.0954 34.7427C11.995 34.9813 12.107 35.2562 12.3456 35.3566C12.405 35.3816 12.4666 35.3934 12.5272 35.3934C12.7102 35.3934 12.8841 35.2856 12.9595 35.1064C14.2108 32.1335 15.7398 29.4201 17.504 27.0418C17.9598 26.4274 18.4371 25.8309 18.932 25.2508C19.1733 25.4011 19.4341 25.5224 19.7103 25.6092C20.2001 25.7631 20.701 25.8375 21.1965 25.8375C22.7201 25.8375 24.1926 25.1346 25.1348 23.8815C26.33 22.292 27.2184 20.6336 27.7753 18.9522C27.8567 18.7064 27.7235 18.4412 27.4777 18.3598C27.2319 18.2784 26.9668 18.4117 26.8854 18.6574C26.3605 20.242 25.5194 21.8101 24.3855 23.3181C23.3751 24.662 21.6094 25.2234 19.9914 24.7148C19.4072 24.5312 18.9153 24.1391 18.6061 23.6105C18.042 22.646 18.1998 21.4205 18.9899 20.6304L25.7294 13.891C26.1127 13.5076 26.6225 13.2964 27.1647 13.2964C27.7069 13.2964 28.2167 13.5076 28.6001 13.891C28.7831 14.0741 29.0799 14.0741 29.263 13.891C29.4461 13.7079 29.4461 13.4111 29.263 13.2281C29.1807 13.1458 29.0939 13.0696 29.0041 12.9983C29.0888 12.9944 29.1739 12.9924 29.2595 12.9922C29.2595 12.9922 29.3983 12.9919 29.4021 12.9919C31.1196 12.9919 32.7102 13.7681 33.7671 15.1225L34.9636 16.6557C35.0524 16.7696 35.1888 16.8361 35.3331 16.8361H35.3341L37.5683 16.8315V17.338C37.5683 17.8534 37.8988 18.3029 38.3907 18.4566L41.004 19.2732V19.8259C41.004 20.5245 40.5029 21.109 39.8124 21.2156L32.202 22.3912C32.1605 22.3976 32.121 22.4109 32.0832 22.4278C31.0218 22.4093 30.0912 21.9896 29.1614 21.1087C28.9735 20.9307 28.6769 20.9386 28.4987 21.1266C28.3207 21.3145 28.3287 21.6112 28.5166 21.7893C29.3904 22.6171 30.307 23.1116 31.298 23.2901C30.9043 23.8076 30.5272 24.3983 30.163 25.0683L30.1841 24.5926C30.1978 24.2846 30.0276 23.998 29.7505 23.8626C29.4735 23.7272 29.1429 23.7689 28.9081 23.9689L27.7757 24.934C25.7072 26.697 24.0627 28.9555 23.0199 31.4653C21.9771 33.9751 21.537 36.734 21.7472 39.4438L21.7744 39.794C21.8157 40.3269 21.7841 40.8608 21.6803 41.3808C21.6297 41.6347 21.7945 41.8816 22.0483 41.9322C22.3024 41.9829 22.5491 41.8182 22.5998 41.5642C22.7203 40.96 22.7571 40.34 22.709 39.7215L22.6819 39.3713C22.4831 36.8083 22.8993 34.1989 23.8856 31.825C24.8719 29.4511 26.4273 27.315 28.3838 25.6476L29.2309 24.9256L29.1167 27.4931C29.1149 27.5328 29.1161 27.572 29.1189 27.6108C29.1185 27.6127 29.1179 27.6145 29.1176 27.6164C29.0548 27.9501 28.9557 28.2304 28.8191 28.4622L28.2356 29.0457C28.0195 29.169 27.7651 29.2489 27.4692 29.2871C27.2125 29.3203 27.0312 29.5553 27.0644 29.8121C27.095 30.0484 27.2966 30.2208 27.5287 30.2208C27.5487 30.2208 27.569 30.2195 27.5894 30.2169C28.6783 30.0761 29.4423 29.4926 29.8318 28.5158C29.9094 28.5407 29.9905 28.5577 30.075 28.5633C30.6137 28.5987 31.4801 28.6566 32.3439 28.7145C33.7287 28.8074 34.8639 29.8737 35.0434 31.2498L35.1824 32.3151C35.2468 32.8088 35.6545 33.1845 36.1517 33.2085L37.3297 33.2655C37.6448 33.2807 37.9303 33.437 38.113 33.6942C38.2957 33.9514 38.3493 34.2725 38.2599 34.5751L37.7299 36.3694C37.5269 37.0564 36.9354 37.5495 36.2231 37.6255L32.4945 38.0232C31.9635 38.0798 31.4997 38.3968 31.2538 38.8711C31.0086 39.3439 31.0167 39.9038 31.2756 40.3689C31.3096 40.43 31.3431 40.4911 31.3762 40.5524C31.5688 40.9093 31.7494 41.2816 31.9128 41.6588C31.9894 41.8357 32.1619 41.9414 32.3431 41.9414C32.4053 41.9414 32.4686 41.929 32.5292 41.9027C32.7668 41.7998 32.8759 41.5238 32.773 41.2862C32.599 40.8843 32.4065 40.4876 32.2012 40.1071C32.1662 40.0422 32.1306 39.9773 32.0946 39.9127C31.9877 39.7207 31.9847 39.4983 32.0861 39.3026C32.1883 39.1055 32.3734 38.9789 32.5939 38.9554L36.3225 38.5577C37.4129 38.4414 38.3182 37.6867 38.6289 36.635L39.159 34.8407C39.3304 34.2603 39.2277 33.6446 38.8773 33.1513C38.5269 32.658 37.9793 32.3583 37.375 32.3291L36.1969 32.2721C36.1533 32.27 36.1176 32.237 36.112 32.1938L35.973 31.1285C35.736 29.3105 34.2361 27.9019 32.4067 27.7791C31.5424 27.7211 30.6755 27.6632 30.1364 27.6278C30.0876 27.6246 30.0511 27.5838 30.0533 27.5348L30.0616 27.3482C30.1103 27.3045 30.1508 27.2502 30.1785 27.1863C30.907 25.505 31.6702 24.2291 32.5084 23.2925L39.9556 22.1422C41.1063 21.9644 41.9415 20.9902 41.9415 19.8259V17.2941C41.9415 16.9179 41.7949 16.5644 41.5286 16.2987ZM38.6703 17.5617C38.5719 17.531 38.5058 17.4411 38.5058 17.338V16.8295L40.5343 16.8253C40.6593 16.8253 40.7779 16.874 40.8664 16.9623C40.9552 17.0509 41.004 17.1687 41.004 17.2941V18.291L38.6703 17.5617Z" fill="#1C2B54"/>
<path d="M32.0977 32.5664C32.486 32.5664 32.8008 32.2516 32.8008 31.8633C32.8008 31.475 32.486 31.1602 32.0977 31.1602C31.7093 31.1602 31.3945 31.475 31.3945 31.8633C31.3945 32.2516 31.7093 32.5664 32.0977 32.5664Z" fill="#1C2B54"/>
</g>
</g>
<defs>
<clipPath id="clip0_540_9647">
<rect width="30" height="30" fill="white" transform="translate(12 12)"/>
</clipPath>
</defs>
</svg>
