<svg width="67" height="48" viewBox="0 0 67 48" fill="none" xmlns="http://www.w3.org/2000/svg">
<path d="M8.24365 13.0322V34.0322H14.6358V27.2546H20.4475V21.5086H14.6358V18.7601H21.7622L21.3752 13.0322H8.24365Z" fill="#E0E0E0"/>
<path d="M32.0173 13.0322C26.1672 13.0322 21.4575 17.7153 21.4575 23.5323C21.4575 29.3493 26.1672 34.0322 32.0173 34.0322C37.8674 34.0322 42.577 29.3493 42.577 23.5323C42.577 17.7153 37.8674 13.0322 32.0173 13.0322ZM32.0173 17.357C33.0051 17.357 33.8002 18.1476 33.8002 19.1298V27.9346C33.8002 28.9168 33.0051 29.7075 32.0173 29.7075C31.0295 29.7075 30.2343 28.9168 30.2343 27.9346V19.1298C30.2343 18.1476 31.0295 17.357 32.0173 17.357Z" fill="#E0E0E0"/>
<path d="M39.4097 13.0322L45.4015 23.5322L39.4097 34.0322H46.2601L48.8267 29.5344L51.3934 34.0322H58.2438L52.252 23.5322L58.2438 13.0322H51.3934L48.8267 17.53L46.2602 13.0322H39.4097Z" fill="#E0E0E0"/>
</svg>
