<svg width="85" height="85" viewBox="0 0 85 85" fill="none" xmlns="http://www.w3.org/2000/svg">
<path d="M0 42.5C0 19.0279 19.0279 0 42.5 0C65.9721 0 85 19.0279 85 42.5C85 65.9721 65.9721 85 42.5 85C19.0279 85 0 65.9721 0 42.5Z" fill="#F6F6F9"/>
<path d="M41.4051 33.6023H36.5443L37.6563 26.9383C37.7491 26.3767 37.4395 25.8535 36.9011 25.6655C36.3627 25.4775 35.7939 25.6943 35.5179 26.1919L28.7907 38.2895C28.5907 38.6495 28.5963 39.0759 28.8051 39.4311C29.0139 39.7863 29.3843 39.9975 29.7955 39.9975H34.6563L33.5443 46.6615C33.4515 47.2231 33.7611 47.7463 34.2995 47.9343C34.4291 47.9799 34.5603 48.0015 34.6891 48.0015C35.0947 48.0015 35.4723 47.7847 35.6827 47.4071L42.4099 35.3103C42.6099 34.9503 42.6043 34.5239 42.3955 34.1687C42.1867 33.8135 41.8163 33.6023 41.4051 33.6023ZM35.5507 44.3527L36.3891 39.3303C36.4283 39.0983 36.3627 38.8607 36.2099 38.6807C36.0587 38.5007 35.8347 38.3975 35.5995 38.3975H30.5595L35.6483 29.2471L34.8099 34.2695C34.7707 34.5015 34.8363 34.7391 34.9891 34.9191C35.1403 35.0991 35.3643 35.2023 35.5995 35.2023H40.6395L35.5507 44.3527Z" fill="#1C2B54"/>
<path d="M61.1998 29.6V25.6C61.1998 25.0104 60.8758 24.5 60.3998 24.2224V21.6C60.3998 20.7176 59.6822 20 58.7998 20H57.1998C56.3174 20 55.5998 20.7176 55.5998 21.6V24.2224C55.1238 24.5 54.7998 25.0104 54.7998 25.6V29.6C54.7998 30.9232 55.8766 32 57.1998 32V59.2C57.1998 63.1704 53.9702 66.4 49.9998 66.4H43.5998C39.6294 66.4 36.3998 63.1704 36.3998 59.2V56.8C37.2822 56.8 37.9998 56.0824 37.9998 55.2V53.6H44.3998C46.6054 53.6 48.3998 51.8056 48.3998 49.6V24C48.3998 21.7944 46.6054 20 44.3998 20H26.7998C24.5942 20 22.7998 21.7944 22.7998 24V49.6C22.7998 51.8056 24.5942 53.6 26.7998 53.6H33.1998V55.2C33.1998 56.0824 33.9174 56.8 34.7998 56.8V59.2C34.7998 64.052 38.7478 68 43.5998 68H49.9998C54.8518 68 58.7998 64.052 58.7998 59.2V32C60.123 32 61.1998 30.9232 61.1998 29.6ZM24.3998 49.6V24C24.3998 22.6768 25.4766 21.6 26.7998 21.6H44.3998C45.723 21.6 46.7998 22.6768 46.7998 24V49.6C46.7998 50.9232 45.723 52 44.3998 52H26.7998C25.4766 52 24.3998 50.9232 24.3998 49.6ZM36.3998 53.6V55.2H34.7998V53.6H36.3998ZM57.1998 21.6H58.7998V24H57.1998V21.6ZM59.5998 29.6C59.5998 30.0416 59.2414 30.4 58.7998 30.4H57.1998C56.7582 30.4 56.3998 30.0416 56.3998 29.6V25.6H59.5998V29.6Z" fill="#1C2B54"/>
</svg>
