<svg width="85" height="85" viewBox="0 0 85 85" fill="none" xmlns="http://www.w3.org/2000/svg">
<path d="M0 42.5C0 19.0279 19.0279 0 42.5 0C65.9721 0 85 19.0279 85 42.5C85 65.9721 65.9721 85 42.5 85C19.0279 85 0 65.9721 0 42.5Z" fill="#F6F6F9"/>
<path d="M61.9999 24.375H22.0001C19.7919 24.3776 18.0026 26.1669 18 28.3751V55.5751C18.0026 57.783 19.7919 59.5723 22.0001 59.5748H61.9999C64.2081 59.5723 65.9974 57.783 66 55.5751V28.3751C65.9974 26.1669 64.2081 24.3776 61.9999 24.375ZM64.4 55.5751C64.4 56.9004 63.3256 57.9749 61.9999 57.9749H22.0001C20.6744 57.9749 19.6 56.9004 19.6 55.5751V28.3751C19.6 27.0494 20.6744 25.975 22.0001 25.975H61.9999C63.3256 25.975 64.4 27.0494 64.4 28.3751V55.5751Z" fill="#1C2B54"/>
<path d="M22.0004 34.775C22.442 34.775 22.8002 34.4169 22.8002 33.9749V29.9751C22.8002 29.9198 22.806 29.8649 22.817 29.811C22.8273 29.7609 22.8426 29.7118 22.8628 29.6646C22.8833 29.6158 22.9089 29.5693 22.9386 29.5254C22.9675 29.4825 23.0008 29.4426 23.0378 29.4064C23.0737 29.3708 23.1129 29.3386 23.1547 29.3101C23.1979 29.2815 23.2436 29.257 23.2916 29.2365C23.3378 29.217 23.3861 29.202 23.4355 29.1918C23.4897 29.1804 23.545 29.1749 23.6003 29.1749H27.6001C28.0421 29.1749 28.4003 28.8168 28.4003 28.3751C28.4003 27.9331 28.0421 27.575 27.6001 27.575H23.6003C23.4377 27.5753 23.2755 27.5914 23.1162 27.6237C22.962 27.6555 22.8112 27.7028 22.6658 27.7639C22.2384 27.9452 21.8726 28.2466 21.6122 28.6311C21.5247 28.7596 21.4499 28.8966 21.3892 29.0398C21.3284 29.1844 21.2819 29.3342 21.25 29.4877C21.2167 29.6481 21.2002 29.8114 21.2002 29.9751V33.9749C21.2002 34.4169 21.5583 34.775 22.0004 34.775Z" fill="#1C2B54"/>
<path d="M27.6001 54.7748H23.6004C23.4934 54.7751 23.3876 54.7541 23.2891 54.7127C23.2415 54.6922 23.1961 54.6671 23.1532 54.6382C23.11 54.6089 23.0697 54.5756 23.0331 54.5389C22.9968 54.5027 22.9642 54.4631 22.9353 54.4207C22.9071 54.3778 22.8826 54.3324 22.8628 54.2852C22.8419 54.2368 22.8265 54.1866 22.8163 54.135C22.8053 54.0823 22.7998 54.0288 22.8002 53.975V49.9749C22.8002 49.5332 22.442 49.175 22.0004 49.175C21.5584 49.175 21.2002 49.5332 21.2002 49.9749V53.975C21.1998 54.1361 21.2163 54.297 21.2489 54.4548C21.3108 54.7624 21.4331 55.0547 21.6089 55.3144C21.8696 55.6997 22.2359 56.0016 22.6636 56.1843C22.9598 56.3103 23.2785 56.3753 23.6004 56.375H27.6001C28.0421 56.375 28.4003 56.0167 28.4003 55.5751C28.4003 55.133 28.0421 54.7748 27.6001 54.7748Z" fill="#1C2B54"/>
<path d="M61.9995 49.175C61.5579 49.175 61.1997 49.5332 61.1997 49.9749V53.975C61.1993 54.0288 61.1935 54.0823 61.1829 54.135C61.1726 54.1852 61.1572 54.2344 61.1371 54.2812C61.1166 54.3303 61.0909 54.3767 61.0613 54.4207C61.0323 54.4635 60.999 54.5034 60.962 54.5397C60.9261 54.5752 60.887 54.6072 60.8452 54.6357C60.802 54.6647 60.7562 54.6893 60.7083 54.7094C60.6621 54.7292 60.6138 54.744 60.5643 54.7539C60.5105 54.7667 60.4552 54.7737 60.3995 54.7748H56.3998C55.9578 54.7748 55.5996 55.133 55.5996 55.5751C55.5996 56.0167 55.9578 56.375 56.3998 56.375H60.3995C60.5607 56.3746 60.7218 56.3583 60.8796 56.326C61.0338 56.2943 61.1847 56.2473 61.3301 56.1862C61.7574 56.0045 62.1233 55.7035 62.3837 55.319C62.4712 55.1901 62.5459 55.0532 62.6067 54.91C62.6675 54.7657 62.714 54.6157 62.7462 54.4622C62.7806 54.3022 62.7986 54.1387 62.7997 53.975V49.9749C62.7997 49.5332 62.4415 49.175 61.9995 49.175Z" fill="#1C2B54"/>
<path d="M62.6107 29.0398C62.5507 28.8981 62.4767 28.7626 62.391 28.6351C62.1302 28.2495 61.764 27.9474 61.3363 27.7647C61.04 27.639 60.7214 27.5746 60.3995 27.575H56.3998C55.9578 27.575 55.5996 27.9331 55.5996 28.3751C55.5996 28.8168 55.9578 29.1749 56.3998 29.1749H60.3995C60.5065 29.1749 60.6123 29.1962 60.7108 29.2376C60.7584 29.2577 60.8038 29.2826 60.8467 29.3119C60.8899 29.3412 60.9302 29.3741 60.9668 29.4111C61.0031 29.4474 61.0356 29.4869 61.0646 29.5294C61.0928 29.5719 61.1173 29.6173 61.1371 29.6646C61.158 29.7136 61.1737 29.7649 61.1836 29.8173C61.1942 29.8693 61.1997 29.922 61.1997 29.9751V33.9749C61.1997 34.4169 61.5579 34.775 61.9995 34.775C62.4415 34.775 62.7997 34.4169 62.7997 33.9749V29.9751C62.8 29.8136 62.7836 29.6528 62.751 29.495C62.7195 29.339 62.6722 29.1866 62.6107 29.0398Z" fill="#1C2B54"/>
<path d="M31.6001 47.5748H30.0001V35.5748C30.0001 35.2514 29.8053 34.9599 29.5061 34.8361C29.2073 34.7123 28.8634 34.7805 28.6345 35.0093L26.2344 37.4095C25.9315 37.7233 25.9355 38.2221 26.2443 38.5308C26.553 38.8395 27.0518 38.8436 27.3656 38.5407L28.4001 37.5062V47.5748H26.8002C26.3581 47.5748 26 47.9333 26 48.3749C26 48.8166 26.3581 49.1751 26.8002 49.1751H31.6001C32.0421 49.1751 32.4003 48.8166 32.4003 48.3749C32.4003 47.9333 32.0421 47.5748 31.6001 47.5748Z" fill="#1C2B54"/>
<path d="M37.2 34.7749C35.4326 34.7749 34 36.2075 34 37.9749V45.9747C34 47.7421 35.4326 49.175 37.2 49.175C38.9673 49.175 40.3999 47.7421 40.3999 45.9747V37.9749C40.3999 36.2075 38.9673 34.7749 37.2 34.7749ZM38.7999 45.9747C38.7999 46.8584 38.0836 47.5747 37.2 47.5747C36.3163 47.5747 35.6 46.8584 35.6 45.9747V37.9749C35.6 37.0912 36.3163 36.3749 37.2 36.3749C38.0836 36.3749 38.7999 37.0912 38.7999 37.9749V45.9747Z" fill="#1C2B54"/>
<path d="M57.9999 45.9747V37.9749C57.9999 36.2075 56.5669 34.7749 54.7999 34.7749C53.0326 34.7749 51.5996 36.2075 51.5996 37.9749V45.9747C51.5996 47.7421 53.0326 49.175 54.7999 49.175C56.5669 49.175 57.9999 47.7421 57.9999 45.9747ZM56.3999 45.9747C56.3999 46.8584 55.6836 47.5747 54.7999 47.5747C53.9163 47.5747 53.1996 46.8584 53.1996 45.9747V37.9749C53.1996 37.0912 53.9163 36.3749 54.7999 36.3749C55.6836 36.3749 56.3999 37.0912 56.3999 37.9749V45.9747Z" fill="#1C2B54"/>
<path d="M50.0002 38.7751C50.009 36.8876 48.6976 35.2514 46.8537 34.8485C45.0098 34.4461 43.1356 35.3869 42.357 37.1059C41.5781 38.8249 42.1065 40.8544 43.6252 41.975C42.2351 43.0008 41.6608 44.8029 42.2006 46.4435C42.7408 48.0845 44.273 49.1934 46.0004 49.1934C47.7278 49.1934 49.2601 48.0845 49.7999 46.4435C50.3397 44.8029 49.7654 43.0008 48.3757 41.975C49.3937 41.2261 49.9969 40.0388 50.0002 38.7751ZM48.4002 45.175C48.4002 46.5003 47.3257 47.5747 46.0004 47.5747C44.6747 47.5747 43.6003 46.5003 43.6003 45.175C43.6003 43.8493 44.6747 42.7748 46.0004 42.7748C47.3257 42.7748 48.4002 43.8493 48.4002 45.175ZM46.0004 41.1748C44.6747 41.1748 43.6003 40.1004 43.6003 38.7751C43.6003 37.4494 44.6747 36.3749 46.0004 36.3749C47.3257 36.3749 48.4002 37.4494 48.4002 38.7751C48.4002 40.1004 47.3257 41.1748 46.0004 41.1748Z" fill="#1C2B54"/>
</svg>
