<svg width="85" height="85" viewBox="0 0 85 85" fill="none" xmlns="http://www.w3.org/2000/svg">
<path d="M0 42.5C0 19.0279 19.0279 0 42.5 0C65.9721 0 85 19.0279 85 42.5C85 65.9721 65.9721 85 42.5 85C19.0279 85 0 65.9721 0 42.5Z" fill="#F6F6F9"/>
<path d="M52.0698 53.25C51.9713 53.25 51.8738 53.2694 51.7828 53.307C51.6918 53.3447 51.6091 53.4 51.5394 53.4696C51.4698 53.5393 51.4145 53.622 51.3769 53.713C51.3392 53.804 51.3198 53.9015 51.3198 54V60C51.3194 60.3977 51.1612 60.779 50.88 61.0602C50.5988 61.3414 50.2175 61.4995 49.8198 61.5H30.3945C29.9968 61.4995 29.6156 61.3414 29.3344 61.0602C29.0532 60.779 28.895 60.3977 28.8945 60V24C28.895 23.6023 29.0532 23.221 29.3344 22.9398C29.6156 22.6586 29.9968 22.5005 30.3945 22.5H34.3169L34.896 24.2373C34.9457 24.3866 35.0411 24.5165 35.1688 24.6086C35.2964 24.7006 35.4498 24.7501 35.6072 24.75H44.6072C44.7646 24.7501 44.9179 24.7006 45.0456 24.6086C45.1733 24.5165 45.2687 24.3866 45.3184 24.2373L45.8975 22.5H49.8198C50.2175 22.5005 50.5988 22.6586 50.88 22.9398C51.1612 23.221 51.3194 23.6023 51.3198 24V30C51.3198 30.1989 51.3988 30.3897 51.5395 30.5303C51.6801 30.671 51.8709 30.75 52.0698 30.75C52.2687 30.75 52.4595 30.671 52.6002 30.5303C52.7408 30.3897 52.8198 30.1989 52.8198 30V24C52.819 23.2046 52.5026 22.442 51.9402 21.8796C51.3778 21.3172 50.6152 21.0009 49.8198 21H30.3945C29.5991 21.0009 28.8366 21.3172 28.2741 21.8796C27.7117 22.442 27.3954 23.2046 27.3945 24V60C27.3954 60.7954 27.7117 61.558 28.2741 62.1204C28.8366 62.6828 29.5991 62.9992 30.3945 63H49.8198C50.6152 62.9992 51.3778 62.6828 51.9402 62.1204C52.5026 61.558 52.819 60.7954 52.8198 60V54C52.8199 53.9015 52.8005 53.804 52.7628 53.713C52.7251 53.622 52.6699 53.5393 52.6002 53.4696C52.5306 53.4 52.4479 53.3447 52.3569 53.307C52.2659 53.2694 52.1683 53.25 52.0698 53.25ZM44.3168 22.5L44.0666 23.25H36.1477L35.8976 22.5H44.3168Z" fill="#1C2B54"/>
<path d="M37.1055 58.5C36.9066 58.5 36.7158 58.579 36.5751 58.7197C36.4345 58.8603 36.3555 59.0511 36.3555 59.25C36.3555 59.4489 36.4345 59.6397 36.5751 59.7803C36.7158 59.921 36.9066 60 37.1055 60H43.1055C43.3044 60 43.4951 59.921 43.6358 59.7803C43.7765 59.6397 43.8555 59.4489 43.8555 59.25C43.8555 59.0511 43.7765 58.8603 43.6358 58.7197C43.4951 58.579 43.3044 58.5 43.1055 58.5H37.1055Z" fill="#1C2B54"/>
<path d="M46.3201 34.5C46.3194 33.9035 46.0822 33.3315 45.6603 32.9097C45.2385 32.4879 44.6666 32.2507 44.0701 32.25H39.3555C38.7589 32.2507 38.187 32.4879 37.7652 32.9097C37.3434 33.3315 37.1061 33.9035 37.1055 34.5V39.2142C37.1061 39.8108 37.3434 40.3827 37.7652 40.8045C38.187 41.2263 38.7589 41.4636 39.3555 41.4642H44.0701C44.6666 41.4636 45.2385 41.2263 45.6603 40.8045C46.0822 40.3827 46.3194 39.8108 46.3201 39.2142V34.5ZM44.8201 39.2142C44.8199 39.4131 44.7408 39.6037 44.6002 39.7443C44.4596 39.885 44.2689 39.964 44.0701 39.9642H39.3555C39.1566 39.964 38.966 39.885 38.8254 39.7443C38.6847 39.6037 38.6057 39.4131 38.6055 39.2142V34.5C38.6057 34.3011 38.6847 34.1105 38.8254 33.9699C38.966 33.8293 39.1566 33.7502 39.3555 33.75H44.0701C44.2689 33.7502 44.4596 33.8293 44.6002 33.9699C44.7408 34.1105 44.8199 34.3011 44.8201 34.5V39.2142Z" fill="#1C2B54"/>
<path d="M54.3572 32.25H49.6426C49.046 32.2507 48.4741 32.4879 48.0523 32.9097C47.6305 33.3315 47.3932 33.9035 47.3926 34.5V39.2142C47.3932 39.8108 47.6305 40.3827 48.0523 40.8045C48.4741 41.2263 49.046 41.4636 49.6426 41.4642H54.3572C54.9537 41.4636 55.5256 41.2263 55.9474 40.8045C56.3692 40.3827 56.6065 39.8108 56.6072 39.2142V34.5C56.6065 33.9035 56.3692 33.3315 55.9474 32.9097C55.5256 32.4879 54.9537 32.2507 54.3572 32.25ZM55.1072 39.2142C55.107 39.4131 55.0279 39.6037 54.8873 39.7443C54.7467 39.885 54.556 39.964 54.3572 39.9642H49.6426C49.4437 39.964 49.2531 39.885 49.1125 39.7443C48.9719 39.6037 48.8928 39.4131 48.8926 39.2142V34.5C48.8928 34.3011 48.9719 34.1105 49.1125 33.9699C49.2531 33.8293 49.4437 33.7502 49.6426 33.75H54.3572C54.556 33.7502 54.7467 33.8293 54.8873 33.9699C55.0279 34.1105 55.107 34.3011 55.1072 34.5V39.2142Z" fill="#1C2B54"/>
<path d="M46.3201 49.5001V44.7859C46.3194 44.1893 46.0822 43.6174 45.6603 43.1956C45.2385 42.7738 44.6666 42.5365 44.0701 42.5359H39.3555C38.7589 42.5365 38.187 42.7738 37.7652 43.1956C37.3434 43.6174 37.1061 44.1893 37.1055 44.7859V49.5001C37.1061 50.0966 37.3434 50.6686 37.7652 51.0904C38.187 51.5122 38.7589 51.7494 39.3555 51.7501H44.0701C44.6666 51.7494 45.2385 51.5122 45.6603 51.0904C46.0822 50.6686 46.3194 50.0966 46.3201 49.5001ZM38.6055 49.5001V44.7859C38.6057 44.587 38.6847 44.3964 38.8254 44.2558C38.966 44.1151 39.1566 44.0361 39.3555 44.0359H44.0701C44.2689 44.0361 44.4596 44.1151 44.6002 44.2558C44.7408 44.3964 44.8199 44.587 44.8201 44.7859V49.5001C44.8199 49.6989 44.7408 49.8896 44.6002 50.0302C44.4596 50.1708 44.2689 50.2499 44.0701 50.2501H39.3555C39.1566 50.2499 38.966 50.1708 38.8254 50.0302C38.6847 49.8896 38.6057 49.6989 38.6055 49.5001Z" fill="#1C2B54"/>
<path d="M54.3572 42.5359H49.6426C49.046 42.5365 48.4741 42.7738 48.0523 43.1956C47.6305 43.6174 47.3932 44.1893 47.3926 44.7859V49.5001C47.3932 50.0966 47.6305 50.6686 48.0523 51.0904C48.4741 51.5122 49.046 51.7494 49.6426 51.7501H54.3572C54.9537 51.7494 55.5256 51.5122 55.9474 51.0904C56.3692 50.6686 56.6065 50.0966 56.6072 49.5001V44.7859C56.6065 44.1893 56.3692 43.6174 55.9474 43.1956C55.5256 42.7738 54.9537 42.5365 54.3572 42.5359ZM55.1072 49.5001C55.107 49.6989 55.0279 49.8896 54.8873 50.0302C54.7467 50.1708 54.556 50.2499 54.3572 50.2501H49.6426C49.4437 50.2499 49.2531 50.1708 49.1125 50.0302C48.9719 49.8896 48.8928 49.6989 48.8926 49.5001V44.7859C48.8928 44.587 48.9719 44.3964 49.1125 44.2558C49.2531 44.1151 49.4437 44.0361 49.6426 44.0359H54.3572C54.556 44.0361 54.7467 44.1151 54.8873 44.2558C55.0279 44.3964 55.107 44.587 55.1072 44.7859V49.5001Z" fill="#1C2B54"/>
</svg>
