<svg width="85" height="85" viewBox="0 0 85 85" fill="none" xmlns="http://www.w3.org/2000/svg">
<path d="M0 42.5C0 19.0279 19.0279 0 42.5 0C65.9721 0 85 19.0279 85 42.5C85 65.9721 65.9721 85 42.5 85C19.0279 85 0 65.9721 0 42.5Z" fill="#F6F6F9"/>
<path d="M55.8877 42.1448C55.1451 41.7041 54.2582 41.575 53.4208 41.7858C52.5833 41.9966 51.8632 42.5301 51.4177 43.2698L50.0002 45.5198V29.9761C50.0141 29.2219 49.7501 28.489 49.2584 27.9171C48.7666 27.3451 48.0816 26.9741 47.334 26.8748C46.6656 26.7997 45.9915 26.953 45.4215 27.3098C45.2674 26.6506 44.8949 26.063 44.3645 25.6423C43.8342 25.2216 43.1771 24.9927 42.5002 24.9927C41.8233 24.9927 41.1662 25.2216 40.6359 25.6423C40.1055 26.063 39.733 26.6506 39.579 27.3098C39.0089 26.953 38.3348 26.7997 37.6665 26.8748C36.9188 26.9741 36.2338 27.3451 35.742 27.9171C35.2503 28.489 34.9863 29.2219 35.0002 29.9761V32.5298C34.4334 32.2021 33.7744 32.0703 33.1252 32.1548C32.3902 32.2611 31.7188 32.6308 31.236 33.195C30.7531 33.7593 30.4916 34.4797 30.5002 35.2223V53.8748C30.5002 56.4098 31.3927 57.6923 32.184 58.8286C32.889 59.8448 33.5002 60.7036 33.5002 62.4998V66.2498C33.5002 66.4487 33.5792 66.6395 33.7199 66.7801C33.8605 66.9208 34.0513 66.9998 34.2502 66.9998C34.4491 66.9998 34.6399 66.9208 34.7805 66.7801C34.9212 66.6395 35.0002 66.4487 35.0002 66.2498V62.4998C35.0002 60.2498 34.1565 59.0386 33.414 57.9698C32.6715 56.9011 32.0002 55.9373 32.0002 53.8748V35.1923C31.9935 34.7962 32.1392 34.4127 32.4072 34.121C32.6752 33.8293 33.045 33.6517 33.4402 33.6248C33.6422 33.6167 33.8437 33.6495 34.0327 33.7213C34.2216 33.7931 34.3942 33.9023 34.5399 34.0424C34.6856 34.1825 34.8015 34.3506 34.8806 34.5366C34.9597 34.7226 35.0004 34.9227 35.0002 35.1248V44.4586C34.993 44.6429 35.0517 44.8238 35.1658 44.9688C35.2799 45.1138 35.4418 45.2134 35.6227 45.2498C35.7313 45.2686 35.8427 45.2631 35.949 45.2339C36.0553 45.2047 36.1538 45.1525 36.2376 45.0809C36.3214 45.0093 36.3883 44.9201 36.4337 44.8196C36.4791 44.7192 36.5018 44.61 36.5002 44.4998V29.9423C36.4935 29.5462 36.6392 29.1627 36.9072 28.871C37.1752 28.5793 37.545 28.4017 37.9402 28.3748C38.1422 28.3667 38.3437 28.3995 38.5327 28.4713C38.7216 28.5431 38.8942 28.6523 39.0399 28.7924C39.1856 28.9325 39.3015 29.1006 39.3806 29.2866C39.4597 29.4726 39.5004 29.6727 39.5002 29.8748V43.7086C39.493 43.8929 39.5517 44.0738 39.6658 44.2188C39.7799 44.3638 39.9418 44.4634 40.1227 44.4998C40.2313 44.5186 40.3427 44.5131 40.449 44.4839C40.5553 44.4547 40.6538 44.4025 40.7376 44.3309C40.8214 44.2593 40.8883 44.1701 40.9337 44.0696C40.9791 43.9692 41.0018 43.86 41.0002 43.7498V28.0673C40.9935 27.6712 41.1392 27.2877 41.4072 26.996C41.6752 26.7043 42.045 26.5267 42.4402 26.4998C42.6422 26.4917 42.8437 26.5245 43.0327 26.5963C43.2216 26.6681 43.3942 26.7773 43.5399 26.9174C43.6856 27.0575 43.8015 27.2256 43.8806 27.4116C43.9597 27.5976 44.0004 27.7977 44.0002 27.9998V43.7086C43.993 43.8929 44.0517 44.0738 44.1658 44.2188C44.2799 44.3638 44.4418 44.4634 44.6227 44.4998C44.7313 44.5186 44.8427 44.5131 44.949 44.4839C45.0553 44.4547 45.1538 44.4025 45.2376 44.3309C45.3214 44.2593 45.3883 44.1701 45.4337 44.0696C45.4791 43.9692 45.5018 43.86 45.5002 43.7498V29.9423C45.4935 29.5462 45.6392 29.1627 45.9072 28.871C46.1752 28.5793 46.545 28.4017 46.9402 28.3748C47.1422 28.3667 47.3437 28.3995 47.5327 28.4713C47.7216 28.5431 47.8942 28.6523 48.0399 28.7924C48.1856 28.9325 48.3015 29.1006 48.3806 29.2866C48.4597 29.4726 48.5004 29.6727 48.5002 29.8748V47.8748L48.3765 48.0736C44.4802 48.3436 41.0002 51.2498 41.0002 55.7498C41.0141 55.9441 41.0976 56.1269 41.2354 56.2646C41.3731 56.4024 41.5559 56.4859 41.7502 56.4998C41.8509 56.5084 41.9522 56.4948 42.047 56.4602C42.1419 56.4255 42.2281 56.3705 42.2995 56.2991C42.3709 56.2277 42.4259 56.1415 42.4606 56.0466C42.4952 55.9518 42.5088 55.8505 42.5002 55.7498C42.5002 52.3748 45.4477 49.5586 48.8152 49.5661C48.9385 49.563 49.0591 49.5295 49.1664 49.4687C49.2736 49.4079 49.3643 49.3215 49.4302 49.2173L52.7002 44.0648C52.9479 43.67 53.3374 43.3851 53.7886 43.2686C54.2399 43.1521 54.7187 43.2129 55.1265 43.4386C55.5193 43.6907 55.802 44.0824 55.9176 44.5348C56.0331 44.9871 55.9728 45.4664 55.749 45.8761L48.5977 58.3748C48.5329 58.4891 48.4993 58.6184 48.5002 58.7498V66.2086C48.493 66.3929 48.5517 66.5738 48.6658 66.7188C48.7799 66.8638 48.9418 66.9634 49.1227 66.9998C49.2313 67.0186 49.3427 67.0131 49.449 66.9839C49.5553 66.9547 49.6538 66.9025 49.7376 66.8309C49.8214 66.7593 49.8883 66.6701 49.9337 66.5696C49.9791 66.4692 50.0018 66.36 50.0002 66.2498V58.9486L57.0465 46.6261C57.999 44.9461 57.549 43.1236 55.8877 42.1448Z" fill="#1C2B54"/>
<path d="M24.9124 36.8986C24.2854 36.2718 23.788 35.5276 23.4486 34.7085C23.1092 33.8894 22.9346 33.0115 22.9346 32.1249C22.9346 31.2383 23.1092 30.3604 23.4486 29.5413C23.788 28.7222 24.2854 27.978 24.9124 27.3511C24.9821 27.2815 25.0648 27.2262 25.1558 27.1885C25.2469 27.1508 25.3445 27.1313 25.443 27.1313C25.5416 27.1313 25.6391 27.1508 25.7302 27.1885C25.8212 27.2262 25.904 27.2815 25.9736 27.3511C26.0433 27.4208 26.0986 27.5035 26.1363 27.5946C26.174 27.6856 26.1934 27.7832 26.1934 27.8818C26.1934 27.9803 26.174 28.0779 26.1363 28.1689C26.0986 28.26 26.0433 28.3427 25.9736 28.4124C25.4861 28.8999 25.0993 29.4787 24.8354 30.1157C24.5716 30.7527 24.4358 31.4354 24.4358 32.1249C24.4358 32.8144 24.5716 33.4971 24.8354 34.1341C25.0993 34.7711 25.4861 35.3499 25.9736 35.8374C26.1144 35.9781 26.1934 36.169 26.1934 36.368C26.1934 36.567 26.1144 36.7579 25.9736 36.8986C25.8329 37.0394 25.642 37.1184 25.443 37.1184C25.244 37.1184 25.0531 37.0394 24.9124 36.8986Z" fill="#1C2B54"/>
<path d="M27.0354 34.7762C26.3324 34.073 25.9375 33.1193 25.9375 32.1249C25.9375 31.1306 26.3324 30.1769 27.0354 29.4737C27.1762 29.333 27.3671 29.2539 27.5661 29.2539C27.7651 29.2539 27.956 29.333 28.0967 29.4737C28.2374 29.6144 28.3165 29.8053 28.3165 30.0043C28.3165 30.2033 28.2374 30.3942 28.0967 30.5349C27.8875 30.7439 27.7215 30.9921 27.6083 31.2652C27.4951 31.5383 27.4368 31.8311 27.4368 32.1268C27.4368 32.4225 27.4951 32.7153 27.6083 32.9884C27.7215 33.2616 27.8875 33.5097 28.0967 33.7187C28.2374 33.8594 28.3165 34.0503 28.3165 34.2493C28.3165 34.4483 28.2374 34.6392 28.0967 34.7799C27.956 34.9207 27.7651 34.9997 27.5661 34.9997C27.3671 34.9997 27.1762 34.9207 27.0354 34.7799V34.7762Z" fill="#1C2B54"/>
<path d="M22.7904 39.0173C21.885 38.112 21.1668 37.0371 20.6768 35.8542C20.1868 34.6712 19.9346 33.4034 19.9346 32.123C19.9346 30.8425 20.1868 29.5747 20.6768 28.3917C21.1668 27.2088 21.885 26.134 22.7904 25.2286C22.8601 25.1589 22.9428 25.1036 23.0338 25.0659C23.1249 25.0282 23.2224 25.0088 23.321 25.0088C23.4195 25.0088 23.5171 25.0282 23.6082 25.0659C23.6992 25.1036 23.7819 25.1589 23.8516 25.2286C23.9213 25.2983 23.9766 25.381 24.0143 25.472C24.052 25.5631 24.0714 25.6607 24.0714 25.7592C24.0714 25.8577 24.052 25.9553 24.0143 26.0464C23.9766 26.1374 23.9213 26.2201 23.8516 26.2898C22.3048 27.837 21.4358 29.9352 21.4358 32.123C21.4358 34.3107 22.3048 36.4089 23.8516 37.9561C23.9923 38.0968 24.0714 38.2877 24.0714 38.4867C24.0714 38.6857 23.9923 38.8766 23.8516 39.0173C23.7109 39.1581 23.52 39.2371 23.321 39.2371C23.122 39.2371 22.9311 39.1581 22.7904 39.0173Z" fill="#1C2B54"/>
<path d="M56.0266 36.8986C55.9569 36.829 55.9016 36.7463 55.8638 36.6552C55.8261 36.5642 55.8066 36.4666 55.8066 36.368C55.8066 36.2695 55.8261 36.1719 55.8638 36.0808C55.9016 35.9898 55.9569 35.907 56.0266 35.8374C56.5142 35.3499 56.9009 34.7711 57.1648 34.1341C57.4287 33.4971 57.5645 32.8144 57.5645 32.1249C57.5645 31.4354 57.4287 30.7527 57.1648 30.1157C56.9009 29.4787 56.5142 28.8999 56.0266 28.4124C55.9569 28.3427 55.9016 28.26 55.8639 28.1689C55.8262 28.0779 55.8068 27.9803 55.8068 27.8818C55.8068 27.7832 55.8262 27.6856 55.8639 27.5946C55.9016 27.5035 55.9569 27.4208 56.0266 27.3511C56.0963 27.2815 56.179 27.2262 56.2701 27.1885C56.3611 27.1508 56.4587 27.1313 56.5572 27.1313C56.6558 27.1313 56.7534 27.1508 56.8444 27.1885C56.9354 27.2262 57.0182 27.2815 57.0879 27.3511C57.7149 27.978 58.2123 28.7222 58.5516 29.5413C58.891 30.3604 59.0657 31.2383 59.0657 32.1249C59.0657 33.0115 58.891 33.8894 58.5516 34.7085C58.2123 35.5276 57.7149 36.2718 57.0879 36.8986C57.0182 36.9684 56.9355 37.0237 56.8444 37.0614C56.7534 37.0992 56.6558 37.1186 56.5572 37.1186C56.4587 37.1186 56.3611 37.0992 56.27 37.0614C56.179 37.0237 56.0963 36.9684 56.0266 36.8986Z" fill="#1C2B54"/>
<path d="M53.9036 34.776C53.8338 34.7064 53.7785 34.6237 53.7408 34.5326C53.703 34.4416 53.6836 34.344 53.6836 34.2454C53.6836 34.1469 53.703 34.0493 53.7408 33.9582C53.7785 33.8672 53.8338 33.7844 53.9036 33.7148C54.1128 33.5058 54.2787 33.2577 54.3919 32.9845C54.5052 32.7114 54.5635 32.4186 54.5635 32.1229C54.5635 31.8272 54.5052 31.5345 54.3919 31.2613C54.2787 30.9882 54.1128 30.74 53.9036 30.531C53.7628 30.3903 53.6838 30.1994 53.6838 30.0004C53.6838 29.8014 53.7628 29.6105 53.9036 29.4698C54.0443 29.3291 54.2352 29.25 54.4342 29.25C54.6332 29.25 54.8241 29.3291 54.9648 29.4698C55.6678 30.173 56.0628 31.1267 56.0628 32.121C56.0628 33.1154 55.6678 34.0691 54.9648 34.7723C54.8954 34.8423 54.8129 34.8979 54.722 34.9359C54.631 34.974 54.5335 34.9938 54.435 34.9941C54.3364 34.9945 54.2387 34.9754 54.1476 34.938C54.0564 34.9006 53.9735 34.8455 53.9036 34.776Z" fill="#1C2B54"/>
<path d="M58.1487 39.0173C58.0789 38.9477 58.0236 38.865 57.9859 38.7739C57.9481 38.6829 57.9287 38.5853 57.9287 38.4867C57.9287 38.3881 57.9481 38.2905 57.9859 38.1995C58.0236 38.1085 58.0789 38.0257 58.1487 37.9561C59.6955 36.4089 60.5645 34.3107 60.5645 32.123C60.5645 29.9352 59.6955 27.837 58.1487 26.2898C58.0079 26.1491 57.9289 25.9582 57.9289 25.7592C57.9289 25.5602 58.0079 25.3693 58.1487 25.2286C58.2894 25.0878 58.4803 25.0088 58.6793 25.0088C58.8783 25.0088 59.0692 25.0878 59.2099 25.2286C60.1153 26.134 60.8335 27.2088 61.3235 28.3917C61.8135 29.5747 62.0657 30.8425 62.0657 32.123C62.0657 33.4034 61.8135 34.6712 61.3235 35.8542C60.8335 37.0371 60.1153 38.112 59.2099 39.0173C59.1403 39.0871 59.0576 39.1424 58.9665 39.1801C58.8755 39.2179 58.7779 39.2373 58.6793 39.2373C58.5807 39.2373 58.4831 39.2179 58.3921 39.1801C58.301 39.1424 58.2183 39.0871 58.1487 39.0173Z" fill="#1C2B54"/>
</svg>
