<?xml version="1.0" encoding="utf-8"?>
<!-- Generator: Adobe Illustrator 27.0.0, SVG Export Plug-In . SVG Version: 6.00 Build 0)  -->
<svg version="1.1" id="Layer_1" xmlns="http://www.w3.org/2000/svg" xmlns:xlink="http://www.w3.org/1999/xlink" x="0px" y="0px"
	 viewBox="0 0 348.8 85.5" style="enable-background:new 0 0 348.8 85.5;" xml:space="preserve">
<style type="text/css">
	.st0{fill:#FFFFFF;}
	.st1{fill:#0ED13D;}
</style>
<path class="st0" d="M39.7,82c-5.1,0-9.8-1-14.3-3c-4.5-2-8.4-4.8-11.7-8.3c-3.4-3.5-6-7.7-7.9-12.4s-2.9-9.7-2.9-15.1
	s1-10.4,2.9-15.1s4.5-8.8,7.9-12.4c3.4-3.5,7.3-6.3,11.7-8.3s9.2-3,14.3-3c6.1,0,11.6,1.4,16.7,4.2c5.1,2.8,9.3,6.6,12.7,11.2
	l-9.9,5.3c-2.3-2.9-5.2-5.3-8.6-7c-3.4-1.7-7-2.6-10.9-2.6c-3.6,0-6.9,0.7-10,2.2c-3.1,1.5-5.8,3.5-8.2,6c-2.3,2.5-4.2,5.5-5.5,8.8
	c-1.3,3.3-2,6.9-2,10.7c0,3.8,0.7,7.4,2,10.7c1.3,3.3,3.2,6.3,5.5,8.8c2.4,2.5,5.1,4.5,8.2,6c3.1,1.4,6.4,2.2,9.9,2.2
	c3.9,0,7.6-0.9,11-2.6c3.4-1.8,6.2-4.1,8.5-7l9.9,5.4c-3.3,4.7-7.6,8.4-12.7,11.2C51.3,80.6,45.7,82,39.7,82z"/>
<path class="st0" d="M79.5,80.6V5.9h11.1v63.7h32.2v11.1H79.5z"/>
<path class="st0" d="M197.8,80.6V5.9h11.1v74.8H197.8z"/>
<path class="st0" d="M223.4,80.6V5.9h27.5c4.1,0,7.7,1,10.9,3c3.2,2,5.8,4.7,7.7,8c1.9,3.4,2.9,7.1,2.9,11.2c0,3.5-0.7,6.7-1.9,9.6
	c-1.3,2.9-3.1,5.3-5.4,7.4c-2.3,2-5,3.5-8,4.4l18.1,31.2h-12.9l-17.5-30.2h-10.2v30.2H223.4z M234.5,39.3h15.2
	c2.1,0,4.1-0.5,5.8-1.6c1.8-1.1,3.2-2.5,4.2-4.3c1-1.8,1.5-3.8,1.5-6s-0.5-4.3-1.5-6.1c-1-1.8-2.4-3.2-4.2-4.3
	c-1.8-1-3.7-1.6-5.8-1.6h-15.2V39.3z"/>
<path class="st0" d="M315.9,82c-6,0-11.2-1.5-15.6-4.4c-4.4-2.9-7.9-6.8-10.3-11.8c-2.4-4.9-3.7-10.4-3.7-16.4V5.9h11.1v43.6
	c0,3.9,0.7,7.5,2.2,10.8c1.4,3.3,3.5,5.9,6.3,7.8c2.8,1.9,6.1,2.9,10,2.9c4,0,7.4-1,10.1-2.9c2.7-1.9,4.8-4.5,6.2-7.8
	c1.4-3.3,2.1-6.8,2.1-10.8V5.9h11.1v43.6c0,4.5-0.7,8.7-2.1,12.7c-1.4,3.9-3.4,7.4-6,10.4c-2.6,3-5.7,5.3-9.3,7
	C324.4,81.2,320.4,82,315.9,82z"/>
<g>
	<path class="st0" d="M159.8,5.9c-2.2,4.9-4.3,9.8-6.5,14.7c7.3,20,14.6,40,21.9,60H187L159.8,5.9z"/>
	<path class="st1" d="M129.1,80.6c1.9,0.2,4.8,0.4,8.3-0.4c2.2-0.5,4.7-1.1,7.1-3.1c2.5-2,3.7-4.6,5.1-7.7c0.7-1.5,0.5-1.3,1.9-4.9
		c1.2-3.1,2.2-5.4,3.3-7.6c1-2.1,2.7-4.9,5.4-8c-1.8-0.2-4.5-0.3-7.6,0.2c-2.9,0.4-6,0.9-9,3.1c-2.2,1.6-3.2,3.3-4.9,6.1
		c-2.6,4.2-3.9,8.3-5,11.7c-0.7,2.1-1.4,4.5-3,7.7C130,78.9,129.4,79.9,129.1,80.6z"/>
</g>
</svg>
