<?xml version="1.0" encoding="utf-8"?>
<!-- Generator: Adobe Illustrator 26.5.3, SVG Export Plug-In . SVG Version: 6.00 Build 0)  -->
<svg version="1.1" id="Layer_1" xmlns="http://www.w3.org/2000/svg" xmlns:xlink="http://www.w3.org/1999/xlink" x="0px" y="0px"
	 viewBox="0 0 712.1 148.2" style="enable-background:new 0 0 712.1 148.2;" xml:space="preserve">
<style type="text/css">
	.st0{fill:url(#SVGID_1_);}
	.st1{fill:url(#SVGID_00000078029191777164027830000013181023685811146381_);}
	.st2{fill:url(#SVGID_00000087411765677545717820000012238119448003403704_);}
	.st3{fill:#0B0135;}
	.st4{fill:#2C04A8;}
</style>
<g>
	
		<linearGradient id="SVGID_1_" gradientUnits="userSpaceOnUse" x1="69" y1="75.9" x2="111.3" y2="75.9" gradientTransform="matrix(1 0 0 -1 0 150)">
		<stop  offset="4.081630e-02" style="stop-color:#613BFF"/>
		<stop  offset="0.9762" style="stop-color:#2C04A8"/>
	</linearGradient>
	<path class="st0" d="M111.3,74.1c0,11.7-9.5,21.2-21.2,21.2C78.4,95.2,69,85.7,69,74.1c0-11.7,9.5-21.2,21.2-21.2
		c2.6,0,5,0.4,7.3,1.3c-2.9,1-5,3.8-5,7.1c0,4.2,3.4,7.6,7.6,7.6c4,0,7.2-3,7.6-6.8C109.9,65.5,111.3,69.6,111.3,74.1z"/>
	<g>
		
			<linearGradient id="SVGID_00000083776534411046018260000003761579199974223259_" gradientUnits="userSpaceOnUse" x1="3.3" y1="103.45" x2="118.6" y2="103.45" gradientTransform="matrix(1 0 0 -1 0 150)">
			<stop  offset="4.081630e-02" style="stop-color:#613BFF"/>
			<stop  offset="0.7636" style="stop-color:#2C04A8"/>
			<stop  offset="0.9223" style="stop-color:#2C04A8"/>
			<stop  offset="0.9762" style="stop-color:#2C04A8"/>
		</linearGradient>
		<path style="fill:url(#SVGID_00000083776534411046018260000003761579199974223259_);" d="M118.5,47.4c0-12.5,0.1-25,0.1-37.6
			c-8.7-3.8-18.2-6-28.3-6c-33.2,0-61,23.1-68.3,54.1H3.3v31.2c17.1,0.1,34.2,0.1,51.2,0.2c-2-4.7-3.1-9.8-3.1-15.2
			c0-5.6,1.2-10.8,3.3-15.6c6-13.7,19.7-23.2,35.6-23.2C101.4,35.2,111.4,39.9,118.5,47.4z"/>
		
			<linearGradient id="SVGID_00000017477396656388223550000014271756167795272880_" gradientUnits="userSpaceOnUse" x1="41.5677" y1="-9.8847" x2="179.3374" y2="97.1542" gradientTransform="matrix(1 0 0 -1 0 150)">
			<stop  offset="4.081630e-02" style="stop-color:#613BFF"/>
			<stop  offset="0.4121" style="stop-color:#5011E4"/>
			<stop  offset="0.6714" style="stop-color:#2C04A8"/>
			<stop  offset="0.8475" style="stop-color:#2C04A8"/>
		</linearGradient>
		<path style="fill:url(#SVGID_00000017477396656388223550000014271756167795272880_);" d="M125.8,58.4L125.8,58.4
			c2.1,4.8,3.3,10.1,3.3,15.7c0,5.5-1.2,10.8-3.3,15.6c-6,13.7-19.7,23.3-35.6,23.3c-10.5,0-20-4.2-27-10.9
			c0,12.3-0.1,24.6-0.1,36.9c8.3,3.5,17.5,5.4,27.1,5.4c33.4,0,61.4-23.4,68.5-54.7H177V58.4C159.9,58.4,142.9,58.4,125.8,58.4z"/>
	</g>
</g>
<g>
	<path class="st3" d="M228.8,10.1c-20.4,0-32.6,12.5-32.6,33.5v62.3c0,21,12.2,33.5,32.6,33.5c20.5,0,32.8-12.5,32.8-33.5V89.6h-18
		v16.9c0,10.5-5,16-14.5,16c-9.3,0-14.5-5.7-14.5-16V42.9c0-10.2,5.1-15.9,14.5-15.9c9.5,0,14.5,5.5,14.5,15.9v13.4h18V43.6
		C261.6,22.3,249.7,10.1,228.8,10.1z"/>
	<path class="st3" d="M293.1,11.9l-26.8,125.8h17.9l5.2-25.8h29.1l5.4,25.8h19L315.7,11.9H293.1z M315,95.1h-22l10.9-53.7L315,95.1z
		"/>
	<polygon class="st3" points="395.4,100.6 375.8,11.9 351.3,11.9 351.3,137.7 368.4,137.7 368.4,54.3 387.3,137.7 402.6,137.7 
		421.5,54.3 421.5,137.7 439.6,137.7 439.6,11.9 415,11.9 	"/>
	<polygon class="st4" points="448.6,29 473.4,29 473.4,137.7 491.9,137.7 491.9,29 516.6,29 516.6,11.9 448.6,11.9 	"/>
	<path class="st4" d="M591.1,119.8v-18.5c0-14.2-4-23-12.6-27.2c8.4-4.5,12.4-13,12.4-25.8v-5.4c0-20.9-10.8-31.1-33.1-31.1h-31.9
		v125.8h18.5v-54h11.2c12.9,0,17.1,4.1,17.1,16.7v19.2c0,8.3,0.4,12.3,1.8,16.5l0.5,1.6h19l-1.1-3.1
		C591.3,130.1,591.1,124.6,591.1,119.8z M544.3,29h13.3c10.8,0,14.8,4.3,14.8,15.7v6.1c0,11.3-4.9,15.9-16.9,15.9h-11.2V29z"/>
	<rect x="604.8" y="11.9" class="st4" width="18.5" height="125.8"/>
	<polygon class="st4" points="680.6,73.4 708.1,11.9 689.4,11.9 670.6,54.4 652.2,11.9 632.1,11.9 659.6,73.4 631,137.7 
		649.6,137.7 669.6,92.2 689,137.7 709.3,137.7 	"/>
</g>
</svg>
