<svg width="144" height="48" viewBox="0 0 144 48" fill="none" xmlns="http://www.w3.org/2000/svg">
<mask id="mask0_535_71" style="mask-type:luminance" maskUnits="userSpaceOnUse" x="8" y="13" width="128" height="22">
<path d="M135.785 13H8.78516V35H135.785V13Z" fill="white"/>
</mask>
<g mask="url(#mask0_535_71)">
<path d="M8.78516 13.0707V18.9556H12.7241V34.4731H19.3817V13.0707M30.6232 21.2042H27.5077V18.9454H29.0754V13.0707H20.8601V34.4731H27.5077V26.3801H30.6232V34.4731H37.2907V13.0707H30.6232M38.7492 34.4731H51.0821V28.578H45.1091V26.0863H48.9092V21.2042H45.1091V18.9556H51.0821V13.0707H38.7492M103.519 20.3128C103.519 15.6941 100.176 13.0707 95.4329 13.0707H88.0212V34.4629H94.6788V28.9832L98.4888 34.4629H106L100.602 26.2585C102.547 25.1747 103.519 23.1996 103.519 20.3128ZM94.659 22.683V18.7024C95.5817 18.7024 96.7128 18.986 97.0502 20.0191C97.0799 20.1103 97.0998 20.2116 97.1295 20.3128C97.1295 20.323 97.1295 20.3432 97.1395 20.3534C97.1494 20.4547 97.1692 20.5762 97.1692 20.6977C97.1692 22.288 95.7504 22.683 94.659 22.683ZM64.2683 26.1066H64.2087L63.7325 24.3442L62.2442 18.9657H64.8636L66.59 13.0707H53.2947L60.9147 34.4629H67.7409L68.5645 32.1738C68.5645 32.1738 72.2157 22.0652 74.21 16.555V34.4629H86.5429V28.5679H80.5699V26.0762H84.3601V21.2042H80.5699V18.9556H86.5429V13.0605H68.118L64.2683 26.1066ZM135.785 18.9657V13.0808H123.452V34.4731H135.785V28.578H129.802V26.0863H133.602V21.2245H129.802V18.9657" fill="white"/>
<path d="M122.174 29.9858V21.2648H112.767V26.1267H116.269V27.8587C116.002 28.1018 115.426 28.2335 114.831 28.2335C112.39 28.2335 110.584 26.2685 110.584 23.8679C110.584 21.4674 112.34 19.3403 114.781 19.3403C116.259 19.3403 119.762 19.3504 119.762 19.3504V13.0097H118.164C115.188 13.0097 112.221 12.7666 109.493 14.205C107.34 15.3394 105.633 17.2639 104.73 19.553C104.204 20.9002 103.938 22.3587 103.938 23.8072C103.938 29.8744 108.6 34.9895 114.642 34.9895C117.639 34.9895 120.566 33.8449 122.163 32.4167C122.173 30.9379 122.174 30.7151 122.174 29.9858Z" fill="white"/>
</g>
</svg>
