<svg width="63" height="64" viewBox="0 0 63 64" fill="none" xmlns="http://www.w3.org/2000/svg">
<g clip-path="url(#clip0_676_11091)">
<mask id="mask0_676_11091" style="mask-type:luminance" maskUnits="userSpaceOnUse" x="0" y="0" width="63" height="63">
<path d="M62.5 0.710938H0.5V62.7109H62.5V0.710938Z" fill="white"/>
</mask>
<g mask="url(#mask0_676_11091)">
<mask id="mask1_676_11091" style="mask-type:luminance" maskUnits="userSpaceOnUse" x="0" y="0" width="63" height="63">
<path d="M62.5 0.710938H0.5V62.711H62.5V0.710938Z" fill="white"/>
</mask>
<g mask="url(#mask1_676_11091)">
<path d="M47 43.3359C47.535 43.3359 47.9688 42.9022 47.9688 42.3671C47.9688 41.8321 47.535 41.3984 47 41.3984C46.465 41.3984 46.0312 41.8321 46.0312 42.3671C46.0312 42.9022 46.465 43.3359 47 43.3359Z" fill="#1C2B54"/>
<path d="M52.7826 16.8774C52.6489 16.3581 52.1219 16.0501 51.6027 16.1799L49.6652 16.6778C49.1479 16.8115 48.8359 17.3395 48.9677 17.8568C49.08 18.2947 49.4734 18.5843 49.9054 18.5843C49.9858 18.5843 50.0662 18.5746 50.1476 18.5543L52.0851 18.0563C52.6024 17.9236 52.9144 17.3957 52.7826 16.8774Z" fill="#1C2B54"/>
<path d="M61.5314 34.6172H57.6564C57.1206 34.6172 56.6876 35.0512 56.6876 35.5859V49.1484C56.6876 49.6822 56.2536 50.1172 55.7189 50.1172H53.7814V47.2109C53.7814 46.1424 52.9124 45.2734 51.8439 45.2734H50.847C50.9565 45.1281 51.0756 44.9915 51.1696 44.8327C51.8284 43.7186 52.0134 42.4156 51.6918 41.1621C51.4089 40.0625 50.7569 39.1645 49.9151 38.5271C51.9959 37.5661 53.1681 35.2314 52.5791 32.9325L52.3379 31.9948L53.2766 31.7536C55.5319 31.1733 57.4268 29.7512 58.6125 27.7458C59.7983 25.7405 60.1305 23.3952 59.5522 21.1399L58.3471 16.4483L61.1623 15.7256C61.6796 15.5919 61.9915 15.0639 61.8598 14.5466L61.1371 11.7314C59.1414 3.97072 51.2035 -0.720932 43.4458 1.27178L28.434 5.12741L27.7113 2.31319C27.5776 1.79394 27.0487 1.48782 26.5314 1.61569L19.0245 3.54351C18.7756 3.60744 18.5624 3.76729 18.4326 3.98913C18.3009 4.21001 18.2641 4.47351 18.328 4.72344L19.0507 7.53766L1.22279 12.116C0.705477 12.2497 0.39354 12.7777 0.525289 13.295L1.00676 15.1724C1.52601 17.1942 3.05566 18.688 4.91566 19.2683C4.99995 21.7687 5.41941 24.5606 6.13726 27.3574C7.1622 31.3457 8.68507 34.9669 10.4249 37.5525C12.4613 40.5769 14.205 41.3655 15.4702 41.3655C15.7395 41.3655 15.9885 41.3297 16.2132 41.2725C16.3149 41.2463 16.4186 41.2115 16.5242 41.1718C16.5775 41.1669 16.6298 41.165 16.6831 41.1514L26.5343 38.621H26.5362L37.3252 35.8504L37.5654 36.7882C38.1264 38.9717 40.0997 40.4278 42.259 40.4278C42.3704 40.4278 42.4838 40.4142 42.5952 40.4064C42.1505 41.4013 42.0343 42.5009 42.3084 43.5713C42.4722 44.2098 42.7686 44.7765 43.1435 45.2725H42.1564C41.0878 45.2725 40.2189 46.1414 40.2189 47.21V50.1162C40.2189 51.1848 41.0878 52.0537 42.1564 52.0537H43.1251V53.0225C43.1251 55.6933 45.298 57.8662 47.9689 57.8662H54.7501V61.7412C54.7501 62.276 55.1831 62.71 55.7189 62.71H61.5314C62.0671 62.71 62.5001 62.276 62.5001 61.7412V56.8975V35.5859C62.5001 35.0512 62.0671 34.6172 61.5314 34.6172ZM26.0751 3.73338L26.5566 5.60985L20.9272 7.05619L20.4457 5.17972L26.0751 3.73338ZM17.5617 35.0512C17.3418 37.4973 16.6404 39.1626 15.7298 39.396C14.8211 39.6334 13.4039 38.5087 12.0321 36.4714C10.4123 34.064 8.98441 30.656 8.0147 26.8759C7.36176 24.3339 6.97716 21.8113 6.87351 19.5318C7.27457 19.5153 7.67951 19.4601 8.08348 19.3565L8.78388 19.1763C8.84201 20.891 9.10066 23.3196 9.8902 26.3935C11.1951 31.4717 12.9282 34.3992 13.8456 35.6925C14.0297 35.9531 14.3261 36.1003 14.6351 36.1003C14.7155 36.1003 14.7959 36.0907 14.8764 36.0703C15.2648 35.9705 15.5516 35.6412 15.5971 35.243C15.7783 33.6688 15.8868 30.2704 14.5819 25.1883C13.9241 22.6299 13.0522 20.2913 12.0612 18.3344L13.9822 17.8413C14.9645 19.8612 15.8199 22.224 16.4583 24.7069C17.4309 28.4869 17.8223 32.1604 17.5617 35.0512ZM10.7708 20.084C11.3918 21.4412 12.0951 23.2925 12.7064 25.6708C13.3079 28.0152 13.5928 29.9633 13.7061 31.5094C13.0599 30.0999 12.3692 28.2554 11.7676 25.912C11.1602 23.5483 10.8832 21.5923 10.7708 20.084ZM26.0528 36.7446L18.7717 38.6143C19.1049 37.7618 19.3636 36.6593 19.4924 35.2236C19.7714 32.1188 19.3607 28.2128 18.3367 24.2244C17.7032 21.759 16.8574 19.4078 15.8906 17.3512L24.3004 15.1908C25.2836 17.2136 26.1419 19.5648 26.7813 22.0544C28.9445 30.4835 27.8159 36.2912 26.0528 36.7446ZM37.7815 33.7327L29.0685 35.9705C30.3657 32.6535 30.0169 26.8653 28.6578 21.573C28.0223 19.1017 27.1766 16.7593 26.2088 14.7016L27.7888 14.2957C29.8581 13.7629 31.9738 15.0155 32.5057 17.0838C32.8912 18.5873 33.8406 19.8515 35.1775 20.641C36.0862 21.1777 37.0975 21.4528 38.1264 21.4528C38.6107 21.4528 39.0999 21.3918 39.5824 21.2678L46.2735 19.5493C46.7909 19.4156 47.1028 18.8876 46.971 18.3703C46.8374 17.852 46.3094 17.541 45.7911 17.6728L39.0999 19.3913C38.0973 19.65 37.0559 19.5008 36.1637 18.9738C35.2724 18.4478 34.6408 17.605 34.3831 16.6023C33.5849 13.4975 30.4083 11.6229 27.3064 12.4193L7.60104 17.48C5.53082 18.0099 3.41604 16.7602 2.8842 14.691L2.64298 13.7523L20.4699 9.17388L27.9777 7.24607L27.9806 7.2451L43.9282 3.14922C50.6494 1.41904 57.5314 5.48875 59.2587 12.2139L59.7411 14.0913L56.9269 14.814L55.1357 15.2732C54.6174 15.4069 54.3054 15.9348 54.4382 16.4531C54.5728 16.9724 55.1027 17.2804 55.6181 17.1506L56.4696 16.9317L57.6738 21.6233C58.6048 25.2445 56.4144 28.9481 52.7932 29.8781L50.9187 30.3595H50.9158L50.9139 30.3605L37.7815 33.7327ZM42.9808 38.3982C41.4288 38.7944 39.841 37.8577 39.4429 36.3067L39.2026 35.3689L50.4624 32.4772L50.7036 33.415C51.1018 34.9679 50.1631 36.5547 48.6111 36.9528L42.9808 38.3982ZM49.5014 43.8465C49.1071 44.5149 48.4745 44.9886 47.7228 45.1814C46.973 45.3732 46.1893 45.2638 45.5218 44.8685C44.8534 44.4733 44.3787 43.8416 44.1859 43.0899C43.9931 42.3381 44.1035 41.5563 44.4988 40.8879C44.8931 40.2195 45.5257 39.7458 46.2774 39.553C46.5186 39.491 46.7628 39.46 47.0059 39.46C47.5184 39.46 48.026 39.5975 48.4794 39.8649C49.1478 40.2602 49.6225 40.8918 49.8153 41.6435C50.0071 42.3963 49.8967 43.178 49.5014 43.8465ZM44.0939 50.1172H42.1564V47.2109H46.9953H47.0011H47.0088H51.8439L51.8448 50.1172H44.0939ZM60.5626 60.7734H56.6876V57.8672H60.5626V60.7734ZM60.5626 55.9297H55.7189H47.9689C46.3665 55.9297 45.0626 54.6258 45.0626 53.0234V52.0547H51.8439H55.7189C57.3212 52.0547 58.6251 50.7508 58.6251 49.1484V36.5547H60.5626V55.9297Z" fill="#1C2B54"/>
</g>
</g>
</g>
<defs>
<clipPath id="clip0_676_11091">
<rect width="63" height="63" fill="white" transform="translate(0 0.355469)"/>
</clipPath>
</defs>
</svg>
