<svg width="40" height="41" viewBox="0 0 40 41" fill="#2b50aa" xmlns="http://www.w3.org/2000/svg"><path d="M7.63833 29.3656C5.92167 27.5423 5 25.4973 5 22.1823C5 16.349 9.095 11.1206 15.05 8.53564L16.5383 10.8323C10.98 13.839 9.89333 17.7406 9.46 20.2006C10.355 19.7373 11.5267 19.5756 12.675 19.6823C15.6817 19.9606 18.0517 22.429 18.0517 25.4973C18.0517 27.0444 17.4371 28.5281 16.3431 29.6221C15.2492 30.7161 13.7654 31.3306 12.2183 31.3306C11.3628 31.3232 10.5172 31.1456 9.73094 30.8082C8.94465 30.4709 8.23331 29.9805 7.63833 29.3656ZM24.305 29.3656C22.5883 27.5423 21.6667 25.4973 21.6667 22.1823C21.6667 16.349 25.7617 11.1206 31.7167 8.53564L33.205 10.8323C27.6467 13.839 26.56 17.7406 26.1267 20.2006C27.0217 19.7373 28.1933 19.5756 29.3417 19.6823C32.3483 19.9606 34.7183 22.429 34.7183 25.4973C34.7183 27.0444 34.1038 28.5281 33.0098 29.6221C31.9158 30.7161 30.4321 31.3306 28.885 31.3306C28.0294 31.3232 27.1839 31.1456 26.3976 30.8082C25.6113 30.4709 24.9 29.9805 24.305 29.3656Z" fill="url(#paint0_linear_263_11371)"/><defs><linearGradient id="paint0_linear_263_11371" x1="19.8592" y1="8.53564" x2="19.8592" y2="31.3306" gradientUnits="userSpaceOnUse"><stop stop-color="#2b50aa"/><stop offset="1" stop-color="#2b50aa"/></linearGradient></defs></svg>